<svg width="191" height="299" viewBox="0 0 191 299" fill="none" xmlns="http://www.w3.org/2000/svg">
<g clip-path="url(#clip0_332_117)">
<path d="M84.1748 3.90006C84.1748 6.34249 84.7263 8.54855 85.7506 10.0455C86.9324 11.7789 87.3263 13.7485 87.3263 17.3728V22.3364L89.296 20.9182C90.8718 19.7364 91.1869 18.8698 91.1869 15.5607C91.2657 12.8031 90.793 10.991 89.69 9.65158C88.6657 8.31218 88.1142 6.42127 88.1142 3.90006C88.1142 0.512184 87.9566 0.197032 86.1445 0.197032C84.3324 0.197032 84.1748 0.433396 84.1748 3.90006Z" fill="white"/>
<path d="M90.4775 3.74263V7.28809H95.2048H99.9321V3.74263C99.9321 0.748692 99.6957 0.197177 98.3563 0.197177C97.3321 0.197177 96.7806 0.748692 96.7806 1.77293C96.7806 2.79718 96.2291 3.34869 95.2048 3.34869C94.1806 3.34869 93.6291 2.79718 93.6291 1.77293C93.6291 0.748692 93.0775 0.197177 92.0533 0.197177C90.7139 0.197177 90.4775 0.748692 90.4775 3.74263Z" fill="white"/>
<path d="M103.084 3.11213C103.084 4.76668 102.375 7.28789 101.508 8.70607C99.302 12.3303 99.302 19.5 101.508 20.6818C103.005 21.4697 103.084 21.3121 103.084 17.3727C103.084 14.6152 103.635 12.3303 104.66 10.597C105.684 8.94243 106.235 6.65759 106.235 4.13637C106.235 0.748494 105.999 0.196979 104.66 0.196979C103.399 0.196979 103.084 0.748494 103.084 3.11213Z" fill="white"/>
<path d="M69.2051 7.36672C69.2051 10.2819 69.6778 12.094 71.1748 14.2213C72.7505 16.5061 73.1445 18.0819 73.1445 21.6273C73.1445 25.6455 73.302 26.197 74.7202 26.197C76.1384 26.197 76.296 25.6455 76.296 20.8394C76.296 16.9001 75.902 14.9304 74.7202 13.197C73.696 11.7001 73.1445 9.49399 73.1445 7.05157C73.1445 3.66369 72.9869 3.34853 71.1748 3.34853C69.3627 3.34853 69.2051 3.5849 69.2051 7.36672Z" fill="white"/>
<path d="M75.5078 6.894V10.4395H78.6593C81.2593 10.4395 81.8108 10.1243 81.8108 8.94248C81.8108 8.1546 81.1018 7.28794 80.2351 7.05157C79.2896 6.81521 78.6593 5.94854 78.6593 5.00309C78.6593 3.90006 78.1866 3.34854 77.0836 3.34854C75.7442 3.34854 75.5078 3.90006 75.5078 6.894Z" fill="white"/>
<path d="M111.75 5.31824C111.75 6.73642 111.356 7.28794 110.174 7.28794C109.15 7.28794 108.599 7.83945 108.599 8.8637C108.599 10.2031 109.15 10.4395 111.75 10.4395H114.902V6.894C114.902 3.90006 114.665 3.34854 113.326 3.34854C112.144 3.34854 111.75 3.90006 111.75 5.31824Z" fill="white"/>
<path d="M118.054 6.73641C118.054 9.02126 117.423 10.991 116.084 12.9607C114.508 15.3243 114.114 16.8213 114.114 20.997C114.114 26.0394 114.193 26.197 116.084 26.197C117.975 26.197 118.054 25.9607 118.054 21.2334C118.054 17.6879 118.526 15.7182 119.629 13.9849C120.654 12.4091 121.205 10.2819 121.205 7.4455C121.205 3.90005 120.969 3.34853 119.629 3.34853C118.29 3.34853 118.054 3.90005 118.054 6.73641Z" fill="white"/>
<path d="M57.3867 11.3848C57.3867 14.2212 57.9382 16.3485 58.9625 17.9242C60.2231 19.7364 60.5382 21.6273 60.5382 26.3545V32.5H72.7504C84.411 32.5 84.9625 32.4212 84.9625 30.9242C84.9625 29.5061 84.3322 29.3485 74.5625 29.1909L64.0837 28.9545L63.8473 23.5182C63.6897 19.6576 63.1382 17.4515 62.114 15.8758C61.1685 14.6152 60.5382 12.4879 60.5382 10.5182C60.5382 7.83939 60.3019 7.28788 58.9625 7.28788C57.6231 7.28788 57.3867 7.83939 57.3867 11.3848Z" fill="white"/>
<path d="M63.6895 10.8335C63.6895 13.8274 63.9258 14.3789 65.2652 14.3789C66.6046 14.3789 66.841 13.8274 66.841 10.8335C66.841 7.83951 66.6046 7.288 65.2652 7.288C63.9258 7.288 63.6895 7.83951 63.6895 10.8335Z" fill="white"/>
<path d="M123.568 10.8335C123.568 14.0638 123.726 14.3789 125.538 14.3789C127.35 14.3789 127.508 14.0638 127.508 10.8335C127.508 7.60315 127.35 7.288 125.538 7.288C123.726 7.288 123.568 7.60315 123.568 10.8335Z" fill="white"/>
<path d="M129.872 10.597C129.872 12.5667 129.241 15.0879 128.296 16.5848C127.114 18.4758 126.72 20.5242 126.72 24.2273V29.3485H116.478C106.787 29.3485 106.235 29.4273 106.235 30.9242C106.235 32.4212 106.787 32.5 118.054 32.5H129.872V26.5121C129.872 21.4697 130.187 20.1303 131.841 17.6879C133.26 15.6394 133.811 13.7485 133.811 11.0697C133.811 7.52424 133.654 7.28788 131.841 7.28788C130.029 7.28788 129.872 7.60303 129.872 10.597Z" fill="white"/>
<path d="M90.7926 22.8881C88.2714 24.9366 87.326 27.2214 87.326 31.6335V35.6517H73.932C61.0896 35.6517 60.5381 35.7305 60.5381 37.2275C60.5381 38.7244 61.0896 38.8032 75.9017 38.8032H91.2654V32.9729C91.2654 27.7729 91.5017 26.9063 92.9987 25.882C95.3623 24.2275 96.4654 24.3063 98.3563 26.1972C99.6169 27.4578 99.932 28.7972 99.932 33.2881V38.8032H114.902C129.32 38.8032 129.871 38.7244 129.871 37.2275C129.871 35.7305 129.241 35.6517 116.714 35.4941L103.477 35.2578L103.084 30.2941C102.768 26.0396 102.374 25.0153 100.484 23.3608C97.8048 21.076 93.2351 20.8396 90.7926 22.8881Z" fill="white"/>
<path d="M31.938 38.173C23.6653 46.4458 20.7501 52.8276 22.4047 59.0518C23.1926 61.8094 23.7441 61.2579 25.7138 56.2155C27.8411 50.7791 35.0107 40.1427 36.1138 40.773C36.9804 41.3245 36.1926 43.0579 32.8047 48.0215C30.9138 50.7791 26.6592 60.5488 26.6592 62.1245C26.6592 62.6761 35.7198 53.2215 38.0835 50.2276C41.7865 45.4215 42.4956 36.8336 39.4229 33.5245C38.1623 32.0276 37.8471 32.1852 31.938 38.173Z" fill="white"/>
<path d="M149.804 32.9729C149.568 33.6032 149.962 35.3366 150.75 36.7548C152.404 39.7487 151.932 41.9548 149.568 41.9548C147.52 41.9548 147.52 44.0032 149.726 45.7366C150.592 46.4457 152.483 48.0214 153.823 49.2032C156.265 51.4093 156.265 51.4093 154.453 51.882C151.774 52.6699 152.641 54.5608 156.659 57.0032C158.629 58.1851 160.441 59.2093 160.677 59.2093C162.804 59.4457 161.386 51.3305 158.235 45.1063C157.526 43.6093 156.58 41.482 156.265 40.379L155.635 38.4093L157.447 39.9851C159.495 41.7972 162.332 47.2336 163.75 51.9608C164.301 53.8517 165.089 55.3487 165.404 55.3487C166.507 55.3487 167.138 42.5063 166.113 38.9608C165.247 35.6517 162.962 33.6032 162.332 35.4942C161.78 37.1487 159.338 36.5184 156.265 34.076C152.956 31.476 150.592 31.082 149.804 32.9729Z" fill="white"/>
<path d="M54.2354 84.6578C54.2354 126.809 54.3141 128.306 55.8899 131.773C59.4354 139.652 64.7929 142.803 78.502 145.088C87.8778 146.664 91.3444 147.688 93.6293 149.579C94.6535 150.446 95.599 150.288 98.9081 148.634C101.193 147.452 106.078 146.112 110.332 145.482C114.351 144.852 119.472 143.828 121.678 143.197C126.484 141.779 132.314 136.973 134.835 132.246C136.569 129.015 136.569 128.7 136.805 85.0518L137.041 41.1669H95.599H54.2354V84.6578ZM84.1747 63.2275V81.3487H70.7808H57.3869V63.2275V45.1063H70.7808H84.1747V63.2275ZM133.023 63.2275V81.3487H119.629H106.235V63.2275V45.1063H119.629H133.023V63.2275ZM84.1747 122.791V142.173L79.2899 141.621C69.6778 140.518 64.005 137.84 60.6172 132.955C57.9384 129.015 57.3869 125.864 57.3869 114.282V103.409H70.7808H84.1747V122.791ZM132.866 116.331L132.629 129.252L130.266 132.718C127.114 137.209 121.678 140.046 114.351 141.149C111.12 141.621 108.047 142.015 107.417 142.015C106.393 142.015 106.235 139.1 106.235 122.712V103.409H119.708H133.102L132.866 116.331Z" fill="white"/>
<path d="M15.866 45.8943C14.4478 46.6821 12.3205 48.8882 11.1387 50.7003C9.16898 53.773 8.93262 54.7185 8.93262 61.1791C8.93262 67.9549 9.09019 68.7427 12.2417 75.4397C14.0538 79.3003 15.9447 84.1852 16.4175 86.2337C16.969 88.3609 18.3084 90.7246 19.6478 92.064L21.9326 94.27V90.3306C21.9326 84.973 20.8296 81.27 16.7326 72.9973C12.9508 65.4337 11.9266 61.1791 12.7932 56.6094C13.6599 52.1973 14.6053 53.3003 14.9993 59.0518C15.3932 64.173 18.9387 73.47 20.5144 73.47C21.6175 73.47 21.2235 66.4579 19.8841 61.3367C19.0175 58.0276 18.7023 54.6397 19.0175 50.3852C19.2538 47.0761 19.175 44.3185 18.9387 44.3185C18.6235 44.3185 17.2841 45.0276 15.866 45.8943Z" fill="white"/>
<path d="M169.187 49.9121C168.714 50.8576 168.478 52.7485 168.714 54.1667C169.187 57.2394 168.241 58.894 165.957 58.894C163.514 58.894 163.199 61.7303 165.248 65.1182C167.375 68.5061 167.296 68.7425 164.932 68.7425C161.86 68.7425 161.781 70.6334 164.46 75.4394C165.799 77.8031 166.902 80.0879 166.902 80.5606C166.902 80.9546 165.878 81.3485 164.538 81.3485C162.569 81.3485 162.175 81.6637 162.175 83.2394C162.175 84.2637 163.041 87.0212 164.145 89.3849C165.248 91.6697 166.114 94.3485 166.114 95.294C166.114 97.7364 166.902 99.4697 168.005 99.4697C169.817 99.4697 171.945 85.0515 172.181 71.5C172.26 64.5667 172.654 58.8152 172.969 58.6576C173.284 58.5 174.072 59.9182 174.623 61.8091C175.411 64.2515 175.569 68.6637 175.332 77.5667C175.175 84.4212 175.254 90.0152 175.49 90.0152C175.805 90.0152 176.435 88.8334 176.987 87.3364C178.248 83.7909 180.454 81.9788 183.605 81.8212C185.969 81.7425 186.205 81.4273 186.441 79.0637C186.678 76.7788 186.52 76.5425 185.181 77.0152C182.738 77.7243 182.423 76.2273 184.235 72.7606C186.835 67.6394 185.89 63.4637 182.817 66.5364C181.084 68.2697 180.532 65.9849 181.32 60.7849C181.951 56.7667 181.872 55.8212 180.848 54.797C179.745 53.694 179.429 53.694 178.248 54.5606C176.829 55.8212 176.514 55.5061 173.835 50.7C172.26 47.8637 170.448 47.5485 169.187 49.9121Z" fill="white"/>
<path d="M39.187 53.9306C38.6355 54.9549 35.7203 58.1852 32.5688 61.2579C27.0536 66.6943 24.1385 71.3427 23.2718 76.3064C22.7991 78.67 23.0355 78.5124 28.1567 73.5488C31.1506 70.7124 34.5385 66.8518 35.7203 65.0397C39.5809 58.973 39.8961 63.07 36.0355 69.2943C35.1688 70.6337 32.3324 73.6276 29.7324 75.8337C25.0839 79.9306 23.7445 82.2943 24.6112 85.0518C25.0052 86.3124 26.187 85.5246 32.0961 79.8518C39.6597 72.5246 42.2597 68.4276 42.9688 62.5185C43.3627 58.8155 42.2597 53.4579 40.8415 52.5912C40.4476 52.3549 39.7385 52.9852 39.187 53.9306Z" fill="white"/>
<path d="M148.229 58.2637C147.993 58.9728 148.466 61.0213 149.411 62.7546C151.459 66.5364 151.538 67.8758 149.963 68.4273C147.993 69.2152 148.623 70.9486 151.932 74.5728C155.714 78.6698 155.872 79.7728 152.72 79.7728C150.829 79.7728 150.356 80.0879 150.356 81.4273C150.356 84.0273 151.775 86.0758 158.078 92.6152L163.987 98.6819L163.514 95.6092C163.278 93.8758 162.49 91.2758 161.781 89.8576C159.259 85.0516 158.944 82.8455 160.284 80.0879C161.781 76.9364 161.15 74.494 157.369 68.5849C154.532 64.1728 154.847 62.8334 158.078 65.7486C160.047 67.6395 160.284 67.6395 161.466 66.3789C162.49 65.3546 162.569 64.7243 161.859 63.5425C161.387 62.7546 160.441 61.9667 159.811 61.8092C159.181 61.6516 156.975 60.4698 155.005 59.2092C150.908 56.6092 148.938 56.294 148.229 58.2637Z" fill="white"/>
<path d="M4.2844 74.4941C1.36925 78.276 0.660156 80.876 0.660156 87.1002C0.660156 94.5063 2.86622 99.3123 9.56319 106.403C12.3208 109.318 15.2359 112.785 16.1026 113.967L17.5208 116.252L18.545 113.967C19.0965 112.706 19.4905 111.13 19.4905 110.5C19.4905 109.87 16.8905 106.482 13.6602 103.094C7.27834 96.3972 4.59955 91.0396 4.59955 85.2093C4.59955 81.0335 6.33288 81.5063 7.12076 85.8396C7.98743 91.0396 9.79955 94.5063 14.1329 99.076C16.4177 101.44 18.3874 103.252 18.545 103.094C19.2541 102.385 16.8117 95.4517 13.2662 88.2032C11.1389 84.0275 9.01167 78.5911 8.53894 76.2275C8.06622 73.8638 7.35713 71.8941 6.96319 71.8941C6.56925 71.8941 5.38743 73.076 4.2844 74.4941Z" fill="white"/>
<path d="M35.6413 81.1911C28.1564 86.7063 22.8777 95.0578 22.1686 102.543L21.8534 106.955L23.9019 104.591C26.8958 101.203 31.1504 94.5851 33.1201 90.1729C34.6958 86.7063 34.8534 86.6275 35.1686 88.5972C35.5625 91.5123 32.9625 97.0275 28.314 103.331C24.3746 108.688 20.3564 116.015 20.3564 117.749C20.3564 118.3 21.2231 119.403 22.2474 120.112L24.1383 121.531L25.5564 117.197C26.2655 114.834 29.1019 109.634 31.8595 105.615C37.4534 97.579 38.1625 95.9245 39.1867 88.0457C39.6595 84.9729 40.211 81.7426 40.5261 80.7184C41.2352 78.276 39.4231 78.4335 35.6413 81.1911Z" fill="white"/>
<path d="M180.768 86.2335C180.138 87.2578 179.429 89.1487 179.114 90.5669C178.484 93.876 176.908 95.1366 175.568 93.5608C175.017 92.9305 174.071 92.379 173.441 92.379C172.496 92.379 172.338 93.4032 172.496 97.6578C172.732 100.967 172.496 102.937 172.023 102.858C171.629 102.858 171.156 104.355 171.156 106.246C171.078 108.924 171.314 109.791 172.496 110.106C173.362 110.421 173.993 111.052 173.993 111.524C174.071 113.415 177.932 106.009 179.587 101.046C180.453 98.2093 181.399 95.3729 181.556 94.7426C181.95 93.7972 182.108 93.7972 182.817 94.979C184.393 97.8154 180.532 108.531 175.017 116.882C173.599 119.088 173.284 120.191 173.835 121.215C174.308 122.082 174.702 122.24 175.096 121.609C175.805 120.506 179.114 120.506 181.162 121.531C182.738 122.397 184.708 121.767 186.914 119.482C188.962 117.512 188.49 116.015 185.811 116.015C182.659 116.015 182.817 114.991 186.599 111.367C190.065 108.058 190.853 104.985 188.174 104.985C186.126 104.985 186.205 103.724 188.568 99.8638C189.671 98.1305 190.538 95.6881 190.538 94.5063C190.538 92.5366 190.302 92.3002 188.411 92.5366C186.362 92.7729 186.205 92.5366 185.968 89.6214C185.496 84.5002 182.974 82.8457 180.768 86.2335Z" fill="white"/>
<path d="M153.823 97.5001C153.508 98.6032 153.508 100.967 153.823 102.7C154.296 105.536 154.138 105.852 152.326 106.561C149.962 107.506 149.962 107.664 152.011 113.652C153.902 119.167 153.587 121.294 151.144 119.955C148.544 118.536 147.993 119.718 147.993 126.258C147.993 129.646 147.678 133.349 147.205 134.452C146.575 136.106 146.732 136.5 147.993 136.894C148.859 137.209 150.12 138.312 150.75 139.494L151.853 141.621L151.932 139.021C151.932 135.87 153.035 133.506 155.556 131.379C158.078 129.252 159.338 121.136 158.629 111.761C158.235 106.167 158.314 104.906 159.181 105.143C160.441 105.536 162.017 112.47 162.096 117.985C162.096 120.112 161.623 124.052 160.993 126.652C159.653 132.324 159.653 132.561 160.52 132.561C160.914 132.561 161.387 131.694 161.702 130.749C161.938 129.724 162.884 127.912 163.829 126.73C165.326 124.84 165.956 124.603 168.478 124.997C170.762 125.391 171.55 125.155 171.944 124.209C172.575 122.555 171.865 121.53 169.975 121.53C167.926 121.53 168.084 120.349 170.447 117.276C173.284 113.573 173.126 111.761 169.975 112.391L167.611 112.864L167.847 107.506C168.084 101.912 168.005 101.833 163.987 103.015C162.568 103.488 162.017 103.015 160.52 100.1C159.575 98.288 158.393 96.4759 157.92 96.1607C156.108 94.9789 154.296 95.5304 153.823 97.5001Z" fill="white"/>
<path d="M35.0115 106.64C33.9085 109.003 32.0964 112.312 30.9934 114.046C28.2358 118.379 27.2903 122.555 27.9206 126.809L28.4722 130.355L31.3873 124.052C33.0419 120.585 34.7752 116.488 35.3267 114.912C35.7994 113.336 36.5873 112.312 37.06 112.549C38.2419 113.258 37.1388 117.985 34.0661 124.918C30.8358 132.246 30.757 134.058 33.357 136.5L35.3267 138.312V135.633C35.4055 134.136 36.4297 130.276 37.7691 127.046C41.4722 117.827 41.7873 108.136 38.557 104.118L37.1388 102.385L35.0115 106.64Z" fill="white"/>
<path d="M3.25899 107.9C2.86505 109.161 2.62869 112.391 2.70748 115.227C2.78627 124.288 7.35596 130.355 17.9923 135.712C21.3802 137.446 25.3984 139.888 26.8166 141.149C28.5499 142.646 30.5196 143.512 32.8045 143.749C34.6166 143.906 36.1135 143.827 36.1135 143.591C36.1135 142.015 27.762 135.239 22.4045 132.482C18.859 130.67 14.8408 128.227 13.3438 127.124C9.24687 124.052 4.5196 116.015 6.80445 116.015C7.1196 116.015 7.98627 117.039 8.77415 118.3C10.8226 121.846 15.5499 126.021 20.4348 128.621C22.8772 129.882 25.162 130.985 25.4772 130.985C27.0529 130.985 21.459 123.736 16.259 118.93C12.8711 115.936 9.0893 111.761 7.67112 109.633C6.33172 107.506 4.91354 105.773 4.5196 105.773C4.12566 105.773 3.57415 106.718 3.25899 107.9Z" fill="white"/>
<path d="M173.127 127.203C170.133 130.434 169.896 130.512 168.872 129.094C167.217 126.967 165.72 127.991 164.145 132.324C163.357 134.373 162.254 136.658 161.624 137.288C160.757 138.234 160.442 138.155 159.339 136.658C158.708 135.712 157.605 134.924 156.975 134.924C155.714 134.924 154.296 137.997 154.296 140.834C154.296 141.779 153.745 143.67 153.114 144.852C152.484 146.112 151.933 148.082 151.933 149.264C151.933 151.234 152.09 151.312 154.139 150.603C156.424 149.815 166.351 140.597 171.078 135.003C172.654 133.034 174.23 131.773 174.545 132.088C175.569 133.112 172.181 138.076 165.957 144.773C160.599 150.524 159.811 151.627 160.52 152.967C160.993 153.834 161.387 155.409 161.387 156.512C161.387 158.009 161.781 158.561 162.884 158.561C165.011 158.561 168.714 157.064 169.424 155.961C170.133 154.7 168.636 153.046 166.745 153.046C163.83 153.046 165.799 151.155 170.92 149.185C174.781 147.609 176.042 146.743 176.199 145.324C176.357 144.143 176.042 143.591 175.254 143.591C173.048 143.591 173.914 142.252 177.933 139.337C182.108 136.343 183.054 133.821 180.217 133.112C178.878 132.718 178.72 132.324 179.193 130.827C181.636 123.737 178.169 121.688 173.127 127.203Z" fill="white"/>
<path d="M40.4476 129.567C37.69 135.476 37.7688 142.488 40.6052 148.318C42.4173 152.021 42.7325 152.336 43.0476 150.761C43.2052 149.736 42.9688 146.112 42.4961 142.724C41.7082 136.658 41.9446 133.742 43.2052 134.53C43.8355 134.924 44.8597 140.518 46.3567 151.706C47.3809 159.9 49.2719 163.446 52.5022 163.682C53.9203 163.839 55.0234 163.839 55.0234 163.682C55.0234 163.603 54.2355 161.791 53.3688 159.664C52.4234 157.615 51.0052 152.021 50.2173 147.373C49.4294 142.646 47.8537 136.5 46.7506 133.742C45.6476 130.985 44.7809 127.991 44.7809 127.124C44.7809 124.052 42.4173 125.391 40.4476 129.567Z" fill="white"/>
<path d="M13.5016 140.833C14.9198 150.682 22.7985 158.009 34.3804 160.136C37.0592 160.609 40.841 161.476 42.8107 162.027C44.7804 162.658 46.3561 163.052 46.3561 162.894C46.3561 162.815 45.8046 161.476 45.1743 159.979C44.0713 157.221 43.9137 157.142 36.744 155.882C28.944 154.464 22.7985 151.627 20.1985 148.397C17.9137 145.403 19.5682 145.561 24.1379 148.633C28.0773 151.233 35.4046 153.439 38.3198 152.888C40.3682 152.494 35.5622 149.106 26.2652 144.536C21.9319 142.409 17.6773 139.888 16.8895 138.942C14.2895 136.027 12.9501 136.736 13.5016 140.833Z" fill="white"/>
<path d="M143.344 142.567C140.981 145.403 140.823 145.482 139.72 144.064C137.987 141.779 136.411 143.04 135.072 147.846C133.417 153.518 131.841 154.385 130.423 150.367C129.872 148.712 127.193 151.549 124.357 156.749C121.757 161.633 121.52 162.343 122.702 163.052C123.726 163.682 124.593 163.13 127.035 160.373C129.793 157.221 130.423 156.906 132.944 157.143C135.229 157.458 136.017 157.064 137.987 154.858C139.247 153.44 140.744 152.258 141.296 152.258C141.847 152.258 142.714 151.155 143.266 149.894C144.763 146.27 145.944 145.955 145.393 149.343C145.078 151.391 145.314 152.415 146.338 153.361C148.466 155.33 149.332 153.518 149.254 147.452C149.175 142.646 148.072 139.652 146.417 139.652C146.023 139.652 144.684 140.991 143.344 142.567Z" fill="white"/>
<path d="M53.4473 147.215C53.4473 148.87 57.7806 161.712 59.12 163.839C60.3806 165.967 64.8715 169.591 66.2109 169.591C66.4473 169.591 64.8715 166.124 62.823 161.949C60.6958 157.773 59.12 154.149 59.3564 153.991C60.223 153.124 62.823 156.512 66.2897 163.13C70.3079 170.852 71.4897 172.112 75.7442 173.924C81.1806 176.209 81.4958 175.342 77.0048 170.852C74.6412 168.488 71.1745 163.839 69.2836 160.452C65.423 153.597 62.7442 150.288 59.7503 148.791C57.3079 147.53 53.4473 146.585 53.4473 147.215Z" fill="white"/>
<path d="M151.696 154.936C146.102 158.718 145.708 158.876 144.842 156.591C144.448 155.488 143.739 154.621 143.187 154.621C142.242 154.621 138.854 158.009 136.727 161.239C134.993 163.761 133.969 163.839 133.654 161.555C133.26 158.561 131.527 159.112 127.508 163.446C123.805 167.385 123.49 167.542 122.466 166.203C121.048 164.391 118.448 165.021 117.187 167.385C116.714 168.252 115.06 170.379 113.484 172.112L110.727 175.185L113.011 174.712C126.011 171.797 134.442 169.039 142.321 165.179C147.205 162.736 151.381 160.924 151.617 161.161C152.405 161.949 145.314 167.149 139.878 169.827C134.284 172.506 122.387 176.603 119.787 176.761C119.078 176.761 119.708 177.233 121.205 177.785C123.175 178.494 126.878 178.652 134.363 178.336C145.708 177.785 147.757 177.076 145.314 174.397C143.975 172.9 143.975 172.821 146.339 171.639C147.599 170.93 149.333 170.379 150.121 170.379C152.878 170.379 157.527 168.646 157.999 167.542C158.236 166.833 157.763 165.888 156.739 165.179L155.084 163.997L156.739 160.846C160.048 154.385 157.29 151.155 151.696 154.936Z" fill="white"/>
<path d="M72.0418 159.506C81.4963 172.664 83.6236 174.634 86.7751 172.979C87.0903 172.743 85.6721 170.615 83.5448 168.173C81.4175 165.731 78.3448 161.791 76.7691 159.506C74.3266 156.118 73.3812 155.409 71.4115 155.409H69.0479L72.0418 159.506Z" fill="white"/>
<path d="M116.005 157.143C115.139 158.167 112.933 160.925 111.121 163.288C109.387 165.731 106.945 168.488 105.842 169.591C103.478 171.797 103.321 173.215 105.369 173.767C106.393 174.003 107.654 173.294 109.23 171.64C111.593 169.04 117.66 161.24 120.024 157.537C121.363 155.409 121.363 155.409 119.472 155.409C118.369 155.409 116.872 156.197 116.005 157.143Z" fill="white"/>
<path d="M79.4473 158.246C79.4473 158.955 86.8533 168.094 88.823 169.906C90.1624 171.088 90.6351 171.167 91.6594 170.379C92.6836 169.512 92.2897 168.724 88.7442 164.549C86.5382 161.949 84.0958 159.27 83.4654 158.718C82.2836 157.773 79.4473 157.379 79.4473 158.246Z" fill="white"/>
<path d="M103.006 163.446C98.1996 168.567 97.7269 169.276 98.9087 170.221C99.6966 170.773 100.484 171.088 100.8 171.009C101.351 170.773 110.333 160.294 111.278 158.64C111.672 158.088 111.2 157.773 110.097 157.773C108.915 157.773 106.551 159.743 103.006 163.446Z" fill="white"/>
<path d="M33.7507 163.918C33.7507 166.124 38.0053 171.639 41.3931 173.846C45.175 176.288 49.5083 177.233 59.3568 177.785C64.7931 178.1 68.3386 177.864 70.781 177.155L74.3265 176.13L69.9931 174.791C67.5507 174.003 61.1689 173.136 55.4174 172.821C49.8234 172.506 44.3871 171.797 43.4416 171.324C41.3143 170.142 40.9204 168.33 43.0477 169.276C44.7022 169.985 55.3386 170.615 58.5689 170.221L60.9325 169.906L57.9386 168.567C56.284 167.779 52.1083 166.833 48.5628 166.361C45.0962 165.967 40.4477 164.864 38.1628 164.076C33.278 162.185 33.7507 162.185 33.7507 163.918Z" fill="white"/>
<path d="M93.9443 172.034C93.7079 172.506 91.6594 173.688 89.4534 174.634L85.5928 176.367L88.6655 178.888C94.0231 183.064 95.4413 183.458 98.514 181.409C99.9322 180.385 101.902 178.888 102.926 178.021L104.659 176.367L99.7746 173.767C94.1019 170.773 94.6534 170.931 93.9443 172.034Z" fill="white"/>
<path d="M105.92 178.967C104.502 180.543 104.502 180.622 106.314 181.331C107.338 181.725 110.332 182.434 112.932 182.985C120.732 184.561 125.696 186.767 128.138 189.761L130.345 192.44L131.448 190.47C132.393 188.658 132.314 188.264 130.66 186.531C127.981 183.694 121.757 180.858 115.296 179.518C112.302 178.888 109.229 178.179 108.52 177.864C107.811 177.628 106.708 178.1 105.92 178.967Z" fill="white"/>
<path d="M73.5383 180.149C66.4474 182.118 61.6414 184.403 59.4353 186.846C58.1747 188.264 58.0959 188.815 58.8838 190.549L59.7505 192.518L61.799 190.076C64.4777 186.924 68.6535 184.876 75.2717 183.3C84.4111 181.252 85.9868 180.621 84.8838 179.361C83.6232 177.864 81.0232 178.021 73.5383 180.149Z" fill="white"/>
<path d="M83.3083 184.167C81.7325 184.718 78.3446 185.585 75.8234 186.137C69.9143 187.318 64.3204 190.312 62.6659 193.228C61.4053 195.276 61.4053 195.512 62.9022 197.246C64.0053 198.664 64.3992 198.821 64.478 197.876C64.478 196.537 67.8659 193.149 70.3871 191.809C71.3325 191.337 75.0356 190.234 78.6598 189.367C82.3628 188.421 86.8537 187.082 88.7446 186.373C91.7386 185.27 91.8962 185.034 90.7143 184.088C88.981 182.749 86.9325 182.828 83.3083 184.167Z" fill="white"/>
<path d="M99.6169 184.009C98.2775 184.955 98.3563 185.112 100.326 185.979C101.429 186.53 105.999 187.791 110.332 188.894C119.393 191.179 122.465 192.676 124.829 196.143C126.326 198.427 126.484 198.506 127.35 197.088C128.768 194.882 128.532 193.7 126.168 191.494C123.017 188.579 120.023 187.24 113.326 185.9C110.096 185.191 106.393 184.324 105.211 183.852C102.296 182.749 101.35 182.749 99.6169 184.009Z" fill="white"/>
<path d="M8.06611 215.367C2.47217 216.943 -1.54601 224.743 -0.521767 231.755C0.738839 240.028 4.83581 243.967 12.2419 243.967C16.7328 243.967 20.5146 241.997 21.0661 239.319C21.3025 238.058 20.9085 238.216 18.8601 239.949C14.054 243.967 8.1449 243.416 5.70247 238.767C3.65399 234.828 3.73278 223.64 5.86005 220.016C8.7752 214.894 16.5752 214.973 19.254 220.094C20.751 223.088 21.1449 222.931 21.1449 219.306C21.1449 216.234 21.1449 216.234 17.2055 215.367C12.557 214.343 11.454 214.343 8.06611 215.367Z" fill="white"/>
<path d="M29.4167 226.555C27.9198 228.052 26.5016 230.179 26.1864 231.282C25.3986 234.591 26.5804 239.003 28.944 241.367C35.0895 247.512 45.5683 242.864 45.5683 233.961C45.5683 227.815 41.6289 223.955 35.247 223.955C32.647 223.955 31.544 224.427 29.4167 226.555ZM38.8713 226.712C40.6046 228.367 40.841 229.312 40.841 234.197C40.841 240.343 39.344 242.864 35.7986 242.864C31.8592 242.864 30.2046 239.239 30.7561 232.07C31.0713 228.682 31.544 227.264 32.9622 226.161C35.3258 224.27 36.5864 224.349 38.8713 226.712Z" fill="white"/>
<path d="M51.8718 224.743C50.0597 225.136 49.7445 225.373 50.9263 225.452C52.5809 225.53 52.6597 225.767 52.6597 234.591V243.652H54.6294C56.5991 243.652 56.5991 243.573 56.5991 237.349C56.5991 230.021 57.9384 226.633 61.0112 225.846C64.1627 225.058 64.8718 226.476 65.2657 235.221C65.6597 242.785 65.7384 243.258 67.4718 243.494C69.1263 243.73 69.2051 243.573 69.2051 236.718C69.2051 230.809 69.4415 229.391 70.8597 227.579C72.593 225.373 74.6415 224.979 76.1384 226.476C76.69 227.027 77.0839 229.943 77.0839 234.039C77.0839 240.815 77.8718 243.652 79.8415 243.652C80.7869 243.652 81.0233 242.076 81.0233 235.143C81.0233 227.815 80.7869 226.397 79.6051 225.294C77.6354 223.561 72.9869 223.639 70.7809 225.373C68.9687 226.791 68.89 226.791 67.4718 225.373C65.4233 223.324 60.696 223.482 58.4112 225.688L56.5991 227.343V225.688C56.5991 223.876 56.2839 223.797 51.8718 224.743Z" fill="white"/>
<path d="M88.9021 224.743C87.0899 225.136 86.7748 225.373 87.9566 225.452C89.6111 225.53 89.6899 225.846 89.6899 232.149C89.6899 235.852 90.0051 239.712 90.399 240.736C91.8172 244.439 97.4899 245.227 100.878 242.233C102.138 241.209 102.296 241.209 102.769 242.391C103.005 243.1 103.951 243.652 104.738 243.652C106.157 243.652 106.235 242.943 106.235 234.197V224.743H104.266C102.296 224.743 102.296 224.821 102.296 231.676C102.296 239.712 101.193 242.076 97.5687 242.076C94.3384 242.076 93.6293 240.264 93.6293 231.518C93.6293 225.924 93.393 223.955 92.6839 224.033C92.1324 224.112 90.399 224.427 88.9021 224.743Z" fill="white"/>
<path d="M114.114 224.743C112.302 225.136 111.987 225.373 113.169 225.452C114.823 225.53 114.902 225.767 114.902 234.591V243.652H116.872C118.841 243.652 118.841 243.573 118.841 237.112C118.841 229.785 119.865 227.106 122.938 226.003C126.562 224.743 127.508 226.318 127.508 233.961C127.508 240.815 128.296 243.652 130.265 243.652C131.211 243.652 131.447 242.076 131.447 235.064C131.447 227.027 131.29 226.318 129.714 225.215C127.193 223.403 122.623 223.639 120.575 225.53L118.841 227.185V225.53C118.841 223.876 118.526 223.797 114.114 224.743Z" fill="white"/>
<path d="M141.848 226.161C135.939 231.676 138.46 242.549 145.945 243.967C149.49 244.676 154.611 242.943 155.005 240.894C155.242 239.397 155.242 239.397 153.666 240.737C152.799 241.525 150.908 242.313 149.333 242.628C145.708 243.179 143.266 240.894 143.266 236.955V234.197H149.569C155.793 234.197 155.872 234.197 155.872 232.149C155.872 224.9 147.205 221.197 141.848 226.161ZM149.805 226.161C150.514 226.949 151.381 228.761 151.618 230.1L152.169 232.622H147.599H143.03L143.502 229.706C144.29 225.137 147.363 223.403 149.805 226.161Z" fill="white"/>
<path d="M176.987 224.506C177.538 224.743 177.932 226.239 177.932 228.13C177.932 230.652 177.696 231.124 176.987 230.415C174.623 228.052 169.108 230.73 168.163 234.67C167.454 237.349 168.951 241.839 170.842 242.864C172.811 243.967 175.805 243.888 176.987 242.706C177.696 241.997 178.169 241.997 178.878 242.706C179.429 243.258 180.138 243.652 180.454 243.652C180.769 243.652 181.084 239.239 181.084 233.803V223.955L178.563 224.033C177.145 224.033 176.435 224.27 176.987 224.506ZM176.987 231.991C178.563 233.567 178.169 239.476 176.357 241.288C173.678 243.967 170.842 241.209 170.842 236.088C170.842 231.833 174.387 229.391 176.987 231.991Z" fill="white"/>
<path d="M185.259 231.203C186.205 231.991 186.599 233.724 186.756 237.664C186.914 241.209 187.308 243.258 188.017 243.494C188.726 243.73 188.962 242.076 188.962 237.033V230.258H186.441C184.235 230.258 184.077 230.415 185.259 231.203Z" fill="white"/>
<path d="M75.3498 256.021C71.2529 256.336 70.071 257.833 73.9316 257.833H76.2953V277.924V298.015H78.265C79.368 298.015 80.5498 297.385 81.0226 296.518C81.4953 295.573 81.8104 287.3 81.8104 275.245C81.8104 256.888 81.7316 255.47 80.471 255.627C79.6832 255.706 77.3983 255.864 75.3498 256.021Z" fill="white"/>
<path d="M-0.916016 257.046C-0.916016 257.439 0.187015 257.833 1.44762 257.833H3.81126V277.924C3.81126 295.179 3.96883 298.015 4.99308 298.015C5.93853 298.015 6.17489 295.336 6.33247 280.367L6.56883 262.639L13.3446 278.949C17.2052 288.246 20.5931 295.336 21.2234 295.494C22.0113 295.652 24.3749 290.846 28.9446 279.736C32.5688 270.912 35.8779 263.427 36.1931 262.955C36.587 262.561 36.9022 269.652 36.9022 279.264C36.9022 297.464 36.9022 297.385 41.0779 298.409L43.2052 298.961V278.397V257.833H45.5688C46.9082 257.833 47.9325 257.439 47.9325 257.046C47.9325 256.573 45.49 256.258 42.1022 256.258H36.3507L30.2052 271.227C26.8173 279.421 23.9022 286.197 23.587 286.197C23.3507 286.197 21.9325 283.282 20.5143 279.658C19.0173 276.112 16.2597 269.415 14.29 264.688L10.7446 256.258H4.91429C1.52641 256.258 -0.916016 256.573 -0.916016 257.046Z" fill="white"/>
<path d="M97.1742 270.676C94.8106 272.015 94.0227 272.961 94.0227 274.379C94.0227 277.688 96.859 277.294 99.7742 273.591C101.744 271.228 102.926 270.44 104.659 270.44C108.047 270.44 109.386 272.252 109.386 277.058V281.234L104.817 281.706C99.6954 282.1 94.3378 284.464 92.5257 287.143C87.4045 294.47 99.2227 302.349 107.18 296.912C109.859 295.179 109.938 295.1 110.883 296.518C111.356 297.385 112.617 298.015 113.641 298.015H115.453L115.138 286.355C114.98 279.973 114.665 273.985 114.429 273.04C113.562 268.785 103.083 267.367 97.1742 270.676ZM109.386 286.985C109.386 289.191 108.914 291.949 108.283 293.209C104.974 299.512 96.6227 296.755 97.8833 289.743C98.6712 285.882 102.374 283.203 107.259 283.125C109.308 283.046 109.386 283.203 109.386 286.985Z" fill="white"/>
<path d="M136.569 271.306L133.811 273.749V271.7C133.811 269.731 133.653 269.652 129.084 269.652C126.484 269.652 124.356 269.967 124.356 270.44C124.356 270.834 125.223 271.228 126.326 271.228H128.296V284.621V298.015H131.053H133.811V289.9C133.89 279.579 134.678 276.112 137.75 273.355C140.429 270.991 142.95 270.676 145.314 272.331C146.653 273.355 146.89 274.773 147.205 284.937C147.441 291.24 147.993 296.676 148.387 297.07C148.859 297.543 149.963 298.094 150.987 298.409L152.72 298.882V286.197V273.434L150.435 271.149C148.387 269.179 147.52 268.864 143.738 268.864C139.956 268.864 139.011 269.179 136.569 271.306Z" fill="white"/>
<path d="M169.265 270.518C163.041 274.064 160.52 282.415 163.277 289.742C167.611 300.93 183.368 301.639 188.805 290.924C192.429 283.676 190.223 274.536 183.92 270.833C179.586 268.312 173.283 268.155 169.265 270.518ZM180.217 271.227C185.023 273.748 185.574 291.161 181.005 295.336C179.035 297.148 173.598 297.07 171.629 295.258C167.138 291.161 167.532 275.088 172.259 271.542C173.835 270.282 178.247 270.124 180.217 271.227Z" fill="white"/>
<path d="M52.6602 270.439C52.6602 270.833 53.5268 271.227 54.6299 271.227H56.5996V282.888C56.5996 295.652 57.3086 298.015 61.0117 298.015H62.9026V283.833V269.652H57.7814C54.8662 269.652 52.6602 269.967 52.6602 270.439Z" fill="white"/>
</g>
<defs>
<clipPath id="clip0_332_117">
<rect width="189.682" height="299" fill="white" transform="translate(0.65918)"/>
</clipPath>
</defs>
</svg>
