<svg width="847" height="128" viewBox="0 0 847 128" fill="none" xmlns="http://www.w3.org/2000/svg">
<g clip-path="url(#clip0_332_77)">
<path d="M13.2571 93.2561H50.2856V80.9137H13.2571V63.0849H53.0285V51.1997H0V126.629H53.9427V114.285H13.2571V93.2561Z" fill="white"/>
<path d="M115.198 56.685C108.798 51.1998 100.113 50.7427 90.5135 50.7427H65.3696V126.171H78.6272V97.3713H90.0559C99.1984 97.3713 108.341 96.9138 114.741 91.4288C119.313 87.3138 122.056 80.9138 122.056 73.6001C122.056 66.285 119.77 60.8001 115.198 56.685ZM103.313 83.6576C101.027 84.5713 98.2847 85.0288 92.7984 85.0288H79.0847V62.6288H92.7984C98.2847 62.6288 101.027 63.085 103.313 64.0001C106.513 65.8288 108.798 69.0288 108.798 73.6001C108.798 78.6288 106.97 82.285 103.313 83.6576Z" fill="white"/>
<path d="M131.656 126.629H144.914V93.7137H178.285V81.8287H144.914V63.0849H180.57V51.1997H131.656V126.629Z" fill="white"/>
<path d="M204.799 51.1997H191.085V126.629H245.027V114.285H204.799V51.1997Z" fill="white"/>
<path d="M348.343 93.2576H385.371V80.9137H348.343V63.085H388.115V50.7426H340.571V42.9713C340.571 40.2284 338.286 38.3999 336 38.3999H302.629V5.02853C302.629 2.28566 300.344 0.457031 298.058 0.457031H276.571C273.829 0.457031 272 2.74278 272 5.02853V38.3999H238.629C235.886 38.3999 234.058 40.6855 234.058 42.9713V64C234.058 66.7425 236.344 68.5713 238.629 68.5713H272V101.943C272 104.685 274.286 106.514 276.571 106.514H298.058C300.8 106.514 302.629 104.229 302.629 101.943V68.5713H335.086V126.171H388.571V114.285H348.343V93.2576Z" fill="white"/>
<path d="M432.001 61.7151C441.601 61.7151 448.457 66.7425 450.286 76.8001L464.457 74.5138C461.257 59.4288 449.372 49.3716 432.457 49.3716C411.886 49.3716 397.257 64.0001 397.257 88.2288C397.257 112.914 410.972 128 432.001 128C452.115 128 462.172 115.2 464.457 101.943L450.744 100.114C448.915 110.171 442.057 115.658 432.457 115.658C419.201 115.658 410.972 105.6 410.972 88.2288C410.972 71.3138 419.201 61.7151 432.001 61.7151Z" fill="white"/>
<path d="M494.627 51.1997L465.37 126.629H479.083L485.941 108.342H516.57L523.427 126.629H538.055L508.798 51.1997H494.627ZM490.055 96.9137L498.283 74.0562C499.655 70.4 501.483 65.3712 501.483 65.3712C501.483 65.3712 503.312 71.3137 504.227 74.0562L512.455 96.9137H490.055Z" fill="white"/>
<path d="M558.626 51.1997H545.37V126.629H598.855V114.285H558.626V51.1997Z" fill="white"/>
<path d="M836.569 47.5427C841.14 42.0571 843.884 36.5714 843.884 28.8C843.884 18.7429 838.397 8.22849 828.797 3.2C821.941 -1.94793e-06 816.912 0 806.397 0H772.569C765.712 0 762.512 5.02862 762.512 10.0571V78.1712L734.169 8.68575C732.341 3.65712 730.512 0 724.112 0H708.57C702.17 0 700.341 3.65712 698.512 8.68575L671.997 76.8C671.997 71.7712 669.712 66.7425 660.112 66.7425H635.884V11.8858C635.884 5.94288 632.226 0.457125 624.455 0.457125H611.655C603.884 0.457125 600.226 5.94288 600.226 11.8858V89.6C600.226 95.5425 603.884 101.029 611.655 101.029H661.484C667.884 101.029 669.712 97.8288 670.17 96C670.626 97.8288 671.997 101.029 678.855 101.029H691.655C697.141 101.029 699.884 100.114 702.626 94.1712L708.112 82.2849H725.026L730.512 94.1712C733.255 100.114 735.997 101.029 741.484 101.029H756.112C762.512 101.029 764.341 97.8288 764.797 96C765.255 97.8288 766.626 101.029 773.484 101.029H807.769C817.826 101.029 824.684 99.2 831.54 96C841.14 91.4288 847.084 80.4575 847.084 69.4849C845.712 59.8849 842.969 53.4856 836.569 47.5427Z" fill="white"/>
</g>
<defs>
<clipPath id="clip0_332_77">
<rect width="846.979" height="128" fill="white"/>
</clipPath>
</defs>
</svg>
