<svg width="847" height="94" viewBox="0 0 847 94" fill="none" xmlns="http://www.w3.org/2000/svg">
<path fill-rule="evenodd" clip-rule="evenodd" d="M185.621 3.59413C182.746 3.59413 180.29 4.61259 178.254 6.64951C176.217 8.6855 175.199 11.1412 175.199 14.0167C175.199 16.8922 176.217 19.348 178.254 21.3839C180.29 23.4209 182.746 24.4393 185.621 24.4393C188.497 24.4393 190.953 23.4209 192.989 21.3839C195.025 19.348 196.044 16.8922 196.044 14.0167C196.044 11.1412 195.025 8.6855 192.989 6.64951C190.953 4.61259 188.497 3.59413 185.621 3.59413ZM205.569 90.5681H223.539V0H205.569V90.5681ZM278.827 61.4572C278.827 57.0657 277.57 53.5109 275.054 50.7947C272.538 48.0804 269.004 46.7218 264.451 46.7218C259.899 46.7218 256.365 48.0804 253.849 50.7947C251.333 53.5109 250.076 57.0657 250.076 61.4572C250.076 65.8505 251.333 69.4053 253.849 72.1187C256.365 74.8349 259.899 76.1925 264.451 76.1925C269.004 76.1925 272.538 74.8349 275.054 72.1187C277.57 69.4053 278.827 65.8505 278.827 61.4572ZM294.281 48.8777C295.958 52.633 296.797 56.8258 296.797 61.4572C296.797 66.0894 295.958 70.2832 294.281 74.0357C292.604 77.791 290.307 81.0047 287.393 83.6797C284.477 86.3565 281.044 88.4112 277.09 89.8495C273.137 91.2867 268.923 92.0054 264.451 92.0054C259.977 92.0054 255.766 91.2867 251.813 89.8495C247.859 88.4112 244.424 86.3565 241.51 83.6797C238.594 81.0047 236.299 77.791 234.622 74.0357C232.945 70.2832 232.106 66.0894 232.106 61.4572C232.106 56.8258 232.945 52.633 234.622 48.8777C236.299 45.1252 238.594 41.9115 241.51 39.2347C244.424 36.5597 247.859 34.5021 251.813 33.0649C255.766 31.6266 259.977 30.908 264.451 30.908C268.923 30.908 273.137 31.6266 277.09 33.0649C281.044 34.5021 284.477 36.5597 287.393 39.2347C290.307 41.9115 292.604 45.1252 294.281 48.8777ZM341.014 30.908C337.02 30.908 333.706 31.8065 331.07 33.6036C328.435 35.4007 326.159 38.0963 324.242 41.6904H324.003V32.3462H306.033V90.5681H324.003V66.2487C324.003 63.3741 324.162 60.7385 324.482 58.3418C324.8 55.946 325.5 53.8913 326.578 52.173C327.656 50.4565 329.193 49.1176 331.19 48.1591C333.186 47.2006 335.902 46.7218 339.337 46.7218C340.694 46.7218 341.991 46.823 343.23 47.0216C344.468 47.2212 345.725 47.521 347.004 47.9201V31.5077C346.124 31.2678 345.166 31.1085 344.128 31.0279C343.09 30.9492 342.051 30.908 341.014 30.908ZM176.636 90.5681H194.606V32.3462H176.636V90.5681ZM18.6883 56.066H55.4673V38.8149H18.6883V23.0011H57.6232V5.75098H0V90.5681H59.78V73.317H18.6883V56.066ZM106.839 58.8215C104.563 57.5445 102.125 56.6047 99.5309 56.006C96.9347 55.4073 94.4995 54.8498 92.2237 54.3289C89.9478 53.8107 88.0702 53.2111 86.5926 52.5318C85.1141 51.8544 84.3768 50.7947 84.3768 49.3574C84.3768 47.6016 85.0954 46.362 86.5336 45.6434C87.9709 44.9247 89.4475 44.5649 90.9654 44.5649C95.2781 44.5649 98.7523 46.2037 101.388 49.4774L112.409 38.575C109.694 35.7005 106.378 33.7048 102.466 32.5851C98.5528 31.4683 94.6794 30.908 90.8454 30.908C87.8097 30.908 84.8152 31.2884 81.861 32.0464C78.905 32.8063 76.29 33.984 74.0141 35.5806C71.7383 37.179 69.9 39.2159 68.503 41.6904C67.1051 44.1667 66.407 47.1219 66.407 50.5548C66.407 54.2295 67.1444 57.165 68.6229 59.3603C70.1005 61.5583 71.9772 63.2542 74.254 64.4516C76.5298 65.65 78.9649 66.5485 81.5612 67.1472C84.1556 67.7469 86.5926 68.3062 88.8694 68.8244C91.1453 69.3453 93.021 69.9834 94.4995 70.7414C95.9771 71.5012 96.7163 72.6396 96.7163 74.1556C96.7163 75.754 95.8778 76.8512 94.2006 77.4499C92.5235 78.0495 90.6459 78.3484 88.5696 78.3484C85.8534 78.3484 83.4782 77.8097 81.4413 76.7313C79.4053 75.6528 77.5483 74.0769 75.8711 71.9997L64.9698 84.0994C67.8443 87.0545 71.3579 89.1121 75.5114 90.2683C79.663 91.4254 83.778 92.0054 87.8509 92.0054C90.9654 92.0054 94.1201 91.7065 97.3151 91.1068C100.508 90.5081 103.384 89.4709 105.941 87.9924C108.496 86.5158 110.593 84.5595 112.23 82.1225C113.866 79.6873 114.686 76.5926 114.686 72.8382C114.686 69.1654 113.947 66.23 112.469 64.0328C110.991 61.8366 109.115 60.0995 106.839 58.8215ZM160.091 58.8215C157.815 57.5445 155.378 56.6047 152.783 56.006C150.187 55.4073 147.752 54.8498 145.476 54.3289C143.199 53.8107 141.323 53.2111 139.845 52.5318C138.366 51.8544 137.629 50.7947 137.629 49.3574C137.629 47.6016 138.348 46.362 139.785 45.6434C141.223 44.9247 142.7 44.5649 144.218 44.5649C148.53 44.5649 152.005 46.2037 154.64 49.4774L165.662 38.575C162.945 35.7005 159.63 33.7048 155.719 32.5851C151.804 31.4683 147.932 30.908 144.098 30.908C141.062 30.908 138.067 31.2884 135.113 32.0464C132.157 32.8063 129.542 33.984 127.266 35.5806C124.99 37.179 123.152 39.2159 121.755 41.6904C120.357 44.1667 119.659 47.1219 119.659 50.5548C119.659 54.2295 120.397 57.165 121.875 59.3603C123.352 61.5583 125.23 63.2542 127.506 64.4516C129.782 65.65 132.217 66.5485 134.814 67.1472C137.408 67.7469 139.845 68.3062 142.122 68.8244C144.398 69.3453 146.273 69.9834 147.752 70.7414C149.228 71.5012 149.968 72.6396 149.968 74.1556C149.968 75.754 149.129 76.8512 147.452 77.4499C145.775 78.0495 143.897 78.3484 141.822 78.3484C139.106 78.3484 136.731 77.8097 134.694 76.7313C132.658 75.6528 130.801 74.0769 129.123 71.9997L118.221 84.0994C121.097 87.0545 124.61 89.1121 128.764 90.2683C132.915 91.4254 137.03 92.0054 141.103 92.0054C144.218 92.0054 147.371 91.7065 150.567 91.1068C153.76 90.5081 156.636 89.4709 159.193 87.9924C161.748 86.5158 163.844 84.5595 165.482 82.1225C167.119 79.6873 167.938 76.5926 167.938 72.8382C167.938 69.1654 167.198 66.23 165.722 64.0328C164.243 61.8366 162.367 60.0995 160.091 58.8215ZM590.685 61.4572C590.685 57.0657 589.427 53.5109 586.911 50.7947C584.395 48.0804 580.861 46.7218 576.309 46.7218C571.757 46.7218 568.223 48.0804 565.707 50.7947C563.191 53.5109 561.933 57.0657 561.933 61.4572C561.933 65.8496 563.191 69.4043 565.707 72.1187C568.223 74.8349 571.757 76.1925 576.309 76.1925C580.861 76.1925 584.395 74.8349 586.911 72.1187C589.427 69.4043 590.685 65.8496 590.685 61.4572ZM606.139 48.8777C607.816 52.633 608.655 56.8258 608.655 61.4572C608.655 66.0894 607.816 70.2823 606.139 74.0357C604.462 77.791 602.164 81.0047 599.251 83.6797C596.334 86.3565 592.901 88.4112 588.948 89.8495C584.994 91.2867 580.781 92.0054 576.309 92.0054C571.836 92.0054 567.624 91.2867 563.67 89.8495C559.717 88.4112 556.282 86.3565 553.367 83.6797C550.451 81.0047 548.156 77.791 546.479 74.0357C544.802 70.2823 543.963 66.0894 543.963 61.4572C543.963 56.8258 544.802 52.633 546.479 48.8777C548.156 45.1252 550.451 41.9106 553.367 39.2337C556.282 36.5597 559.717 34.5021 563.67 33.0649C567.624 31.6266 571.836 30.908 576.309 30.908C580.781 30.908 584.994 31.6266 588.948 33.0649C592.901 34.5021 596.334 36.5597 599.251 39.2337C602.164 41.9106 604.462 45.1252 606.139 48.8777ZM682.983 15.0952H665.012V32.3462H656.083H653.513H640.269V15.0952H622.3V32.3462H610.799V48.086H622.3V74.3955C622.3 77.5904 622.839 80.3067 623.917 82.5422C624.995 84.7787 626.492 86.5964 628.409 87.9924C630.325 89.3913 632.56 90.4098 635.117 91.0478C637.673 91.6859 640.468 92.0063 643.504 92.0063C645.579 92.0063 647.697 91.8864 649.853 91.6465C652.01 91.4067 654.085 90.9279 656.083 90.2092V75.234C655.284 75.9527 654.105 76.4136 652.548 76.6123C650.991 76.8118 649.732 76.9112 648.776 76.9112C646.858 76.9112 645.32 76.6535 644.163 76.1326C643.003 75.6144 642.144 74.8752 641.587 73.9167C641.027 72.9582 640.668 71.8198 640.509 70.5024C640.348 69.1842 640.269 67.7281 640.269 66.1297V48.086H653.513H656.083H665.012V74.3955C665.012 77.5904 665.553 80.3067 666.63 82.5422C667.709 84.7787 669.206 86.5964 671.122 87.9924C673.039 89.3913 675.274 90.4098 677.83 91.0478C680.386 91.6859 683.181 92.0063 686.218 92.0063C688.293 92.0063 690.411 91.8864 692.567 91.6465C694.724 91.4067 696.799 90.9279 698.796 90.2092V75.234C697.997 75.9527 696.819 76.4136 695.261 76.6123C693.705 76.8118 692.446 76.9112 691.488 76.9112C689.572 76.9112 688.033 76.6535 686.877 76.1326C685.717 75.6144 684.858 74.8752 684.301 73.9167C683.741 72.9582 683.382 71.8198 683.223 70.5024C683.061 69.1842 682.983 67.7281 682.983 66.1297V48.086H698.796V32.3462H682.983V15.0952ZM766.735 46.7218C768.572 46.7218 770.288 47.1406 771.887 47.9792C773.483 48.8177 774.721 49.8774 775.601 51.1545L787.461 38.695C784.664 35.8204 781.37 33.8041 777.578 32.6451C773.783 31.4889 770.168 30.908 766.735 30.908C762.262 30.908 758.05 31.6266 754.097 33.0649C750.143 34.5021 746.708 36.5597 743.794 39.2347C740.878 41.9115 738.583 45.1252 736.906 48.8777C735.229 52.633 734.39 56.8258 734.39 61.4572C734.39 66.0894 735.229 70.2832 736.906 74.0357C738.583 77.791 740.878 81.0047 743.794 83.6797C746.708 86.3565 750.143 88.4112 754.097 89.8495C758.05 91.2867 762.262 92.0054 766.735 92.0054C770.168 92.0054 773.783 91.4254 777.578 90.2683C781.37 89.1121 784.664 87.0939 787.461 84.2184L775.601 71.7598C774.562 72.9572 773.324 73.9963 771.887 74.8742C770.45 75.754 768.731 76.1925 766.735 76.1925C762.183 76.1925 758.65 74.8349 756.133 72.1187C753.617 69.4053 752.36 65.8505 752.36 61.4572C752.36 57.0657 753.617 53.5109 756.133 50.7947C758.65 48.0804 762.183 46.7218 766.735 46.7218ZM717.078 3.59413C714.203 3.59413 711.747 4.61259 709.71 6.64951C707.673 8.6855 706.656 11.1412 706.656 14.0167C706.656 16.8922 707.673 19.348 709.71 21.3839C711.747 23.4209 714.203 24.4393 717.078 24.4393C719.953 24.4393 722.409 23.4209 724.445 21.3839C726.482 19.348 727.5 16.8922 727.5 14.0167C727.5 11.1412 726.482 8.6855 724.445 6.64951C722.409 4.61259 719.953 3.59413 717.078 3.59413ZM708.093 90.5681H726.063V32.3462H708.093V90.5681ZM544.284 32.3462H524.277L514.333 48.1591L504.031 32.3462H482.827L502.233 59.4202L479.232 90.5681H500.198L513.854 71.1611L526.553 90.5681H547.757L525.355 59.4202L544.284 32.3462ZM830.468 65.0513H826.036C824.676 65.0513 822.98 65.1113 820.944 65.2302C818.908 65.3502 816.949 65.6912 815.074 66.2487C813.196 66.809 811.599 67.6476 810.282 68.7644C808.964 69.8841 808.305 71.4413 808.305 73.437C808.305 75.5929 809.222 77.1922 811.061 78.2285C812.897 79.2676 814.814 79.7867 816.811 79.7867C818.566 79.7867 820.264 79.5468 821.902 79.0671C823.538 78.5883 824.997 77.9109 826.275 77.0311C827.552 76.1532 828.57 75.0354 829.33 73.6768C830.088 72.3192 830.468 70.7226 830.468 68.8843V65.0513ZM847 60.9774V90.5681H830.468V83.2608H830.229C828.231 86.3753 825.575 88.6117 822.262 89.9694C818.947 91.3261 815.452 92.0054 811.779 92.0054C809.063 92.0054 806.448 91.6259 803.932 90.8679C801.417 90.1099 799.201 88.9715 797.284 87.4537C795.367 85.9368 793.849 84.0601 792.731 81.8226C791.612 79.588 791.054 76.9917 791.054 74.0357C791.054 70.6814 791.671 67.8471 792.911 65.5301C794.149 63.2149 795.826 61.2979 797.942 59.78C800.058 58.264 802.474 57.0844 805.191 56.2459C807.905 55.4073 810.72 54.7898 813.636 54.3888C816.551 53.9906 819.465 53.7508 822.382 53.6702C825.296 53.5915 827.991 53.5503 830.468 53.5503C830.468 50.3571 829.33 47.8208 827.053 45.9432C824.777 44.0674 822.082 43.1277 818.967 43.1277C816.011 43.1277 813.316 43.747 810.881 44.9847C808.444 46.2243 806.269 47.9201 804.352 50.0761L794.768 40.2522C798.122 37.1378 802.034 34.802 806.508 33.2447C810.98 31.6866 815.613 30.908 820.405 30.908C825.676 30.908 830.008 31.5676 833.403 32.885C836.797 34.2023 839.513 36.1399 841.549 38.695C843.586 41.2519 845.002 44.386 845.802 48.0991C846.6 51.8132 847 56.1072 847 60.9774ZM373.681 5.75098H354.992V90.5681H408.303V73.317H373.681V5.75098ZM454.424 32.3462H472.394V90.5681H455.143V82.6612H454.903C454.263 83.7809 453.445 84.8986 452.447 86.0155C451.447 87.1351 450.231 88.133 448.793 89.0109C447.356 89.8907 445.718 90.6074 443.881 91.1668C442.043 91.7252 440.048 92.0054 437.892 92.0054C433.339 92.0054 429.644 91.3055 426.81 89.9094C423.974 88.5124 421.779 86.5758 420.222 84.0994C418.663 81.624 417.625 78.7082 417.106 75.354C416.586 71.9997 416.328 68.3662 416.328 64.4516V32.3462H434.297V60.8584C434.297 62.5356 434.357 64.2727 434.477 66.0688C434.597 67.8659 434.957 69.5243 435.556 71.0412C436.154 72.559 437.072 73.7958 438.311 74.7543C439.548 75.7128 441.324 76.1925 443.642 76.1925C445.958 76.1925 447.835 75.7728 449.273 74.9342C450.71 74.0956 451.807 72.9779 452.567 71.5799C453.325 70.1839 453.825 68.6061 454.064 66.8483C454.304 65.0925 454.424 63.2542 454.424 61.3372V32.3462Z" fill="white"/>
</svg>
