<svg width="299" height="299" viewBox="0 0 299 299" fill="none" xmlns="http://www.w3.org/2000/svg">
<g clip-path="url(#clip0_332_87)">
<path d="M154.215 0.447656L154.82 0.947842L153.767 10.1618C152.425 21.5344 152.53 20.9816 151.898 21.1922C150.924 21.5081 151.372 21.7714 153.162 21.9293C154.136 22.0346 155.531 22.1663 156.242 22.2716C157.4 22.4032 157.506 22.3769 157.111 22.0346C156.848 21.824 156.637 21.3238 156.637 20.9026C156.611 19.4547 158.058 7.63454 158.243 7.63454C158.611 7.63454 169.8 22.2452 169.8 22.6928C169.8 22.9297 169.589 23.2456 169.352 23.4036C168.957 23.6142 168.931 23.6668 169.273 23.7721C169.773 23.9301 174.565 24.4829 175.433 24.4829H176.118L175.591 23.9564C175.17 23.5352 175.091 23.193 175.196 22.5611C175.275 22.0873 175.802 17.6909 176.381 12.768C177.355 4.39649 177.46 3.791 178.013 3.3698C178.356 3.10654 178.513 2.89593 178.356 2.89593C178.224 2.89593 176.855 2.71166 175.328 2.50105C173.828 2.31677 172.538 2.18514 172.485 2.2378C172.432 2.29045 172.643 2.58003 172.932 2.86961C173.301 3.23817 173.459 3.63305 173.354 4.02793C173.301 4.34384 172.932 7.26598 172.564 10.5304C172.169 13.7947 171.827 16.4799 171.8 16.5326C171.695 16.6116 161.349 3.29082 160.823 2.42207C160.507 1.86924 160.507 1.76393 160.954 1.4217C161.244 1.23742 161.428 1.00049 161.349 0.947842C161.297 0.895191 160.059 0.710912 158.611 0.552958C157.163 0.368679 155.452 0.1844 154.794 0.105423L153.609 -0.0262046L154.215 0.447656Z" fill="white"/>
<path d="M128.574 1.44782C124.52 2.18493 121.177 4.60689 119.492 8.08186C118.649 9.7667 118.597 10.03 118.597 12.6362C118.597 15.1898 118.649 15.532 119.413 17.1379C121.466 21.4553 125.283 23.7456 130.443 23.7193C136.103 23.6929 140.473 21.271 142.553 17.0326C145.264 11.5042 142.948 4.97544 137.34 2.36921C134.55 1.05293 132.128 0.789676 128.574 1.44782ZM134.339 5.15972C135.919 5.68623 137.762 7.31842 138.499 8.89796C139.368 10.6354 139.394 14.1104 138.551 15.6636C137.34 17.9276 135.182 19.2966 132.049 19.7967C129.39 20.1916 127.179 19.6388 125.441 18.1119C123.704 16.585 123.125 15.3214 122.993 12.7152C122.888 10.7407 122.94 10.3985 123.572 9.08223C123.967 8.29247 124.783 7.23944 125.389 6.71293C127.442 4.94912 131.628 4.23833 134.339 5.15972Z" fill="white"/>
<path d="M103.855 7.31885C102.012 7.92433 101.169 8.29289 101.564 8.37187C101.88 8.42452 102.249 8.66145 102.38 8.89838C102.775 9.68815 108.198 27.3 108.198 27.8265C108.198 28.0897 108.067 28.4583 107.882 28.6426C107.409 29.1164 107.698 29.0638 111.041 28.0108C113.937 27.1157 114.069 27.0367 113.437 26.7208C112.858 26.4049 112.437 25.2202 109.804 16.8487C106.961 7.74006 106.856 7.31885 107.303 6.81866C107.724 6.3448 107.724 6.31847 107.251 6.3448C106.987 6.3448 105.46 6.79233 103.855 7.31885Z" fill="white"/>
<path d="M191.519 6.84485C191.967 7.34504 191.888 7.6083 188.887 15.5849C184.859 26.2995 184.859 26.3258 184.253 26.3258C182.937 26.3258 184.28 26.9576 190.677 29.3532C202.944 33.9339 202.944 33.9339 203.129 34.671C203.234 35.0132 203.339 35.2502 203.418 35.1975C203.708 34.8816 205.524 29.7481 205.34 29.7481C205.208 29.7481 205.024 29.8534 204.945 30.0114C204.866 30.143 204.524 30.2746 204.208 30.2746C203.655 30.2483 190.703 25.4834 190.413 25.1675C190.177 24.9305 192.23 19.7444 192.546 19.7444C192.704 19.7444 194.784 20.4815 197.179 21.4029C200.917 22.8245 201.523 23.1404 201.681 23.6932L201.839 24.3514L202.155 23.5616C203.076 21.3503 203.761 19.3758 203.655 19.2969C203.603 19.2179 203.313 19.3232 203.023 19.5075C202.576 19.797 201.865 19.5864 198.074 18.1649C195.626 17.2698 193.599 16.48 193.546 16.4537C193.388 16.3221 195.231 11.8467 195.442 11.8467C195.784 11.8467 207.604 16.2694 208.578 16.7696C208.999 16.9802 209.289 17.3488 209.289 17.6383C209.289 17.9279 209.368 18.1649 209.5 18.1649C209.71 18.1649 211.711 12.8734 211.527 12.6891C211.474 12.6365 211.237 12.7681 211 12.9787C210.5 13.5052 211 13.6632 200.365 9.63537C195.547 7.8189 191.466 6.31834 191.309 6.31834C191.177 6.31834 191.256 6.55527 191.519 6.84485Z" fill="white"/>
<path d="M83.0312 15.7164C75.3705 19.56 74.2648 20.0338 73.7646 19.7706C73.4487 19.6126 73.1855 19.56 73.2118 19.6653C73.2118 19.7706 73.7909 21.0079 74.5017 22.3768C75.5021 24.2986 75.7917 24.7198 75.7917 24.1669C75.818 23.4825 76.1866 23.2456 81.3464 20.6656C85.8744 18.4016 86.8748 17.9804 86.8748 18.3753C86.8748 18.6386 85.927 23.2982 84.7687 28.7213C82.6363 38.725 82.4784 39.6201 82.8996 39.857C83.0312 39.936 87.138 38.0405 92.0346 35.6449C100.038 31.7224 101.038 31.3012 101.696 31.5381C102.091 31.6961 102.407 31.7487 102.407 31.6961C102.407 31.4065 99.8796 26.5889 99.7216 26.5889C99.6427 26.5889 99.511 26.8522 99.4584 27.1681C99.4057 27.6683 98.3527 28.3001 93.851 30.5904C90.7183 32.1699 88.2963 33.2493 88.27 33.0913C88.2174 32.907 89.1914 28.0895 90.3761 22.3768C91.587 16.6642 92.5348 11.8203 92.4558 11.636C92.4031 11.478 92.2188 11.3201 92.0346 11.3464C91.8766 11.3464 87.8225 13.3208 83.0312 15.7164Z" fill="white"/>
<path d="M63.8662 25.9045C63.9979 26.4574 63.1555 27.1945 55.9686 32.9335C49.5188 38.067 48.0446 39.3832 48.5448 39.4359C49.3608 39.5412 49.6768 39.8834 56.0739 47.9127C60.7335 53.7833 61.6022 54.9943 61.5233 55.5998C61.4706 56.021 61.4969 56.3369 61.5759 56.3369C61.6549 56.3369 65.2878 53.4938 69.6315 50.0188C76.5288 44.4641 77.6082 43.7006 78.2663 43.8059C78.6612 43.8849 78.9771 43.8849 78.9771 43.8323C78.9771 43.7533 78.1874 42.6739 77.2133 41.4366L75.4232 39.1463L75.2915 39.9887C75.1862 40.6995 74.3438 41.463 69.3946 45.4118C66.2092 47.9654 63.5503 49.9398 63.445 49.8345C62.0498 48.176 60.0227 45.5434 60.0227 45.3591C60.049 45.1485 65.8143 40.4889 67.0516 39.6991C67.5518 39.3832 67.8941 39.3306 68.2363 39.5149C68.4995 39.6465 68.7102 39.6728 68.7102 39.5412C68.7102 39.2516 65.5774 35.2764 65.3668 35.2764C65.2878 35.2764 65.2878 35.5134 65.3668 35.803C65.4458 36.0925 65.3142 36.5401 65.0772 36.8297C64.0768 37.9353 57.864 42.7003 57.6534 42.4897C57.0742 41.8842 54.7576 38.8831 54.7576 38.7251C54.7839 38.5408 64.6823 30.6431 65.7354 29.9587C66.2355 29.6428 66.5778 29.5901 66.92 29.7744C67.2096 29.9324 67.3939 29.9324 67.3939 29.7744C67.3939 29.5111 64.0242 25.2727 63.8136 25.2727C63.7609 25.2727 63.7609 25.5623 63.8662 25.9045Z" fill="white"/>
<path d="M232.403 31.8277C230.376 32.4859 229.296 33.1967 227.743 34.8815C225.795 37.0402 225.005 38.8304 224.874 41.4892C224.637 46.0962 226.874 50.2293 231.113 52.9935C233.403 54.4941 235.114 55.2049 238.063 55.8367C239.484 56.1526 240.616 56.5475 240.8 56.7844C240.985 57.0213 241.195 57.1793 241.248 57.1003C241.406 56.916 241.985 51.8352 241.854 51.6772C241.775 51.6246 241.59 51.8089 241.406 52.0984C241.064 52.7566 240.327 52.8092 238.168 52.2301C231.376 50.4663 227.506 44.5957 229.928 39.6728C231.876 35.6976 236.141 34.276 240.3 36.2504C243.407 37.7247 246.987 42.4633 246.539 44.5167C246.382 45.1748 246.434 45.3328 246.697 45.2275C246.908 45.1485 248.066 44.7536 249.304 44.3587C250.541 43.9638 251.594 43.569 251.673 43.5163C251.752 43.4373 251.568 43.2004 251.252 42.9635C250.962 42.7002 249.962 41.3839 249.04 40.015C246.329 35.9609 243.38 33.4336 239.853 32.091C237.747 31.3012 234.377 31.1696 232.403 31.8277Z" fill="white"/>
<path d="M145.054 41.1207C138.947 43.253 134.076 50.3873 132.049 60.1541C130.47 67.8411 130.312 78.3187 131.654 88.691L132.155 92.7451L130.522 96.3254C124.81 108.83 115.438 126.1 107.224 139.315C104.013 144.501 96.1412 156.321 93.9562 159.27L92.4819 161.244L89.6124 162.403C85.5846 164.008 78.6084 167.51 74.7911 169.826C65.4719 175.46 58.1534 182.752 55.7314 188.807C53.2831 194.915 53.915 199.996 57.5742 203.628C59.417 205.498 61.7337 206.709 64.8138 207.498C67.8149 208.262 73.6591 208.077 77.529 207.103C86.2164 204.918 95.5357 200.048 105.75 192.387L109.199 189.781L115.227 189.281C127.311 188.254 131.997 188.096 148.74 188.096C165.483 188.096 170.169 188.254 182.278 189.281C185.99 189.597 188.491 189.913 188.755 190.123C189.018 190.308 190.703 191.571 192.493 192.94C201.786 199.943 211.921 205.129 220.345 207.209C222.478 207.735 223.531 207.814 227.453 207.841C231.929 207.841 232.113 207.814 234.298 207.024C238.405 205.577 241.221 203.102 242.485 199.864C242.985 198.627 243.091 197.863 243.091 195.468C243.064 193.019 242.959 192.256 242.353 190.466C240.879 186.175 238.615 182.831 234.245 178.593C227.874 172.406 219.898 167.483 208.499 162.692L204.945 161.192L203.418 159.112C201.022 155.821 193.072 143.817 189.755 138.473C181.989 125.968 173.301 109.936 167.352 97.0888L165.325 92.7188L165.825 88.6647C167.852 72.9483 166.588 59.6275 162.297 50.9401C160.56 47.4651 158.717 45.0958 156.242 43.2267C153.768 41.3576 152.083 40.7521 149.135 40.6205C147.16 40.5415 146.476 40.6205 145.054 41.1207ZM150.767 145.265C151.82 147.107 152.978 149.108 153.347 149.714L154.031 150.846H148.74H143.422L143.975 149.977C144.291 149.529 145.449 147.502 146.581 145.528C147.687 143.527 148.661 141.921 148.74 141.921C148.819 141.921 149.714 143.422 150.767 145.265ZM156.269 154.795C168.563 155.505 180.383 157.506 191.703 160.744C205.366 164.64 218.029 170.511 226.532 176.855C228.796 178.54 232.718 182.094 232.718 182.436C232.718 182.568 230.033 184.885 226.742 187.596L220.793 192.519L219.845 192.256C219.319 192.098 217.739 191.545 216.291 191.019C208.446 188.123 193.941 186.017 173.486 184.806C159.902 184.016 136.92 183.99 124.389 184.779C122.23 184.937 119.097 185.122 117.465 185.227L114.49 185.411L120.65 179.251C128.258 171.617 134.603 164.061 139.552 156.716L140.842 154.821L142.606 154.716C146.634 154.505 151.846 154.558 156.269 154.795ZM87.2431 168.405C81.5305 176.013 72.8431 185.516 67.5253 190.018C66.288 191.071 66.2617 191.124 66.9988 190.966C69.605 190.413 74.2646 187.596 78.661 183.911C80.1352 182.673 81.3462 181.752 81.3462 181.857C81.3462 181.963 82.057 186.175 82.8994 191.255C84.7159 201.838 84.8738 200.654 81.5042 201.944C77.1868 203.602 74.5016 204.129 70.1578 204.155C66.9461 204.155 65.9458 204.05 64.7611 203.655C59.1801 201.733 57.1793 198.548 58.285 193.23C59.7592 186.148 66.6039 178.909 78.2398 172.09C81.1093 170.379 87.717 167.115 87.875 167.299C87.9539 167.352 87.6644 167.852 87.2431 168.405Z" fill="white"/>
<path d="M39.5407 46.8333C39.7513 47.2019 39.7776 47.4388 39.567 47.7021C39.4354 47.8864 36.6712 51.3087 33.4332 55.2839C30.1951 59.259 27.5099 62.576 27.4836 62.6287C27.4309 62.6813 27.036 62.7866 26.5622 62.8919L25.7461 63.0499L27.6679 64.6558C30.2214 66.7355 30.3267 66.8145 30.1425 65.9984C30.0108 65.4719 30.3794 64.84 32.3012 62.4444C33.5648 60.8386 34.7231 59.5223 34.8284 59.4959C35.0653 59.4959 47.3857 69.526 47.9122 70.1578C48.0965 70.3684 48.1755 70.7896 48.0965 71.0792C48.0175 71.3688 48.0439 71.6057 48.1492 71.6057C48.3598 71.6057 52.3876 66.7355 52.3876 66.4986C52.3876 66.4196 52.0717 66.4196 51.6768 66.4986C51.0187 66.6039 50.1236 65.972 44.4899 61.3651C40.9623 58.4956 38.0138 55.9946 37.9612 55.863C37.8559 55.5471 42.3312 50.0187 42.7261 49.9924C42.9104 49.9661 43.2526 49.9661 43.5159 49.9924C43.7528 50.0187 43.9634 49.9924 43.9634 49.9398C43.9634 49.8608 43.0157 49.0184 41.8573 48.0706C39.7513 46.3068 38.9352 45.8856 39.5407 46.8333Z" fill="white"/>
<path d="M259.255 50.4927C259.176 51.1772 258.149 52.1775 252.12 57.3637C243.801 64.5242 244.117 64.2873 243.459 63.9451C243.17 63.7871 242.985 63.7871 242.985 63.9451C242.985 64.2347 246.829 68.789 247.171 68.9206C247.303 68.9469 247.329 68.71 247.276 68.3678C247.171 67.8149 248.119 66.8935 254.753 61.2335C261.677 55.284 262.414 54.7311 263.098 54.8628C263.967 55.047 264.177 55.3629 261.413 52.1249C260.492 51.0455 259.649 50.0452 259.544 49.9135C259.439 49.7819 259.307 50.0452 259.255 50.4927Z" fill="white"/>
<path d="M268.784 61.8388C268.784 62.4706 267.416 64.7083 262.993 71.3686C259.781 76.1336 256.991 80.1351 256.754 80.214C256.543 80.293 256.122 80.2404 255.859 80.0561C255.49 79.8455 255.358 79.8455 255.358 80.0561C255.358 80.5563 259.123 86.5848 259.36 86.4532C259.465 86.3742 259.492 86.1636 259.413 85.9793C259.228 85.4792 259.992 84.821 260.966 84.6367C262.993 84.2945 279.157 82.3991 280.131 82.3991C280.71 82.3991 281.421 82.5307 281.737 82.6886C282.026 82.8466 282.289 82.9256 282.342 82.8729C282.395 82.8203 281.605 81.3724 280.552 79.6349C278.972 77.0286 278.63 76.6338 278.578 77.1866C278.525 77.5815 278.341 78.0027 278.183 78.1343C277.893 78.3976 262.756 80.3983 262.572 80.214C262.44 80.1087 271.048 67.2092 271.391 66.9986C271.549 66.9196 271.917 66.9723 272.233 67.1302C272.523 67.3145 272.812 67.3935 272.891 67.3408C273.023 67.1829 269.364 61.2333 269.048 61.128C268.89 61.0753 268.784 61.3912 268.784 61.8388Z" fill="white"/>
<path d="M24.2193 75.0542C20.3231 75.8177 16.7692 79.0821 14.8211 83.7154C14.163 85.2422 14.1103 85.7424 14.084 88.5856C14.084 91.613 14.1103 91.8236 14.9264 93.5085C16.0058 95.7988 17.8222 97.6153 20.1652 98.7473C21.8764 99.5897 22.1396 99.6423 24.7722 99.6423C27.4311 99.6423 27.6153 99.616 29.5371 98.6683C33.3806 96.7465 36.4081 92.5344 37.1452 87.9801C38.1192 82.0568 34.6179 76.6864 28.8263 75.1595C27.1151 74.7383 26.0358 74.712 24.2193 75.0542ZM28.8263 79.8718C31.3272 81.0038 32.5909 82.5307 33.17 85.1633C33.9335 88.5593 31.4589 93.3505 28.1682 94.8774C25.5883 96.0621 21.8764 95.2986 19.7177 93.1399C17.0588 90.5074 16.9535 86.3479 19.4281 82.6623C21.6921 79.319 25.246 78.266 28.8263 79.8718Z" fill="white"/>
<path d="M285.106 90.7708C285.106 91.0867 284.843 91.5079 284.527 91.6922C284.185 91.9028 279.973 93.6403 275.155 95.5884C267.415 98.6948 266.336 99.0634 265.862 98.7475C265.546 98.5632 265.283 98.4579 265.23 98.5105C265.178 98.5632 265.704 99.9848 266.389 101.696C267.521 104.513 267.994 105.197 267.994 103.96C267.994 103.723 268.152 103.46 268.337 103.381C274.549 100.775 286.37 96.0886 286.712 96.0886C286.975 96.0886 287.265 96.1939 287.344 96.3518C287.423 96.4835 287.607 96.6151 287.712 96.6151C287.923 96.6151 285.633 90.7445 285.29 90.3759C285.185 90.2969 285.106 90.4549 285.106 90.7708Z" fill="white"/>
<path d="M8.92394 105.566C7.68664 106.224 6.39668 107.724 5.63324 109.383C5.13305 110.462 1.5791 124.704 1.5791 125.599C1.5791 125.731 1.84236 125.678 2.18459 125.468C2.7111 125.099 3.57985 125.257 12.1093 127.284C17.2428 128.495 21.6655 129.548 21.9288 129.653C22.1657 129.759 22.3763 130.075 22.3763 130.338C22.3763 131.654 22.8502 130.549 23.5083 127.732C24.3507 124.072 24.3507 124.046 23.7189 124.625C23.2187 125.073 23.0344 125.046 19.4278 124.257C17.3481 123.783 15.5843 123.335 15.479 123.23C15.3737 123.125 15.5843 121.756 15.9792 120.124L16.6637 117.201L20.8231 115.596C23.1134 114.701 25.1931 113.99 25.4301 113.99C25.667 113.99 25.9039 114.227 25.9829 114.516C26.0619 114.806 26.1935 115.043 26.2988 115.043C26.5358 115.043 28.2469 107.645 28.0363 107.461C27.9573 107.382 27.5098 107.698 27.0096 108.172C26.4568 108.698 24.8509 109.541 22.4816 110.541C17.4271 112.647 17.6377 112.594 17.6377 111.673C17.6377 110.488 16.8479 108.145 16.1371 107.171C14.6892 105.276 11.03 104.46 8.92394 105.566ZM13.2413 110.067C14.3207 110.883 14.5576 112.2 14.0838 114.806C13.5836 117.57 12.5042 122.124 12.2936 122.335C12.0304 122.572 6.52831 121.282 6.42301 120.966C6.23873 120.545 8.08152 113.068 8.73966 111.568C9.02924 110.857 9.52943 110.12 9.84533 109.909C10.6351 109.33 12.4252 109.409 13.2413 110.067Z" fill="white"/>
<path d="M291.425 107.803C291.425 108.04 291.135 108.33 290.793 108.435C290.003 108.751 272.207 112.674 271.628 112.674C271.391 112.674 271.075 112.463 270.917 112.226C270.785 111.963 270.601 111.805 270.549 111.884C270.443 111.989 273.523 126.336 274.708 131.286C274.787 131.628 274.655 132.023 274.418 132.286C274.181 132.523 274.05 132.76 274.102 132.839C274.313 133.023 279.578 131.812 279.578 131.575C279.578 131.47 279.394 131.365 279.183 131.365C278.946 131.365 278.657 131.101 278.525 130.759C278.209 130.022 275.287 116.886 275.419 116.754C275.603 116.57 291.03 113.2 291.688 113.2C292.057 113.2 292.504 113.332 292.688 113.516C292.846 113.674 293.057 113.779 293.11 113.7C293.294 113.516 291.872 107.408 291.635 107.408C291.53 107.408 291.425 107.593 291.425 107.803Z" fill="white"/>
<path d="M4.34402 137.814C2.94876 138.288 1.26392 140.184 0.658436 141.921C0.210901 143.185 0.15825 144.343 0.0529473 151.688C0.000296148 156.927 0.0529473 160.06 0.210901 160.06C0.342529 160.06 0.526808 159.823 0.605785 159.533C0.737412 159.007 0.974343 159.007 11.0044 159.007H21.245L21.5346 159.586C21.7452 160.06 21.8242 159.375 21.8242 156.637C21.8242 153.32 21.7979 153.136 21.403 153.662C21.0081 154.242 20.8502 154.268 16.9803 154.268H12.9525L12.8472 148.661C12.7156 142.132 12.4786 141.184 10.5569 139.262C8.81937 137.525 6.60802 137.025 4.34402 137.814ZM7.60839 142.263C8.00327 142.474 8.47713 142.974 8.66141 143.395C9.13527 144.422 9.50383 148.608 9.42485 151.635L9.34588 154.136L6.34476 154.215L3.36997 154.294L3.5016 149.608C3.58058 147.028 3.76485 144.475 3.92281 143.948C4.47565 142.184 6.02885 141.447 7.60839 142.263Z" fill="white"/>
<path d="M275.629 149.055C275.629 154.663 275.55 159.401 275.471 159.638C275.392 159.875 275.155 160.06 274.945 160.06C274.734 160.06 274.576 160.165 274.576 160.323C274.576 160.481 275.734 160.586 277.551 160.56C280.315 160.56 280.473 160.533 279.92 160.138C279.315 159.744 279.315 159.717 279.315 152.109V144.501L282.29 144.58L285.238 144.659L285.317 149.134C285.396 153.978 285.317 154.794 284.712 154.794C284.501 154.794 284.317 154.9 284.317 155.058C284.317 155.216 285.37 155.321 286.949 155.321C288.397 155.321 289.582 155.242 289.582 155.163C289.582 155.058 289.371 154.821 289.134 154.636C288.713 154.347 288.66 153.768 288.66 149.477V144.659H291.161H293.662L293.741 151.951C293.794 159.164 293.794 159.243 293.215 159.77L292.636 160.323L295.663 160.296C298.48 160.296 298.638 160.27 298.085 159.875L297.479 159.48L297.453 149.161C297.453 139.736 297.427 138.92 297.032 139.447L296.637 140.052H286.66C276.761 140.052 276.709 140.052 276.156 139.473L275.629 138.894V149.055Z" fill="white"/>
<path d="M15.8479 190.624C11.6621 192.703 12.6888 198.969 17.3221 199.706C19.5335 200.048 22.0081 198.442 22.6136 196.205C22.9558 194.967 22.9558 194.915 22.6136 193.677C21.7975 190.729 18.5857 189.281 15.8479 190.624ZM19.4018 193.651C19.9283 194.178 20.0336 194.467 19.902 195.152C19.5861 196.784 18.0592 197.389 16.7429 196.363C15.7952 195.625 15.7952 194.257 16.7429 193.519C17.6907 192.782 18.5857 192.835 19.4018 193.651Z" fill="white"/>
<path d="M277.604 190.571C275.971 191.308 274.576 193.309 274.576 194.941C274.576 196.678 276.103 198.758 277.867 199.443C281.842 200.943 285.633 196.757 283.816 192.835C283.237 191.571 282.658 191.018 281.342 190.466C280.078 189.939 278.894 189.965 277.604 190.571ZM280.815 193.546C282.605 195.23 280.157 197.968 278.235 196.415C277.788 196.073 277.63 195.652 277.63 194.941C277.63 193.177 279.525 192.335 280.815 193.546Z" fill="white"/>
<path d="M254.253 219.503C254.332 220.135 253.463 221.346 248.224 227.98C244.881 232.244 242.011 235.904 241.853 236.062C241.669 236.325 241.774 236.377 242.353 236.272C243.038 236.141 243.959 236.799 250.62 242.064C254.753 245.328 258.307 248.224 258.57 248.514C258.807 248.829 258.939 249.277 258.833 249.619C258.754 249.988 258.807 250.119 258.991 249.988C259.149 249.909 262.071 246.276 265.52 241.932C268.942 237.562 271.943 233.929 272.154 233.798C272.365 233.666 272.76 233.64 273.023 233.692C273.312 233.771 273.523 233.771 273.523 233.692C273.523 233.613 272.444 232.718 271.127 231.665C268.837 229.875 268.732 229.822 268.916 230.56C269.048 231.27 268.653 231.876 264.414 237.22C261.861 240.458 259.728 243.143 259.702 243.169C259.676 243.222 258.57 242.406 257.254 241.379L254.832 239.484L256.201 237.746C259.018 234.192 260.755 232.06 261.018 231.849C261.15 231.744 261.492 231.718 261.755 231.771C262.572 231.981 262.229 231.507 260.571 230.191C257.886 228.059 257.965 228.111 258.149 228.954C258.254 229.585 257.886 230.191 255.358 233.376C253.752 235.403 252.331 237.088 252.226 237.141C251.962 237.22 248.25 234.35 248.25 234.087C248.277 233.982 250.304 231.349 252.805 228.243C256.517 223.583 257.464 222.557 258.122 222.451C258.886 222.32 258.86 222.293 256.675 220.556C255.437 219.555 254.358 218.766 254.279 218.766C254.2 218.766 254.174 219.108 254.253 219.503Z" fill="white"/>
<path d="M42.2788 220.187C42.4104 220.74 41.6206 221.451 34.5917 227.19C27.826 232.665 26.6414 233.534 26.0096 233.455C25.6147 233.376 25.2725 233.402 25.2725 233.481C25.2725 233.718 28.958 238.246 29.116 238.246C29.2213 238.246 29.2213 238.009 29.1423 237.72C29.0633 237.457 29.1423 237.035 29.3266 236.825C29.7478 236.272 40.0674 227.953 40.1727 228.058C40.357 228.216 38.172 247.039 37.9614 247.223C37.8561 247.329 37.5139 247.46 37.1716 247.513C36.6188 247.592 36.7767 247.829 38.7248 250.225C41.0152 253.041 41.4627 253.436 41.1994 252.383C41.0415 251.804 41.6996 251.199 48.8602 245.354C55.6259 239.879 56.8105 239.01 57.4423 239.089C57.8372 239.168 58.1794 239.141 58.1794 239.089C58.1794 239.01 57.3107 237.904 56.284 236.588C54.3622 234.245 54.3622 234.245 54.2306 235.061C54.1253 235.745 53.2829 236.535 48.9655 240.063C46.1486 242.353 43.8057 244.091 43.753 243.906C43.6477 243.512 45.4905 226.768 45.7011 226.058C45.7801 225.794 46.096 225.61 46.5172 225.61C46.8594 225.61 47.1227 225.505 47.07 225.4C46.9121 224.952 42.5157 219.582 42.3051 219.582C42.1998 219.555 42.1735 219.845 42.2788 220.187Z" fill="white"/>
<path d="M69.3424 249.356L69.3687 250.383L59.9178 255.306C53.2048 258.781 50.2037 260.202 49.5719 260.202C49.098 260.202 48.7031 260.281 48.7031 260.386C48.7031 260.623 53.626 264.309 53.9682 264.309C54.1262 264.309 54.1262 264.125 53.9419 263.809C53.4417 263.019 53.784 262.598 55.9427 261.439L57.9434 260.334L62.0765 263.414C64.3405 265.099 66.236 266.52 66.2886 266.547C66.3939 266.626 65.5778 270.153 65.2882 270.811C65.1303 271.206 64.8144 271.417 64.3668 271.417C63.9983 271.417 63.7087 271.522 63.7087 271.654C63.7087 272.022 69.7373 276.419 69.8952 276.155C69.9742 276.024 69.9215 275.866 69.7636 275.761C69.632 275.682 69.5003 275.208 69.5003 274.76C69.5003 273.76 73.1069 254.41 73.4492 253.594C73.6071 253.199 73.9494 252.989 74.5285 252.936C75.3709 252.857 75.292 252.778 72.3698 250.593L69.3161 248.303L69.3424 249.356ZM68.8422 255.148C68.7895 255.332 68.3683 257.254 67.8945 259.439C67.4469 261.597 67.0257 263.414 66.9994 263.466C66.9468 263.519 65.5252 262.519 63.8667 261.255C62.1818 259.991 60.8392 258.912 60.9182 258.859C61.1025 258.649 68.5789 254.858 68.7632 254.832C68.8685 254.832 68.9212 254.99 68.8422 255.148Z" fill="white"/>
<path d="M222.083 252.989C220.662 254.147 219.582 255.121 219.714 255.121C219.846 255.147 220.135 255.147 220.346 255.121C220.925 255.068 221.373 255.595 227.822 263.756C233.087 270.416 233.509 271.048 233.351 271.785L233.193 272.575L234.851 271.232C235.773 270.522 239.458 267.599 243.065 264.756C248.988 260.07 249.646 259.623 250.225 259.833C250.594 259.965 250.883 260.018 250.883 259.939C250.883 259.675 247.382 255.358 247.198 255.358C247.093 255.358 247.066 255.648 247.119 255.99C247.224 256.516 246.487 257.201 241.38 261.255C236.72 264.941 235.457 265.836 235.193 265.572C235.035 265.388 232.614 262.334 229.823 258.807C225.506 253.278 224.795 252.278 224.874 251.62C224.953 251.225 224.926 250.883 224.847 250.883C224.769 250.909 223.531 251.857 222.083 252.989Z" fill="white"/>
<path d="M86.137 262.15C84.926 264.888 84.8207 265.336 85.3999 264.836C85.6105 264.678 86.0317 264.572 86.3213 264.625C86.9794 264.73 97.378 269.39 97.4043 269.574C97.4043 269.653 93.0606 271.943 87.7165 274.681C82.3988 277.419 77.9761 279.788 77.8708 279.946C77.7655 280.104 77.6602 280.368 77.6602 280.526C77.6602 280.657 81.7933 282.684 86.8741 284.975C94.7455 288.529 96.1144 289.239 96.325 289.818C96.5356 290.45 96.6409 290.292 97.7729 287.897C98.4574 286.475 98.9576 285.238 98.8786 285.185C98.8259 285.133 98.5363 285.212 98.2468 285.396C97.7992 285.685 96.9831 285.396 92.0339 283.158C88.9012 281.737 86.3476 280.473 86.3476 280.368C86.3476 280.289 90.6387 277.972 95.9038 275.26C101.143 272.523 105.592 270.18 105.776 270.022C105.96 269.89 106.065 269.627 106.013 269.495C105.96 269.337 101.853 267.363 96.8515 265.099C89.9542 261.966 87.7692 260.86 87.7165 260.465C87.5059 259.386 87.2427 259.702 86.137 262.15Z" fill="white"/>
<path d="M202.733 264.125L199.469 265.678L200.285 266.046L201.127 266.389V277.393C201.127 287.081 201.075 288.476 200.706 289.002C200.469 289.345 200.337 289.66 200.39 289.713C200.443 289.766 201.891 289.108 203.628 288.265C205.445 287.396 206.55 286.712 206.208 286.712C205.05 286.659 204.787 286.028 204.865 283.579L204.944 281.315L209.604 279.078L214.264 276.866L216.028 278.393C217.633 279.815 217.765 279.999 217.633 280.815C217.554 281.289 217.528 281.684 217.554 281.684C218.028 281.684 224.583 278.261 224.294 278.156C224.083 278.104 223.583 277.972 223.188 277.893C222.556 277.761 208.156 266.626 206.287 264.809C205.576 264.151 205.524 263.993 205.84 263.361C205.997 262.966 206.103 262.624 206.076 262.598C206.024 262.571 204.523 263.256 202.733 264.125ZM208.498 272.075C210.236 273.497 211.657 274.76 211.657 274.839C211.657 274.944 210.131 275.734 208.235 276.629L204.813 278.235V273.76C204.813 271.022 204.918 269.311 205.076 269.363C205.208 269.39 206.735 270.627 208.498 272.075Z" fill="white"/>
<path d="M183.621 271.706C182.331 271.97 180.962 272.259 180.593 272.365L179.935 272.523L180.62 272.865C181.251 273.207 181.383 273.602 182.62 279.841C183.436 283.895 183.831 286.422 183.647 286.37C183.015 286.212 168.694 276.34 168.563 275.971C168.484 275.761 168.536 275.471 168.72 275.287C168.878 275.129 169.01 274.918 169.01 274.813C169.01 274.655 161.639 276.05 161.428 276.287C161.349 276.34 161.586 276.524 161.955 276.656C162.587 276.893 162.692 277.314 164.587 286.817C166.509 296.452 166.562 296.768 166.088 297.242C165.825 297.506 165.693 297.769 165.798 297.848C166.035 298.006 171.537 296.874 171.801 296.61C171.906 296.505 171.801 296.426 171.59 296.426C171.353 296.426 171.037 296.268 170.879 296.058C170.563 295.689 167.904 282.816 168.01 282.342C168.089 282.052 182.62 291.767 183.594 292.714C183.989 293.109 184.016 293.293 183.779 293.767C183.41 294.452 183.279 294.452 187.175 293.662C190.044 293.083 191.229 292.741 190.439 292.741C189.491 292.741 189.254 291.951 187.306 282.237C185.464 273.023 185.358 272.338 185.779 271.891C186.016 271.627 186.148 271.364 186.095 271.338C186.043 271.285 184.937 271.443 183.621 271.706Z" fill="white"/>
<path d="M114.253 271.707C114.253 271.812 114.385 271.996 114.516 272.075C114.674 272.154 114.78 272.549 114.78 272.917C114.78 273.655 110.489 290.845 110.041 291.898C109.91 292.214 109.515 292.583 109.199 292.714C108.646 292.925 108.672 292.978 109.646 293.215C113.358 294.215 115.122 294.583 115.28 294.426C115.359 294.32 115.28 294.189 115.122 294.136C114.938 294.057 114.78 293.688 114.806 293.32C114.806 292.925 115.885 288.344 117.228 283.132C119.466 274.365 119.703 273.655 120.255 273.576C121.414 273.391 120.782 273.102 117.544 272.312C115.727 271.864 114.253 271.575 114.253 271.707Z" fill="white"/>
<path d="M136.893 275.998C131.627 277.472 128.205 281.789 128.205 286.949C128.205 291.898 131.259 296.005 136.261 297.769C138.182 298.427 142.026 298.69 144.132 298.295C147.844 297.611 151.214 295.136 152.767 291.977C153.557 290.345 153.609 290.108 153.609 287.212C153.609 284.343 153.557 284.08 152.767 282.421C151.266 279.236 148.265 276.919 144.474 276.024C142.474 275.55 138.525 275.55 136.893 275.998ZM145.053 280.078C146.58 280.868 147.844 282.053 148.555 283.395C149.397 284.922 149.397 288.976 148.555 290.529C147.739 292.083 145.764 293.715 144.185 294.189C141.368 295.031 137.761 294.478 135.576 292.899C132.207 290.45 131.706 284.896 134.576 281.763C136.471 279.736 137.656 279.315 141.236 279.394C143.369 279.473 144.079 279.578 145.053 280.078Z" fill="white"/>
</g>
<defs>
<clipPath id="clip0_332_87">
<rect width="298.335" height="298.532" fill="white"/>
</clipPath>
</defs>
</svg>
