<svg width="222" height="129" viewBox="0 0 222 129" fill="none" xmlns="http://www.w3.org/2000/svg">
<path d="M135.662 60.4331C136.987 61.325 140.154 62.5736 142.217 60.4331M143.292 63.3227C143.936 64.7497 146 66.8759 149.094 63.9649M150.599 64.607C150.742 65.6059 151.716 67.197 154.467 65.5702M155.542 65.5702C154.933 68.1388 153.694 73.3829 153.608 73.811C153.5 74.3461 152.426 77.4498 149.739 75.4164M154.145 74.2391C154.611 75.6304 155.37 78.7341 154.682 80.0184C153.823 81.6237 153.07 82.1589 152.533 81.9448C151.996 81.7308 150.706 77.3428 149.954 76.0585M149.417 75.8445C150.061 77.7709 151.136 81.902 150.276 83.015C149.202 84.4063 148.665 84.5134 148.235 84.5134C147.805 84.5134 146.73 83.7642 146.193 82.3729C145.656 80.9816 143.936 76.7007 144.044 76.2726M143.936 75.7375C144.689 76.5223 146.58 77.6211 148.127 75.7375M137.704 74.4532C138.492 75.345 140.541 76.6365 142.432 74.6672M135.984 73.811C136.736 75.9515 138.37 80.8104 138.886 83.1221C139.53 86.0117 140.712 86.1187 141.357 86.0117C142.002 85.9047 145.226 84.4064 144.796 81.9448C144.366 79.4833 142.754 76.2726 142.754 75.6304M220.985 0.5C211.851 6.88573 193.389 19.7642 192.616 20.1923C191.648 20.7274 201.212 23.403 201.642 36.5669C209.379 32.1789 213.14 30.1455 220.985 25.8645M171.661 50.801L160.915 56.6873C159.59 59.2559 156.509 64.607 154.79 65.4632C154.897 64.393 154.959 63.124 153.5 62.8946C152.137 62.6803 151.178 63.5439 150.711 64.2296M150.711 64.2296C150.618 64.3657 150.545 64.4948 150.491 64.607C150.562 64.4863 150.635 64.3603 150.711 64.2296ZM150.711 64.2296C152.452 61.2331 155.567 55.7882 155.649 55.296M152.103 51.1221C151.208 52.0496 149.245 54.1401 148.557 55.0819C147.697 56.2592 143.614 62.1455 143.614 62.5736C144.796 62.0385 145.886 61.7591 146.838 61.9314C148.02 62.1455 149.094 63.3584 149.739 64.0719M160.055 57.0083C159.052 56.6159 156.81 55.6599 155.864 54.9749C154.682 54.1187 148.342 44.1655 147.053 44.0585C145.763 43.9515 135.232 56.7943 135.769 57.0083C136.307 57.2224 138.348 56.9013 139.745 57.6505C141.142 58.3997 142.862 60.6472 142.862 61.2893M135.662 57.2224C135.375 61.5033 135.06 70.5575 136.092 72.5267C136.765 73.811 137.274 74.8456 137.596 74.3462C137.919 73.8467 138.843 72.8692 139.96 72.9548C141.078 73.0405 142.145 74.0608 142.539 74.5602M143.291 62.8946C143.112 66.034 143.506 73.6612 143.936 75.6304C144.796 74.9883 145.011 74.7742 146.193 74.7742C147.07 74.7742 148.235 75.345 148.664 75.6304M149.417 64.0719C149.059 66.9615 148.772 73.1689 149.632 74.6672C150.491 73.704 150.427 73.8324 151.458 73.49C152.49 73.1475 152.999 73.5256 153.285 73.811M171.124 48.3395C169.404 47.8043 166.825 46.199 165.536 45.2358C164.504 44.4652 157.942 43.0596 154.79 42.4532C153.285 42.3818 150.534 41.5756 151.566 38.9214C152.372 36.8472 152.103 35.568 151.566 34.3194C150.921 32.8211 149.524 31.7508 153.07 30.8946C167.148 29.2893 179.183 25.9716 183.696 25.0084C184.843 24.4019 187.672 23.5528 189.822 25.0084C192.508 26.8278 199.493 39.5635 196.484 41.49C194.077 43.0311 190.753 46.6984 189.392 48.3395M176.389 63.7508C174.061 66.4621 170.801 71.1966 168.867 72.8478C167.112 74.3461 165.862 76.108 163.494 74.5602C160.055 72.3127 161.391 69.6371 162.957 67.8177C165.536 64.821 166.718 60.4331 169.512 58.9348C169.512 60.6472 169.512 62.2525 171.661 63.0017C173.38 63.601 175.53 63.7508 176.389 63.7508ZM176.389 63.7508C176.65 63.5811 176.963 63.322 177.294 63.0017M177.294 63.0017C178.146 62.1772 179.116 60.9469 179.613 59.791C180.58 57.5435 184.126 53.6906 185.093 52.5134C186.764 50.4799 189.284 49.8378 188.532 45.7709C186.061 39.9916 181.87 40.8478 178.216 41.811C175.293 42.5816 173.703 45.2001 173.273 46.413C172.162 50.0875 170.156 55.403 170.156 58.1856C171.661 58.1856 173.165 58.0786 174.347 58.9348C176.819 60.725 176.706 61.9314 177.294 63.0017ZM82.5767 92.112C83.0782 93.0752 83.6728 95.0659 82.0394 95.3227C79.9977 95.6438 79.8902 95.7508 77.741 92.8612M114.815 46.7341C113.095 49.2171 111.018 50.694 110.194 51.1221C109.119 51.5858 107.292 52.9629 108.582 54.7609C110.194 57.0084 110.301 55.8311 112.558 55.51C114.815 55.189 119.435 52.7274 119.435 51.1221M65.813 70.4933C71.7232 71.6706 76.0216 71.7776 78.3858 71.7776C80.1051 74.1321 82.6842 76.5936 84.7259 78.199C86.7676 79.8043 87.1975 80.0184 88.3795 82.587C89.5616 85.1555 89.669 86.0117 92.5705 89.0084C95.4719 92.005 98.3751 88.5151 97.2987 86.7609C96.1166 84.8344 94.1824 81.3027 93.6451 78.6271C93.1078 75.9515 91.7108 75.2023 90.6362 74.1321C89.5616 73.0619 85.5856 66.9615 77.741 63.0017M1.01465 92.6472C14.7695 81.9448 17.456 80.2324 27.3423 74.4532C37.2286 68.6739 44.5359 62.8946 46.9 61.0752C49.2641 59.2559 51.9506 56.4732 56.7863 56.2592C61.622 56.0451 73.8724 53.4766 76.0216 52.6204C78.1708 51.7642 81.0723 51.7642 85.2632 52.1923C89.4541 52.6204 103.316 53.2625 104.069 53.1555C104.821 53.0485 106.11 54.3328 104.713 56.5803C103.316 58.8278 99.0181 59.1488 98.4808 59.1488C97.9435 59.1488 85.693 60.005 85.0483 60.005C84.4035 60.005 83.5438 60.005 82.2543 59.6839C80.2126 60.7542 72.2606 63.3227 67.3174 63.5368C66.7801 70.3863 62.3742 72.7408 57.646 75.5234M1.01465 128.5C6.35182 122.186 17.8214 108.786 21.0022 105.704C24.9782 101.851 28.202 99.3896 30.6736 98.7475M27.4498 96.9281C36.3689 98.9615 43.6762 99.7107 50.876 95.8579C58.0758 92.005 60.225 91.6839 63.7712 91.6839C67.3174 91.6839 78.8199 91.579 80.1051 91.6839C83.5536 91.9655 85.8136 90.2529 86.1229 87.7241C86.4015 85.446 85.3707 82.4799 80.1051 82.0518C70.8636 82.0518 57.3236 82.908 50.876 78.5201M56.6789 69.4231C56.249 70.529 55.6473 73.3615 56.6789 75.8445C57.7105 78.3274 57.9684 80.3038 57.9684 80.9816M63.5563 73.1689C71.6158 76.0585 69.789 74.5602 78.1708 80.5535M76.9888 90.8278C76.1291 87.189 76.9887 85.5836 77.9559 84.1923C79.2454 83.8713 81.6096 83.5502 82.8991 84.1923C84.1886 84.8345 87.8423 88.3662 83.4364 91.2558M128.462 37.8512C131.149 36.995 137.446 35.09 141.142 34.3194C145.763 33.3562 147.01 32.1065 147.978 32.1065C149.313 32.1065 148.557 33.5287 147.59 35.8991C147.078 37.1542 148.433 39.1209 149.4 39.6917C149.973 40.1554 150.728 41.0619 148.665 41.49C146.085 42.0251 131.901 44.8077 131.471 44.7007C131.041 44.5936 132.653 44.7007 132.331 40.9548C132.073 37.9582 129.644 37.6371 128.462 37.8512ZM127.495 38.7074L115.889 45.8779C117.25 46.2703 119.93 47.7829 119.758 50.694C122.444 49.8378 127.137 48.1254 130.934 45.0217C129.787 44.8434 127.495 43.3308 127.495 38.7074Z" stroke="white" stroke-width="0.948148" stroke-linecap="round" stroke-linejoin="round"/>
</svg>
