<svg width="1873" height="745" viewBox="0 0 1873 745" fill="none" xmlns="http://www.w3.org/2000/svg">
<path fill-rule="evenodd" clip-rule="evenodd" d="M185.621 106.594C182.746 106.594 180.29 107.613 178.254 109.65C176.217 111.685 175.199 114.141 175.199 117.017C175.199 119.892 176.217 122.348 178.254 124.384C180.29 126.421 182.746 127.439 185.621 127.439C188.497 127.439 190.953 126.421 192.989 124.384C195.025 122.348 196.044 119.892 196.044 117.017C196.044 114.141 195.025 111.685 192.989 109.65C190.953 107.613 188.497 106.594 185.621 106.594ZM205.569 193.568H223.539V103H205.569V193.568ZM278.827 164.457C278.827 160.066 277.57 156.511 275.054 153.795C272.538 151.08 269.004 149.722 264.451 149.722C259.899 149.722 256.365 151.08 253.849 153.795C251.333 156.511 250.076 160.066 250.076 164.457C250.076 168.85 251.333 172.405 253.849 175.119C256.365 177.835 259.899 179.193 264.451 179.193C269.004 179.193 272.538 177.835 275.054 175.119C277.57 172.405 278.827 168.85 278.827 164.457ZM294.281 151.878C295.958 155.633 296.797 159.826 296.797 164.457C296.797 169.089 295.958 173.283 294.281 177.036C292.604 180.791 290.307 184.005 287.393 186.68C284.477 189.357 281.044 191.411 277.09 192.849C273.137 194.287 268.923 195.005 264.451 195.005C259.977 195.005 255.766 194.287 251.813 192.849C247.859 191.411 244.424 189.357 241.51 186.68C238.594 184.005 236.299 180.791 234.622 177.036C232.945 173.283 232.106 169.089 232.106 164.457C232.106 159.826 232.945 155.633 234.622 151.878C236.299 148.125 238.594 144.912 241.51 142.235C244.424 139.56 247.859 137.502 251.813 136.065C255.766 134.627 259.977 133.908 264.451 133.908C268.923 133.908 273.137 134.627 277.09 136.065C281.044 137.502 284.477 139.56 287.393 142.235C290.307 144.912 292.604 148.125 294.281 151.878ZM341.014 133.908C337.02 133.908 333.706 134.807 331.07 136.604C328.435 138.401 326.159 141.096 324.242 144.69H324.003V135.346H306.033V193.568H324.003V169.249C324.003 166.374 324.162 163.739 324.482 161.342C324.8 158.946 325.5 156.891 326.578 155.173C327.656 153.456 329.193 152.118 331.19 151.159C333.186 150.201 335.902 149.722 339.337 149.722C340.694 149.722 341.991 149.823 343.23 150.022C344.468 150.221 345.725 150.521 347.004 150.92V134.508C346.124 134.268 345.166 134.109 344.128 134.028C343.09 133.949 342.051 133.908 341.014 133.908ZM176.636 193.568H194.606V135.346H176.636V193.568ZM18.6883 159.066H55.4673V141.815H18.6883V126.001H57.6232V108.751H0V193.568H59.78V176.317H18.6883V159.066ZM106.839 161.822C104.563 160.544 102.125 159.605 99.5309 159.006C96.9347 158.407 94.4995 157.85 92.2237 157.329C89.9478 156.811 88.0702 156.211 86.5926 155.532C85.1141 154.854 84.3768 153.795 84.3768 152.357C84.3768 150.602 85.0954 149.362 86.5336 148.643C87.9709 147.925 89.4475 147.565 90.9654 147.565C95.2781 147.565 98.7523 149.204 101.388 152.477L112.409 141.575C109.694 138.7 106.378 136.705 102.466 135.585C98.5528 134.468 94.6794 133.908 90.8454 133.908C87.8097 133.908 84.8152 134.288 81.861 135.046C78.905 135.806 76.29 136.984 74.0141 138.581C71.7383 140.179 69.9 142.216 68.503 144.69C67.1051 147.167 66.407 150.122 66.407 153.555C66.407 157.23 67.1444 160.165 68.6229 162.36C70.1005 164.558 71.9772 166.254 74.254 167.452C76.5298 168.65 78.9649 169.549 81.5612 170.147C84.1556 170.747 86.5926 171.306 88.8694 171.824C91.1453 172.345 93.021 172.983 94.4995 173.741C95.9771 174.501 96.7163 175.64 96.7163 177.156C96.7163 178.754 95.8778 179.851 94.2006 180.45C92.5235 181.05 90.6459 181.348 88.5696 181.348C85.8534 181.348 83.4782 180.81 81.4413 179.731C79.4053 178.653 77.5483 177.077 75.8711 175L64.9698 187.099C67.8443 190.055 71.3579 192.112 75.5114 193.268C79.663 194.425 83.778 195.005 87.8509 195.005C90.9654 195.005 94.1201 194.706 97.3151 194.107C100.508 193.508 103.384 192.471 105.941 190.992C108.496 189.516 110.593 187.559 112.23 185.122C113.866 182.687 114.686 179.593 114.686 175.838C114.686 172.165 113.947 169.23 112.469 167.033C110.991 164.837 109.115 163.1 106.839 161.822ZM160.091 161.822C157.815 160.544 155.378 159.605 152.783 159.006C150.187 158.407 147.752 157.85 145.476 157.329C143.199 156.811 141.323 156.211 139.845 155.532C138.366 154.854 137.629 153.795 137.629 152.357C137.629 150.602 138.348 149.362 139.785 148.643C141.223 147.925 142.7 147.565 144.218 147.565C148.53 147.565 152.005 149.204 154.64 152.477L165.662 141.575C162.945 138.7 159.63 136.705 155.719 135.585C151.804 134.468 147.932 133.908 144.098 133.908C141.062 133.908 138.067 134.288 135.113 135.046C132.157 135.806 129.542 136.984 127.266 138.581C124.99 140.179 123.152 142.216 121.755 144.69C120.357 147.167 119.659 150.122 119.659 153.555C119.659 157.23 120.397 160.165 121.875 162.36C123.352 164.558 125.23 166.254 127.506 167.452C129.782 168.65 132.217 169.549 134.814 170.147C137.408 170.747 139.845 171.306 142.122 171.824C144.398 172.345 146.273 172.983 147.752 173.741C149.228 174.501 149.968 175.64 149.968 177.156C149.968 178.754 149.129 179.851 147.452 180.45C145.775 181.05 143.897 181.348 141.822 181.348C139.106 181.348 136.731 180.81 134.694 179.731C132.658 178.653 130.801 177.077 129.123 175L118.221 187.099C121.097 190.055 124.61 192.112 128.764 193.268C132.915 194.425 137.03 195.005 141.103 195.005C144.218 195.005 147.371 194.706 150.567 194.107C153.76 193.508 156.636 192.471 159.193 190.992C161.748 189.516 163.844 187.559 165.482 185.122C167.119 182.687 167.938 179.593 167.938 175.838C167.938 172.165 167.198 169.23 165.722 167.033C164.243 164.837 162.367 163.1 160.091 161.822ZM590.685 164.457C590.685 160.066 589.427 156.511 586.911 153.795C584.395 151.08 580.861 149.722 576.309 149.722C571.757 149.722 568.223 151.08 565.707 153.795C563.191 156.511 561.933 160.066 561.933 164.457C561.933 168.85 563.191 172.404 565.707 175.119C568.223 177.835 571.757 179.193 576.309 179.193C580.861 179.193 584.395 177.835 586.911 175.119C589.427 172.404 590.685 168.85 590.685 164.457ZM606.139 151.878C607.816 155.633 608.655 159.826 608.655 164.457C608.655 169.089 607.816 173.282 606.139 177.036C604.462 180.791 602.164 184.005 599.251 186.68C596.334 189.357 592.901 191.411 588.948 192.849C584.994 194.287 580.781 195.005 576.309 195.005C571.836 195.005 567.624 194.287 563.67 192.849C559.717 191.411 556.282 189.357 553.367 186.68C550.451 184.005 548.156 180.791 546.479 177.036C544.802 173.282 543.963 169.089 543.963 164.457C543.963 159.826 544.802 155.633 546.479 151.878C548.156 148.125 550.451 144.911 553.367 142.234C556.282 139.56 559.717 137.502 563.67 136.065C567.624 134.627 571.836 133.908 576.309 133.908C580.781 133.908 584.994 134.627 588.948 136.065C592.901 137.502 596.334 139.56 599.251 142.234C602.164 144.911 604.462 148.125 606.139 151.878ZM682.983 118.095H665.012V135.346H656.083H653.513H640.269V118.095H622.3V135.346H610.799V151.086H622.3V177.395C622.3 180.59 622.839 183.307 623.917 185.542C624.995 187.779 626.492 189.596 628.409 190.992C630.325 192.391 632.56 193.41 635.117 194.048C637.673 194.686 640.468 195.006 643.504 195.006C645.579 195.006 647.697 194.886 649.853 194.647C652.01 194.407 654.085 193.928 656.083 193.209V178.234C655.284 178.953 654.105 179.414 652.548 179.612C650.991 179.812 649.732 179.911 648.776 179.911C646.858 179.911 645.32 179.653 644.163 179.133C643.003 178.614 642.144 177.875 641.587 176.917C641.027 175.958 640.668 174.82 640.509 173.502C640.348 172.184 640.269 170.728 640.269 169.13V151.086H653.513H656.083H665.012V177.395C665.012 180.59 665.553 183.307 666.63 185.542C667.709 187.779 669.206 189.596 671.122 190.992C673.039 192.391 675.274 193.41 677.83 194.048C680.386 194.686 683.181 195.006 686.218 195.006C688.293 195.006 690.411 194.886 692.567 194.647C694.724 194.407 696.799 193.928 698.796 193.209V178.234C697.997 178.953 696.819 179.414 695.261 179.612C693.705 179.812 692.446 179.911 691.488 179.911C689.572 179.911 688.033 179.653 686.877 179.133C685.717 178.614 684.858 177.875 684.301 176.917C683.741 175.958 683.382 174.82 683.223 173.502C683.061 172.184 682.983 170.728 682.983 169.13V151.086H698.796V135.346H682.983V118.095ZM766.735 149.722C768.572 149.722 770.288 150.141 771.887 150.979C773.483 151.818 774.721 152.877 775.601 154.154L787.461 141.695C784.664 138.82 781.37 136.804 777.578 135.645C773.783 134.489 770.168 133.908 766.735 133.908C762.262 133.908 758.05 134.627 754.097 136.065C750.143 137.502 746.708 139.56 743.794 142.235C740.878 144.912 738.583 148.125 736.906 151.878C735.229 155.633 734.39 159.826 734.39 164.457C734.39 169.089 735.229 173.283 736.906 177.036C738.583 180.791 740.878 184.005 743.794 186.68C746.708 189.357 750.143 191.411 754.097 192.849C758.05 194.287 762.262 195.005 766.735 195.005C770.168 195.005 773.783 194.425 777.578 193.268C781.37 192.112 784.664 190.094 787.461 187.218L775.601 174.76C774.562 175.957 773.324 176.996 771.887 177.874C770.45 178.754 768.731 179.193 766.735 179.193C762.183 179.193 758.65 177.835 756.133 175.119C753.617 172.405 752.36 168.85 752.36 164.457C752.36 160.066 753.617 156.511 756.133 153.795C758.65 151.08 762.183 149.722 766.735 149.722ZM717.078 106.594C714.203 106.594 711.747 107.613 709.71 109.65C707.673 111.685 706.656 114.141 706.656 117.017C706.656 119.892 707.673 122.348 709.71 124.384C711.747 126.421 714.203 127.439 717.078 127.439C719.953 127.439 722.409 126.421 724.445 124.384C726.482 122.348 727.5 119.892 727.5 117.017C727.5 114.141 726.482 111.685 724.445 109.65C722.409 107.613 719.953 106.594 717.078 106.594ZM708.093 193.568H726.063V135.346H708.093V193.568ZM544.284 135.346H524.277L514.333 151.159L504.031 135.346H482.827L502.233 162.42L479.232 193.568H500.198L513.854 174.161L526.553 193.568H547.757L525.355 162.42L544.284 135.346ZM830.468 168.051H826.036C824.676 168.051 822.98 168.111 820.944 168.23C818.908 168.35 816.949 168.691 815.074 169.249C813.196 169.809 811.599 170.648 810.282 171.764C808.964 172.884 808.305 174.441 808.305 176.437C808.305 178.593 809.222 180.192 811.061 181.229C812.897 182.268 814.814 182.787 816.811 182.787C818.566 182.787 820.264 182.547 821.902 182.067C823.538 181.588 824.997 180.911 826.275 180.031C827.552 179.153 828.57 178.035 829.33 176.677C830.088 175.319 830.468 173.723 830.468 171.884V168.051ZM847 163.977V193.568H830.468V186.261H830.229C828.231 189.375 825.575 191.612 822.262 192.969C818.947 194.326 815.452 195.005 811.779 195.005C809.063 195.005 806.448 194.626 803.932 193.868C801.417 193.11 799.201 191.972 797.284 190.454C795.367 188.937 793.849 187.06 792.731 184.823C791.612 182.588 791.054 179.992 791.054 177.036C791.054 173.681 791.671 170.847 792.911 168.53C794.149 166.215 795.826 164.298 797.942 162.78C800.058 161.264 802.474 160.084 805.191 159.246C807.905 158.407 810.72 157.79 813.636 157.389C816.551 156.991 819.465 156.751 822.382 156.67C825.296 156.591 827.991 156.55 830.468 156.55C830.468 153.357 829.33 150.821 827.053 148.943C824.777 147.067 822.082 146.128 818.967 146.128C816.011 146.128 813.316 146.747 810.881 147.985C808.444 149.224 806.269 150.92 804.352 153.076L794.768 143.252C798.122 140.138 802.034 137.802 806.508 136.245C810.98 134.687 815.613 133.908 820.405 133.908C825.676 133.908 830.008 134.568 833.403 135.885C836.797 137.202 839.513 139.14 841.549 141.695C843.586 144.252 845.002 147.386 845.802 151.099C846.6 154.813 847 159.107 847 163.977ZM373.681 108.751H354.992V193.568H408.303V176.317H373.681V108.751ZM454.424 135.346H472.394V193.568H455.143V185.661H454.903C454.263 186.781 453.445 187.899 452.447 189.015C451.447 190.135 450.231 191.133 448.793 192.011C447.356 192.891 445.718 193.607 443.881 194.167C442.043 194.725 440.048 195.005 437.892 195.005C433.339 195.005 429.644 194.305 426.81 192.909C423.974 191.512 421.779 189.576 420.222 187.099C418.663 184.624 417.625 181.708 417.106 178.354C416.586 175 416.328 171.366 416.328 167.452V135.346H434.297V163.858C434.297 165.536 434.357 167.273 434.477 169.069C434.597 170.866 434.957 172.524 435.556 174.041C436.154 175.559 437.072 176.796 438.311 177.754C439.548 178.713 441.324 179.193 443.642 179.193C445.958 179.193 447.835 178.773 449.273 177.934C450.71 177.096 451.807 175.978 452.567 174.58C453.325 173.184 453.825 171.606 454.064 169.848C454.304 168.093 454.424 166.254 454.424 164.337V135.346Z" fill="white"/>
<g clip-path="url(#clip0_340_185)">
<path d="M1039.26 624.256H1076.29V611.914H1039.26V594.085H1079.03V582.2H1026V657.629H1079.94V645.285H1039.26V624.256Z" fill="white"/>
<path d="M1141.2 587.685C1134.8 582.2 1126.11 581.743 1116.51 581.743H1091.37V657.171H1104.63V628.371H1116.06C1125.2 628.371 1134.34 627.914 1140.74 622.429C1145.31 618.314 1148.06 611.914 1148.06 604.6C1148.06 597.285 1145.77 591.8 1141.2 587.685ZM1129.31 614.658C1127.03 615.571 1124.28 616.029 1118.8 616.029H1105.08V593.629H1118.8C1124.28 593.629 1127.03 594.085 1129.31 595C1132.51 596.829 1134.8 600.029 1134.8 604.6C1134.8 609.629 1132.97 613.285 1129.31 614.658Z" fill="white"/>
<path d="M1157.66 657.629H1170.91V624.714H1204.29V612.829H1170.91V594.085H1206.57V582.2H1157.66V657.629Z" fill="white"/>
<path d="M1230.8 582.2H1217.08V657.629H1271.03V645.285H1230.8V582.2Z" fill="white"/>
<path d="M1374.34 624.258H1411.37V611.914H1374.34V594.085H1414.12V581.743H1366.57V573.971C1366.57 571.228 1364.29 569.4 1362 569.4H1328.63V536.029C1328.63 533.286 1326.34 531.457 1324.06 531.457H1302.57C1299.83 531.457 1298 533.743 1298 536.029V569.4H1264.63C1261.89 569.4 1260.06 571.686 1260.06 573.971V595C1260.06 597.743 1262.34 599.571 1264.63 599.571H1298V632.943C1298 635.685 1300.29 637.514 1302.57 637.514H1324.06C1326.8 637.514 1328.63 635.229 1328.63 632.943V599.571H1361.09V657.171H1414.57V645.285H1374.34V624.258Z" fill="white"/>
<path d="M1458 592.715C1467.6 592.715 1474.46 597.743 1476.29 607.8L1490.46 605.514C1487.26 590.429 1475.37 580.372 1458.46 580.372C1437.89 580.372 1423.26 595 1423.26 619.229C1423.26 643.914 1436.97 659 1458 659C1478.11 659 1488.17 646.2 1490.46 632.943L1476.74 631.114C1474.91 641.171 1468.06 646.658 1458.46 646.658C1445.2 646.658 1436.97 636.6 1436.97 619.229C1436.97 602.314 1445.2 592.715 1458 592.715Z" fill="white"/>
<path d="M1520.63 582.2L1491.37 657.629H1505.08L1511.94 639.342H1542.57L1549.43 657.629H1564.05L1534.8 582.2H1520.63ZM1516.05 627.914L1524.28 605.056C1525.65 601.4 1527.48 596.371 1527.48 596.371C1527.48 596.371 1529.31 602.314 1530.23 605.056L1538.45 627.914H1516.05Z" fill="white"/>
<path d="M1584.63 582.2H1571.37V657.629H1624.85V645.285H1584.63V582.2Z" fill="white"/>
<path d="M1862.57 578.543C1867.14 573.057 1869.88 567.571 1869.88 559.8C1869.88 549.743 1864.4 539.228 1854.8 534.2C1847.94 531 1842.91 531 1832.4 531H1798.57C1791.71 531 1788.51 536.029 1788.51 541.057V609.171L1760.17 539.686C1758.34 534.657 1756.51 531 1750.11 531H1734.57C1728.17 531 1726.34 534.657 1724.51 539.686L1698 607.8C1698 602.771 1695.71 597.742 1686.11 597.742H1661.88V542.886C1661.88 536.943 1658.23 531.457 1650.45 531.457H1637.65C1629.88 531.457 1626.23 536.943 1626.23 542.886V620.6C1626.23 626.542 1629.88 632.029 1637.65 632.029H1687.48C1693.88 632.029 1695.71 628.829 1696.17 627C1696.63 628.829 1698 632.029 1704.85 632.029H1717.65C1723.14 632.029 1725.88 631.114 1728.63 625.171L1734.11 613.285H1751.03L1756.51 625.171C1759.25 631.114 1762 632.029 1767.48 632.029H1782.11C1788.51 632.029 1790.34 628.829 1790.8 627C1791.25 628.829 1792.63 632.029 1799.48 632.029H1833.77C1843.83 632.029 1850.68 630.2 1857.54 627C1867.14 622.429 1873.08 611.458 1873.08 600.485C1871.71 590.885 1868.97 584.486 1862.57 578.543Z" fill="white"/>
</g>
<g clip-path="url(#clip1_340_185)">
<path d="M1437.52 3.90006C1437.52 6.34249 1438.07 8.54855 1439.09 10.0455C1440.27 11.7789 1440.67 13.7485 1440.67 17.3728V22.3364L1442.64 20.9182C1444.21 19.7364 1444.53 18.8698 1444.53 15.5607C1444.61 12.8031 1444.13 10.991 1443.03 9.65158C1442.01 8.31218 1441.45 6.42127 1441.45 3.90006C1441.45 0.512184 1441.3 0.197032 1439.48 0.197032C1437.67 0.197032 1437.52 0.433396 1437.52 3.90006Z" fill="white"/>
<path d="M1443.82 3.74263V7.28809H1448.55H1453.27V3.74263C1453.27 0.748692 1453.04 0.197177 1451.7 0.197177C1450.67 0.197177 1450.12 0.748692 1450.12 1.77293C1450.12 2.79718 1449.57 3.34869 1448.55 3.34869C1447.52 3.34869 1446.97 2.79718 1446.97 1.77293C1446.97 0.748692 1446.42 0.197177 1445.39 0.197177C1444.05 0.197177 1443.82 0.748692 1443.82 3.74263Z" fill="white"/>
<path d="M1456.42 3.11213C1456.42 4.76668 1455.72 7.28789 1454.85 8.70607C1452.64 12.3303 1452.64 19.5 1454.85 20.6818C1456.35 21.4697 1456.42 21.3121 1456.42 17.3727C1456.42 14.6152 1456.98 12.3303 1458 10.597C1459.02 8.94243 1459.58 6.65759 1459.58 4.13637C1459.58 0.748494 1459.34 0.196979 1458 0.196979C1456.74 0.196979 1456.42 0.748494 1456.42 3.11213Z" fill="white"/>
<path d="M1422.55 7.36672C1422.55 10.2819 1423.02 12.094 1424.52 14.2213C1426.09 16.5061 1426.48 18.0819 1426.48 21.6273C1426.48 25.6455 1426.64 26.197 1428.06 26.197C1429.48 26.197 1429.64 25.6455 1429.64 20.8394C1429.64 16.9001 1429.24 14.9304 1428.06 13.197C1427.04 11.7001 1426.48 9.49399 1426.48 7.05157C1426.48 3.66369 1426.33 3.34853 1424.52 3.34853C1422.7 3.34853 1422.55 3.5849 1422.55 7.36672Z" fill="white"/>
<path d="M1428.85 6.894V10.4395H1432C1434.6 10.4395 1435.15 10.1243 1435.15 8.94248C1435.15 8.1546 1434.44 7.28794 1433.58 7.05157C1432.63 6.81521 1432 5.94854 1432 5.00309C1432 3.90006 1431.53 3.34854 1430.42 3.34854C1429.08 3.34854 1428.85 3.90006 1428.85 6.894Z" fill="white"/>
<path d="M1465.09 5.31824C1465.09 6.73642 1464.7 7.28794 1463.51 7.28794C1462.49 7.28794 1461.94 7.83945 1461.94 8.8637C1461.94 10.2031 1462.49 10.4395 1465.09 10.4395H1468.24V6.894C1468.24 3.90006 1468.01 3.34854 1466.67 3.34854C1465.48 3.34854 1465.09 3.90006 1465.09 5.31824Z" fill="white"/>
<path d="M1471.39 6.73641C1471.39 9.02126 1470.76 10.991 1469.42 12.9607C1467.85 15.3243 1467.45 16.8213 1467.45 20.997C1467.45 26.0394 1467.53 26.197 1469.42 26.197C1471.32 26.197 1471.39 25.9607 1471.39 21.2334C1471.39 17.6879 1471.87 15.7182 1472.97 13.9849C1473.99 12.4091 1474.55 10.2819 1474.55 7.4455C1474.55 3.90005 1474.31 3.34853 1472.97 3.34853C1471.63 3.34853 1471.39 3.90005 1471.39 6.73641Z" fill="white"/>
<path d="M1410.73 11.3848C1410.73 14.2212 1411.28 16.3485 1412.3 17.9242C1413.56 19.7364 1413.88 21.6273 1413.88 26.3545V32.5H1426.09C1437.75 32.5 1438.3 32.4212 1438.3 30.9242C1438.3 29.5061 1437.67 29.3485 1427.9 29.1909L1417.42 28.9545L1417.19 23.5182C1417.03 19.6576 1416.48 17.4515 1415.45 15.8758C1414.51 14.6152 1413.88 12.4879 1413.88 10.5182C1413.88 7.83939 1413.64 7.28788 1412.3 7.28788C1410.96 7.28788 1410.73 7.83939 1410.73 11.3848Z" fill="white"/>
<path d="M1417.03 10.8335C1417.03 13.8274 1417.27 14.3789 1418.61 14.3789C1419.94 14.3789 1420.18 13.8274 1420.18 10.8335C1420.18 7.83951 1419.94 7.288 1418.61 7.288C1417.27 7.288 1417.03 7.83951 1417.03 10.8335Z" fill="white"/>
<path d="M1476.91 10.8335C1476.91 14.0638 1477.07 14.3789 1478.88 14.3789C1480.69 14.3789 1480.85 14.0638 1480.85 10.8335C1480.85 7.60315 1480.69 7.288 1478.88 7.288C1477.07 7.288 1476.91 7.60315 1476.91 10.8335Z" fill="white"/>
<path d="M1483.21 10.597C1483.21 12.5667 1482.58 15.0879 1481.64 16.5848C1480.45 18.4758 1480.06 20.5242 1480.06 24.2273V29.3485H1469.82C1460.13 29.3485 1459.58 29.4273 1459.58 30.9242C1459.58 32.4212 1460.13 32.5 1471.39 32.5H1483.21V26.5121C1483.21 21.4697 1483.53 20.1303 1485.18 17.6879C1486.6 15.6394 1487.15 13.7485 1487.15 11.0697C1487.15 7.52424 1486.99 7.28788 1485.18 7.28788C1483.37 7.28788 1483.21 7.60303 1483.21 10.597Z" fill="white"/>
<path d="M1444.13 22.8881C1441.61 24.9366 1440.67 27.2214 1440.67 31.6335V35.6517H1427.27C1414.43 35.6517 1413.88 35.7305 1413.88 37.2275C1413.88 38.7244 1414.43 38.8032 1429.24 38.8032H1444.61V32.9729C1444.61 27.7729 1444.84 26.9063 1446.34 25.882C1448.7 24.2275 1449.81 24.3063 1451.7 26.1972C1452.96 27.4578 1453.27 28.7972 1453.27 33.2881V38.8032H1468.24C1482.66 38.8032 1483.21 38.7244 1483.21 37.2275C1483.21 35.7305 1482.58 35.6517 1470.05 35.4941L1456.82 35.2578L1456.42 30.2941C1456.11 26.0396 1455.71 25.0153 1453.82 23.3608C1451.15 21.076 1446.58 20.8396 1444.13 22.8881Z" fill="white"/>
<path d="M1385.28 38.173C1377.01 46.4458 1374.09 52.8276 1375.75 59.0518C1376.53 61.8094 1377.08 61.2579 1379.05 56.2155C1381.18 50.7791 1388.35 40.1427 1389.45 40.773C1390.32 41.3245 1389.53 43.0579 1386.15 48.0215C1384.25 50.7791 1380 60.5488 1380 62.1245C1380 62.6761 1389.06 53.2215 1391.42 50.2276C1395.13 45.4215 1395.84 36.8336 1392.76 33.5245C1391.5 32.0276 1391.19 32.1852 1385.28 38.173Z" fill="white"/>
<path d="M1503.15 32.9729C1502.91 33.6032 1503.3 35.3366 1504.09 36.7548C1505.75 39.7487 1505.27 41.9548 1502.91 41.9548C1500.86 41.9548 1500.86 44.0032 1503.07 45.7366C1503.93 46.4457 1505.82 48.0214 1507.16 49.2032C1509.61 51.4093 1509.61 51.4093 1507.79 51.882C1505.11 52.6699 1505.98 54.5608 1510 57.0032C1511.97 58.1851 1513.78 59.2093 1514.02 59.2093C1516.15 59.4457 1514.73 51.3305 1511.58 45.1063C1510.87 43.6093 1509.92 41.482 1509.61 40.379L1508.98 38.4093L1510.79 39.9851C1512.84 41.7972 1515.67 47.2336 1517.09 51.9608C1517.64 53.8517 1518.43 55.3487 1518.75 55.3487C1519.85 55.3487 1520.48 42.5063 1519.45 38.9608C1518.59 35.6517 1516.3 33.6032 1515.67 35.4942C1515.12 37.1487 1512.68 36.5184 1509.61 34.076C1506.3 31.476 1503.93 31.082 1503.15 32.9729Z" fill="white"/>
<path d="M1407.58 84.6578C1407.58 126.809 1407.65 128.306 1409.23 131.773C1412.78 139.652 1418.13 142.803 1431.84 145.088C1441.22 146.664 1444.68 147.688 1446.97 149.579C1447.99 150.446 1448.94 150.288 1452.25 148.634C1454.53 147.452 1459.42 146.112 1463.67 145.482C1467.69 144.852 1472.81 143.828 1475.02 143.197C1479.82 141.779 1485.65 136.973 1488.18 132.246C1489.91 129.015 1489.91 128.7 1490.14 85.0518L1490.38 41.1669H1448.94H1407.58V84.6578ZM1437.51 63.2275V81.3487H1424.12H1410.73V63.2275V45.1063H1424.12H1437.51V63.2275ZM1486.36 63.2275V81.3487H1472.97H1459.58V63.2275V45.1063H1472.97H1486.36V63.2275ZM1437.51 122.791V142.173L1432.63 141.621C1423.02 140.518 1417.34 137.84 1413.96 132.955C1411.28 129.015 1410.73 125.864 1410.73 114.282V103.409H1424.12H1437.51V122.791ZM1486.21 116.331L1485.97 129.252L1483.61 132.718C1480.45 137.209 1475.02 140.046 1467.69 141.149C1464.46 141.621 1461.39 142.015 1460.76 142.015C1459.73 142.015 1459.58 139.1 1459.58 122.712V103.409H1473.05H1486.44L1486.21 116.331Z" fill="white"/>
<path d="M1369.21 45.8943C1367.79 46.6821 1365.66 48.8882 1364.48 50.7003C1362.51 53.773 1362.27 54.7185 1362.27 61.1791C1362.27 67.9549 1362.43 68.7427 1365.58 75.4397C1367.39 79.3003 1369.29 84.1852 1369.76 86.2337C1370.31 88.3609 1371.65 90.7246 1372.99 92.064L1375.27 94.27V90.3306C1375.27 84.973 1374.17 81.27 1370.07 72.9973C1366.29 65.4337 1365.27 61.1791 1366.13 56.6094C1367 52.1973 1367.95 53.3003 1368.34 59.0518C1368.73 64.173 1372.28 73.47 1373.85 73.47C1374.96 73.47 1374.56 66.4579 1373.22 61.3367C1372.36 58.0276 1372.04 54.6397 1372.36 50.3852C1372.59 47.0761 1372.52 44.3185 1372.28 44.3185C1371.96 44.3185 1370.62 45.0276 1369.21 45.8943Z" fill="white"/>
<path d="M1522.53 49.9121C1522.05 50.8576 1521.82 52.7485 1522.05 54.1667C1522.53 57.2394 1521.58 58.894 1519.3 58.894C1516.85 58.894 1516.54 61.7303 1518.59 65.1182C1520.72 68.5061 1520.64 68.7425 1518.27 68.7425C1515.2 68.7425 1515.12 70.6334 1517.8 75.4394C1519.14 77.8031 1520.24 80.0879 1520.24 80.5606C1520.24 80.9546 1519.22 81.3485 1517.88 81.3485C1515.91 81.3485 1515.52 81.6637 1515.52 83.2394C1515.52 84.2637 1516.38 87.0212 1517.48 89.3849C1518.59 91.6697 1519.45 94.3485 1519.45 95.294C1519.45 97.7364 1520.24 99.4697 1521.35 99.4697C1523.16 99.4697 1525.28 85.0515 1525.52 71.5C1525.6 64.5667 1525.99 58.8152 1526.31 58.6576C1526.62 58.5 1527.41 59.9182 1527.96 61.8091C1528.75 64.2515 1528.91 68.6637 1528.67 77.5667C1528.52 84.4212 1528.59 90.0152 1528.83 90.0152C1529.15 90.0152 1529.78 88.8334 1530.33 87.3364C1531.59 83.7909 1533.79 81.9788 1536.95 81.8212C1539.31 81.7425 1539.55 81.4273 1539.78 79.0637C1540.02 76.7788 1539.86 76.5425 1538.52 77.0152C1536.08 77.7243 1535.76 76.2273 1537.58 72.7606C1540.18 67.6394 1539.23 63.4637 1536.16 66.5364C1534.42 68.2697 1533.87 65.9849 1534.66 60.7849C1535.29 56.7667 1535.21 55.8212 1534.19 54.797C1533.08 53.694 1532.77 53.694 1531.59 54.5606C1530.17 55.8212 1529.85 55.5061 1527.18 50.7C1525.6 47.8637 1523.79 47.5485 1522.53 49.9121Z" fill="white"/>
<path d="M1392.53 53.9306C1391.98 54.9549 1389.06 58.1852 1385.91 61.2579C1380.39 66.6943 1377.48 71.3427 1376.61 76.3064C1376.14 78.67 1376.38 78.5124 1381.5 73.5488C1384.49 70.7124 1387.88 66.8518 1389.06 65.0397C1392.92 58.973 1393.24 63.07 1389.38 69.2943C1388.51 70.6337 1385.67 73.6276 1383.07 75.8337C1378.42 79.9306 1377.08 82.2943 1377.95 85.0518C1378.34 86.3124 1379.53 85.5246 1385.44 79.8518C1393 72.5246 1395.6 68.4276 1396.31 62.5185C1396.7 58.8155 1395.6 53.4579 1394.18 52.5912C1393.79 52.3549 1393.08 52.9852 1392.53 53.9306Z" fill="white"/>
<path d="M1501.57 58.2637C1501.33 58.9728 1501.81 61.0213 1502.75 62.7546C1504.8 66.5364 1504.88 67.8758 1503.3 68.4273C1501.33 69.2152 1501.96 70.9486 1505.27 74.5728C1509.05 78.6698 1509.21 79.7728 1506.06 79.7728C1504.17 79.7728 1503.7 80.0879 1503.7 81.4273C1503.7 84.0273 1505.12 86.0758 1511.42 92.6152L1517.33 98.6819L1516.85 95.6092C1516.62 93.8758 1515.83 91.2758 1515.12 89.8576C1512.6 85.0516 1512.29 82.8455 1513.62 80.0879C1515.12 76.9364 1514.49 74.494 1510.71 68.5849C1507.87 64.1728 1508.19 62.8334 1511.42 65.7486C1513.39 67.6395 1513.62 67.6395 1514.81 66.3789C1515.83 65.3546 1515.91 64.7243 1515.2 63.5425C1514.73 62.7546 1513.78 61.9667 1513.15 61.8092C1512.52 61.6516 1510.32 60.4698 1508.35 59.2092C1504.25 56.6092 1502.28 56.294 1501.57 58.2637Z" fill="white"/>
<path d="M1357.62 74.4941C1354.71 78.276 1354 80.876 1354 87.1002C1354 94.5063 1356.21 99.3123 1362.9 106.403C1365.66 109.318 1368.58 112.785 1369.44 113.967L1370.86 116.252L1371.88 113.967C1372.44 112.706 1372.83 111.13 1372.83 110.5C1372.83 109.87 1370.23 106.482 1367 103.094C1360.62 96.3972 1357.94 91.0396 1357.94 85.2093C1357.94 81.0335 1359.67 81.5063 1360.46 85.8396C1361.33 91.0396 1363.14 94.5063 1367.47 99.076C1369.76 101.44 1371.73 103.252 1371.88 103.094C1372.59 102.385 1370.15 95.4517 1366.61 88.2032C1364.48 84.0275 1362.35 78.5911 1361.88 76.2275C1361.41 73.8638 1360.7 71.8941 1360.3 71.8941C1359.91 71.8941 1358.73 73.076 1357.62 74.4941Z" fill="white"/>
<path d="M1388.98 81.1911C1381.5 86.7063 1376.22 95.0578 1375.51 102.543L1375.19 106.955L1377.24 104.591C1380.24 101.203 1384.49 94.5851 1386.46 90.1729C1388.04 86.7063 1388.19 86.6275 1388.51 88.5972C1388.9 91.5123 1386.3 97.0275 1381.65 103.331C1377.71 108.688 1373.7 116.015 1373.7 117.749C1373.7 118.3 1374.56 119.403 1375.59 120.112L1377.48 121.531L1378.9 117.197C1379.61 114.834 1382.44 109.634 1385.2 105.615C1390.79 97.579 1391.5 95.9245 1392.53 88.0457C1393 84.9729 1393.55 81.7426 1393.87 80.7184C1394.58 78.276 1392.76 78.4335 1388.98 81.1911Z" fill="white"/>
<path d="M1534.11 86.2335C1533.48 87.2578 1532.77 89.1487 1532.45 90.5669C1531.82 93.876 1530.25 95.1366 1528.91 93.5608C1528.36 92.9305 1527.41 92.379 1526.78 92.379C1525.84 92.379 1525.68 93.4032 1525.84 97.6578C1526.07 100.967 1525.84 102.937 1525.36 102.858C1524.97 102.858 1524.5 104.355 1524.5 106.246C1524.42 108.924 1524.65 109.791 1525.84 110.106C1526.7 110.421 1527.33 111.052 1527.33 111.524C1527.41 113.415 1531.27 106.009 1532.93 101.046C1533.79 98.2093 1534.74 95.3729 1534.9 94.7426C1535.29 93.7972 1535.45 93.7972 1536.16 94.979C1537.73 97.8154 1533.87 108.531 1528.36 116.882C1526.94 119.088 1526.62 120.191 1527.18 121.215C1527.65 122.082 1528.04 122.24 1528.44 121.609C1529.15 120.506 1532.45 120.506 1534.5 121.531C1536.08 122.397 1538.05 121.767 1540.25 119.482C1542.3 117.512 1541.83 116.015 1539.15 116.015C1536 116.015 1536.16 114.991 1539.94 111.367C1543.41 108.058 1544.19 104.985 1541.51 104.985C1539.47 104.985 1539.55 103.724 1541.91 99.8638C1543.01 98.1305 1543.88 95.6881 1543.88 94.5063C1543.88 92.5366 1543.64 92.3002 1541.75 92.5366C1539.7 92.7729 1539.55 92.5366 1539.31 89.6214C1538.84 84.5002 1536.31 82.8457 1534.11 86.2335Z" fill="white"/>
<path d="M1507.16 97.5001C1506.85 98.6032 1506.85 100.967 1507.16 102.7C1507.64 105.536 1507.48 105.852 1505.67 106.561C1503.3 107.506 1503.3 107.664 1505.35 113.652C1507.24 119.167 1506.93 121.294 1504.49 119.955C1501.89 118.536 1501.33 119.718 1501.33 126.258C1501.33 129.646 1501.02 133.349 1500.55 134.452C1499.92 136.106 1500.07 136.5 1501.33 136.894C1502.2 137.209 1503.46 138.312 1504.09 139.494L1505.19 141.621L1505.27 139.021C1505.27 135.87 1506.38 133.506 1508.9 131.379C1511.42 129.252 1512.68 121.136 1511.97 111.761C1511.58 106.167 1511.65 104.906 1512.52 105.143C1513.78 105.536 1515.36 112.47 1515.44 117.985C1515.44 120.112 1514.96 124.052 1514.33 126.652C1512.99 132.324 1512.99 132.561 1513.86 132.561C1514.25 132.561 1514.73 131.694 1515.04 130.749C1515.28 129.724 1516.22 127.912 1517.17 126.73C1518.67 124.84 1519.3 124.603 1521.82 124.997C1524.1 125.391 1524.89 125.155 1525.29 124.209C1525.92 122.555 1525.21 121.53 1523.32 121.53C1521.27 121.53 1521.42 120.349 1523.79 117.276C1526.62 113.573 1526.47 111.761 1523.32 112.391L1520.95 112.864L1521.19 107.506C1521.42 101.912 1521.35 101.833 1517.33 103.015C1515.91 103.488 1515.36 103.015 1513.86 100.1C1512.92 98.288 1511.73 96.4759 1511.26 96.1607C1509.45 94.9789 1507.64 95.5304 1507.16 97.5001Z" fill="white"/>
<path d="M1388.35 106.64C1387.25 109.003 1385.44 112.312 1384.33 114.046C1381.58 118.379 1380.63 122.555 1381.26 126.809L1381.81 130.355L1384.73 124.052C1386.38 120.585 1388.12 116.488 1388.67 114.912C1389.14 113.336 1389.93 112.312 1390.4 112.549C1391.58 113.258 1390.48 117.985 1387.41 124.918C1384.18 132.246 1384.1 134.058 1386.7 136.5L1388.67 138.312V135.633C1388.75 134.136 1389.77 130.276 1391.11 127.046C1394.81 117.827 1395.13 108.136 1391.9 104.118L1390.48 102.385L1388.35 106.64Z" fill="white"/>
<path d="M1356.6 107.9C1356.21 109.161 1355.97 112.391 1356.05 115.227C1356.13 124.288 1360.7 130.355 1371.33 135.712C1374.72 137.446 1378.74 139.888 1380.16 141.149C1381.89 142.646 1383.86 143.512 1386.15 143.749C1387.96 143.906 1389.45 143.827 1389.45 143.591C1389.45 142.015 1381.1 135.239 1375.75 132.482C1372.2 130.67 1368.18 128.227 1366.68 127.124C1362.59 124.052 1357.86 116.015 1360.15 116.015C1360.46 116.015 1361.33 117.039 1362.11 118.3C1364.16 121.846 1368.89 126.021 1373.78 128.621C1376.22 129.882 1378.5 130.985 1378.82 130.985C1380.39 130.985 1374.8 123.736 1369.6 118.93C1366.21 115.936 1362.43 111.761 1361.01 109.633C1359.67 107.506 1358.25 105.773 1357.86 105.773C1357.47 105.773 1356.91 106.718 1356.6 107.9Z" fill="white"/>
<path d="M1526.47 127.203C1523.47 130.434 1523.24 130.512 1522.21 129.094C1520.56 126.967 1519.06 127.991 1517.49 132.324C1516.7 134.373 1515.59 136.658 1514.96 137.288C1514.1 138.234 1513.78 138.155 1512.68 136.658C1512.05 135.712 1510.95 134.924 1510.32 134.924C1509.05 134.924 1507.64 137.997 1507.64 140.834C1507.64 141.779 1507.09 143.67 1506.45 144.852C1505.82 146.112 1505.27 148.082 1505.27 149.264C1505.27 151.234 1505.43 151.312 1507.48 150.603C1509.76 149.815 1519.69 140.597 1524.42 135.003C1525.99 133.034 1527.57 131.773 1527.89 132.088C1528.91 133.112 1525.52 138.076 1519.3 144.773C1513.94 150.524 1513.15 151.627 1513.86 152.967C1514.33 153.834 1514.73 155.409 1514.73 156.512C1514.73 158.009 1515.12 158.561 1516.22 158.561C1518.35 158.561 1522.05 157.064 1522.76 155.961C1523.47 154.7 1521.98 153.046 1520.09 153.046C1517.17 153.046 1519.14 151.155 1524.26 149.185C1528.12 147.609 1529.38 146.743 1529.54 145.324C1529.7 144.143 1529.38 143.591 1528.59 143.591C1526.39 143.591 1527.25 142.252 1531.27 139.337C1535.45 136.343 1536.39 133.821 1533.56 133.112C1532.22 132.718 1532.06 132.324 1532.53 130.827C1534.98 123.737 1531.51 121.688 1526.47 127.203Z" fill="white"/>
<path d="M1393.79 129.567C1391.03 135.476 1391.11 142.488 1393.95 148.318C1395.76 152.021 1396.07 152.336 1396.39 150.761C1396.55 149.736 1396.31 146.112 1395.84 142.724C1395.05 136.658 1395.28 133.742 1396.55 134.53C1397.18 134.924 1398.2 140.518 1399.7 151.706C1400.72 159.9 1402.61 163.446 1405.84 163.682C1407.26 163.839 1408.36 163.839 1408.36 163.682C1408.36 163.603 1407.58 161.791 1406.71 159.664C1405.76 157.615 1404.35 152.021 1403.56 147.373C1402.77 142.646 1401.19 136.5 1400.09 133.742C1398.99 130.985 1398.12 127.991 1398.12 127.124C1398.12 124.052 1395.76 125.391 1393.79 129.567Z" fill="white"/>
<path d="M1366.84 140.833C1368.26 150.682 1376.14 158.009 1387.72 160.136C1390.4 160.609 1394.18 161.476 1396.15 162.027C1398.12 162.658 1399.7 163.052 1399.7 162.894C1399.7 162.815 1399.15 161.476 1398.52 159.979C1397.41 157.221 1397.25 157.142 1390.08 155.882C1382.28 154.464 1376.14 151.627 1373.54 148.397C1371.25 145.403 1372.91 145.561 1377.48 148.633C1381.42 151.233 1388.75 153.439 1391.66 152.888C1393.71 152.494 1388.9 149.106 1379.61 144.536C1375.27 142.409 1371.02 139.888 1370.23 138.942C1367.63 136.027 1366.29 136.736 1366.84 140.833Z" fill="white"/>
<path d="M1496.68 142.567C1494.32 145.403 1494.16 145.482 1493.06 144.064C1491.33 141.779 1489.75 143.04 1488.41 147.846C1486.76 153.518 1485.18 154.385 1483.76 150.367C1483.21 148.712 1480.53 151.549 1477.7 156.749C1475.1 161.633 1474.86 162.343 1476.04 163.052C1477.07 163.682 1477.93 163.13 1480.38 160.373C1483.13 157.221 1483.76 156.906 1486.28 157.143C1488.57 157.458 1489.36 157.064 1491.33 154.858C1492.59 153.44 1494.08 152.258 1494.64 152.258C1495.19 152.258 1496.05 151.155 1496.61 149.894C1498.1 146.27 1499.28 145.955 1498.73 149.343C1498.42 151.391 1498.65 152.415 1499.68 153.361C1501.81 155.33 1502.67 153.518 1502.59 147.452C1502.52 142.646 1501.41 139.652 1499.76 139.652C1499.36 139.652 1498.02 140.991 1496.68 142.567Z" fill="white"/>
<path d="M1406.79 147.215C1406.79 148.87 1411.12 161.712 1412.46 163.839C1413.72 165.967 1418.21 169.591 1419.55 169.591C1419.79 169.591 1418.21 166.124 1416.16 161.949C1414.04 157.773 1412.46 154.149 1412.7 153.991C1413.56 153.124 1416.16 156.512 1419.63 163.13C1423.65 170.852 1424.83 172.112 1429.08 173.924C1434.52 176.209 1434.84 175.342 1430.35 170.852C1427.98 168.488 1424.51 163.839 1422.62 160.452C1418.76 153.597 1416.08 150.288 1413.09 148.791C1410.65 147.53 1406.79 146.585 1406.79 147.215Z" fill="white"/>
<path d="M1505.04 154.936C1499.44 158.718 1499.05 158.876 1498.18 156.591C1497.79 155.488 1497.08 154.621 1496.53 154.621C1495.58 154.621 1492.19 158.009 1490.07 161.239C1488.33 163.761 1487.31 163.839 1486.99 161.555C1486.6 158.561 1484.87 159.112 1480.85 163.446C1477.15 167.385 1476.83 167.542 1475.81 166.203C1474.39 164.391 1471.79 165.021 1470.53 167.385C1470.05 168.252 1468.4 170.379 1466.82 172.112L1464.07 175.185L1466.35 174.712C1479.35 171.797 1487.78 169.039 1495.66 165.179C1500.55 162.736 1504.72 160.924 1504.96 161.161C1505.75 161.949 1498.65 167.149 1493.22 169.827C1487.62 172.506 1475.73 176.603 1473.13 176.761C1472.42 176.761 1473.05 177.233 1474.55 177.785C1476.51 178.494 1480.22 178.652 1487.7 178.336C1499.05 177.785 1501.1 177.076 1498.65 174.397C1497.31 172.9 1497.31 172.821 1499.68 171.639C1500.94 170.93 1502.67 170.379 1503.46 170.379C1506.22 170.379 1510.87 168.646 1511.34 167.542C1511.58 166.833 1511.1 165.888 1510.08 165.179L1508.42 163.997L1510.08 160.846C1513.39 154.385 1510.63 151.155 1505.04 154.936Z" fill="white"/>
<path d="M1425.38 159.506C1434.84 172.664 1436.96 174.634 1440.11 172.979C1440.43 172.743 1439.01 170.615 1436.88 168.173C1434.76 165.731 1431.68 161.791 1430.11 159.506C1427.67 156.118 1426.72 155.409 1424.75 155.409H1422.39L1425.38 159.506Z" fill="white"/>
<path d="M1469.35 157.143C1468.48 158.167 1466.27 160.925 1464.46 163.288C1462.73 165.731 1460.29 168.488 1459.18 169.591C1456.82 171.797 1456.66 173.215 1458.71 173.767C1459.73 174.003 1460.99 173.294 1462.57 171.64C1464.93 169.04 1471 161.24 1473.36 157.537C1474.7 155.409 1474.7 155.409 1472.81 155.409C1471.71 155.409 1470.21 156.197 1469.35 157.143Z" fill="white"/>
<path d="M1432.79 158.246C1432.79 158.955 1440.19 168.094 1442.16 169.906C1443.5 171.088 1443.98 171.167 1445 170.379C1446.02 169.512 1445.63 168.724 1442.08 164.549C1439.88 161.949 1437.44 159.27 1436.81 158.718C1435.62 157.773 1432.79 157.379 1432.79 158.246Z" fill="white"/>
<path d="M1456.35 163.446C1451.54 168.567 1451.07 169.276 1452.25 170.221C1453.04 170.773 1453.82 171.088 1454.14 171.009C1454.69 170.773 1463.67 160.294 1464.62 158.64C1465.01 158.088 1464.54 157.773 1463.44 157.773C1462.25 157.773 1459.89 159.743 1456.35 163.446Z" fill="white"/>
<path d="M1387.09 163.918C1387.09 166.124 1391.35 171.639 1394.73 173.846C1398.51 176.288 1402.85 177.233 1412.7 177.785C1418.13 178.1 1421.68 177.864 1424.12 177.155L1427.67 176.13L1423.33 174.791C1420.89 174.003 1414.51 173.136 1408.76 172.821C1403.16 172.506 1397.73 171.797 1396.78 171.324C1394.65 170.142 1394.26 168.33 1396.39 169.276C1398.04 169.985 1408.68 170.615 1411.91 170.221L1414.27 169.906L1411.28 168.567C1409.62 167.779 1405.45 166.833 1401.9 166.361C1398.44 165.967 1393.79 164.864 1391.5 164.076C1386.62 162.185 1387.09 162.185 1387.09 163.918Z" fill="white"/>
<path d="M1447.29 172.034C1447.05 172.506 1445 173.688 1442.79 174.634L1438.93 176.367L1442.01 178.888C1447.36 183.064 1448.78 183.458 1451.85 181.409C1453.27 180.385 1455.24 178.888 1456.27 178.021L1458 176.367L1453.12 173.767C1447.44 170.773 1447.99 170.931 1447.29 172.034Z" fill="white"/>
<path d="M1459.26 178.967C1457.84 180.543 1457.84 180.622 1459.65 181.331C1460.68 181.725 1463.67 182.434 1466.27 182.985C1474.07 184.561 1479.04 186.767 1481.48 189.761L1483.68 192.44L1484.79 190.47C1485.73 188.658 1485.65 188.264 1484 186.531C1481.32 183.694 1475.1 180.858 1468.64 179.518C1465.64 178.888 1462.57 178.179 1461.86 177.864C1461.15 177.628 1460.05 178.1 1459.26 178.967Z" fill="white"/>
<path d="M1426.88 180.149C1419.79 182.118 1414.98 184.403 1412.78 186.846C1411.52 188.264 1411.44 188.815 1412.22 190.549L1413.09 192.518L1415.14 190.076C1417.82 186.924 1421.99 184.876 1428.61 183.3C1437.75 181.252 1439.33 180.621 1438.22 179.361C1436.96 177.864 1434.36 178.021 1426.88 180.149Z" fill="white"/>
<path d="M1436.65 184.167C1435.07 184.718 1431.68 185.585 1429.16 186.137C1423.25 187.318 1417.66 190.312 1416.01 193.228C1414.75 195.276 1414.75 195.512 1416.24 197.246C1417.35 198.664 1417.74 198.821 1417.82 197.876C1417.82 196.537 1421.21 193.149 1423.73 191.809C1424.67 191.337 1428.38 190.234 1432 189.367C1435.7 188.421 1440.19 187.082 1442.08 186.373C1445.08 185.27 1445.24 185.034 1444.05 184.088C1442.32 182.749 1440.27 182.828 1436.65 184.167Z" fill="white"/>
<path d="M1452.96 184.009C1451.62 184.955 1451.7 185.112 1453.67 185.979C1454.77 186.53 1459.34 187.791 1463.67 188.894C1472.73 191.179 1475.81 192.676 1478.17 196.143C1479.67 198.427 1479.82 198.506 1480.69 197.088C1482.11 194.882 1481.87 193.7 1479.51 191.494C1476.36 188.579 1473.36 187.24 1466.67 185.9C1463.44 185.191 1459.73 184.324 1458.55 183.852C1455.64 182.749 1454.69 182.749 1452.96 184.009Z" fill="white"/>
<path d="M1361.41 215.367C1355.81 216.943 1351.79 224.743 1352.82 231.755C1354.08 240.028 1358.18 243.967 1365.58 243.967C1370.07 243.967 1373.85 241.997 1374.41 239.319C1374.64 238.058 1374.25 238.216 1372.2 239.949C1367.39 243.967 1361.48 243.416 1359.04 238.767C1356.99 234.828 1357.07 223.64 1359.2 220.016C1362.12 214.894 1369.92 214.973 1372.59 220.094C1374.09 223.088 1374.48 222.931 1374.48 219.306C1374.48 216.234 1374.48 216.234 1370.55 215.367C1365.9 214.343 1364.79 214.343 1361.41 215.367Z" fill="white"/>
<path d="M1382.76 226.555C1381.26 228.052 1379.84 230.179 1379.53 231.282C1378.74 234.591 1379.92 239.003 1382.28 241.367C1388.43 247.512 1398.91 242.864 1398.91 233.961C1398.91 227.815 1394.97 223.955 1388.59 223.955C1385.99 223.955 1384.88 224.427 1382.76 226.555ZM1392.21 226.712C1393.94 228.367 1394.18 229.312 1394.18 234.197C1394.18 240.343 1392.68 242.864 1389.14 242.864C1385.2 242.864 1383.54 239.239 1384.1 232.07C1384.41 228.682 1384.88 227.264 1386.3 226.161C1388.67 224.27 1389.93 224.349 1392.21 226.712Z" fill="white"/>
<path d="M1405.21 224.743C1403.4 225.136 1403.08 225.373 1404.27 225.452C1405.92 225.53 1406 225.767 1406 234.591V243.652H1407.97C1409.94 243.652 1409.94 243.573 1409.94 237.349C1409.94 230.021 1411.28 226.633 1414.35 225.846C1417.5 225.058 1418.21 226.476 1418.61 235.221C1419 242.785 1419.08 243.258 1420.81 243.494C1422.47 243.73 1422.54 243.573 1422.54 236.718C1422.54 230.809 1422.78 229.391 1424.2 227.579C1425.93 225.373 1427.98 224.979 1429.48 226.476C1430.03 227.027 1430.42 229.943 1430.42 234.039C1430.42 240.815 1431.21 243.652 1433.18 243.652C1434.13 243.652 1434.36 242.076 1434.36 235.143C1434.36 227.815 1434.13 226.397 1432.94 225.294C1430.98 223.561 1426.33 223.639 1424.12 225.373C1422.31 226.791 1422.23 226.791 1420.81 225.373C1418.76 223.324 1414.04 223.482 1411.75 225.688L1409.94 227.343V225.688C1409.94 223.876 1409.62 223.797 1405.21 224.743Z" fill="white"/>
<path d="M1442.24 224.743C1440.43 225.136 1440.12 225.373 1441.3 225.452C1442.95 225.53 1443.03 225.846 1443.03 232.149C1443.03 235.852 1443.35 239.712 1443.74 240.736C1445.16 244.439 1450.83 245.227 1454.22 242.233C1455.48 241.209 1455.64 241.209 1456.11 242.391C1456.35 243.1 1457.29 243.652 1458.08 243.652C1459.5 243.652 1459.58 242.943 1459.58 234.197V224.743H1457.61C1455.64 224.743 1455.64 224.821 1455.64 231.676C1455.64 239.712 1454.53 242.076 1450.91 242.076C1447.68 242.076 1446.97 240.264 1446.97 231.518C1446.97 225.924 1446.73 223.955 1446.02 224.033C1445.47 224.112 1443.74 224.427 1442.24 224.743Z" fill="white"/>
<path d="M1467.45 224.743C1465.64 225.136 1465.33 225.373 1466.51 225.452C1468.16 225.53 1468.24 225.767 1468.24 234.591V243.652H1470.21C1472.18 243.652 1472.18 243.573 1472.18 237.112C1472.18 229.785 1473.21 227.106 1476.28 226.003C1479.9 224.743 1480.85 226.318 1480.85 233.961C1480.85 240.815 1481.64 243.652 1483.61 243.652C1484.55 243.652 1484.79 242.076 1484.79 235.064C1484.79 227.027 1484.63 226.318 1483.05 225.215C1480.53 223.403 1475.96 223.639 1473.92 225.53L1472.18 227.185V225.53C1472.18 223.876 1471.87 223.797 1467.45 224.743Z" fill="white"/>
<path d="M1495.19 226.161C1489.28 231.676 1491.8 242.549 1499.28 243.967C1502.83 244.676 1507.95 242.943 1508.35 240.894C1508.58 239.397 1508.58 239.397 1507.01 240.737C1506.14 241.525 1504.25 242.313 1502.67 242.628C1499.05 243.179 1496.61 240.894 1496.61 236.955V234.197H1502.91C1509.13 234.197 1509.21 234.197 1509.21 232.149C1509.21 224.9 1500.55 221.197 1495.19 226.161ZM1503.15 226.161C1503.85 226.949 1504.72 228.761 1504.96 230.1L1505.51 232.622H1500.94H1496.37L1496.84 229.706C1497.63 225.137 1500.7 223.403 1503.15 226.161Z" fill="white"/>
<path d="M1530.33 224.506C1530.88 224.743 1531.27 226.239 1531.27 228.13C1531.27 230.652 1531.04 231.124 1530.33 230.415C1527.96 228.052 1522.45 230.73 1521.5 234.67C1520.79 237.349 1522.29 241.839 1524.18 242.864C1526.15 243.967 1529.15 243.888 1530.33 242.706C1531.04 241.997 1531.51 241.997 1532.22 242.706C1532.77 243.258 1533.48 243.652 1533.79 243.652C1534.11 243.652 1534.42 239.239 1534.42 233.803V223.955L1531.9 224.033C1530.48 224.033 1529.78 224.27 1530.33 224.506ZM1530.33 231.991C1531.9 233.567 1531.51 239.476 1529.7 241.288C1527.02 243.967 1524.18 241.209 1524.18 236.088C1524.18 231.833 1527.73 229.391 1530.33 231.991Z" fill="white"/>
<path d="M1538.6 231.203C1539.54 231.991 1539.94 233.724 1540.1 237.664C1540.25 241.209 1540.65 243.258 1541.36 243.494C1542.07 243.73 1542.3 242.076 1542.3 237.033V230.258H1539.78C1537.58 230.258 1537.42 230.415 1538.6 231.203Z" fill="white"/>
<path d="M1428.69 256.021C1424.59 256.336 1423.41 257.833 1427.27 257.833H1429.64V277.924V298.015H1431.61C1432.71 298.015 1433.89 297.385 1434.36 296.518C1434.84 295.573 1435.15 287.3 1435.15 275.245C1435.15 256.888 1435.07 255.47 1433.81 255.627C1433.02 255.706 1430.74 255.864 1428.69 256.021Z" fill="white"/>
<path d="M1352.42 257.046C1352.42 257.439 1353.53 257.833 1354.79 257.833H1357.15V277.924C1357.15 295.179 1357.31 298.015 1358.33 298.015C1359.28 298.015 1359.51 295.336 1359.67 280.367L1359.91 262.639L1366.68 278.949C1370.55 288.246 1373.93 295.336 1374.56 295.494C1375.35 295.652 1377.71 290.846 1382.28 279.736C1385.91 270.912 1389.22 263.427 1389.53 262.955C1389.93 262.561 1390.24 269.652 1390.24 279.264C1390.24 297.464 1390.24 297.385 1394.42 298.409L1396.55 298.961V278.397V257.833H1398.91C1400.25 257.833 1401.27 257.439 1401.27 257.046C1401.27 256.573 1398.83 256.258 1395.44 256.258H1389.69L1383.55 271.227C1380.16 279.421 1377.24 286.197 1376.93 286.197C1376.69 286.197 1375.27 283.282 1373.85 279.658C1372.36 276.112 1369.6 269.415 1367.63 264.688L1364.08 256.258H1358.25C1354.87 256.258 1352.42 256.573 1352.42 257.046Z" fill="white"/>
<path d="M1450.52 270.676C1448.15 272.015 1447.36 272.961 1447.36 274.379C1447.36 277.688 1450.2 277.294 1453.12 273.591C1455.08 271.228 1456.27 270.44 1458 270.44C1461.39 270.44 1462.73 272.252 1462.73 277.058V281.234L1458.16 281.706C1453.04 282.1 1447.68 284.464 1445.87 287.143C1440.75 294.47 1452.56 302.349 1460.52 296.912C1463.2 295.179 1463.28 295.1 1464.22 296.518C1464.7 297.385 1465.96 298.015 1466.98 298.015H1468.79L1468.48 286.355C1468.32 279.973 1468.01 273.985 1467.77 273.04C1466.9 268.785 1456.42 267.367 1450.52 270.676ZM1462.73 286.985C1462.73 289.191 1462.25 291.949 1461.62 293.209C1458.32 299.512 1449.96 296.755 1451.22 289.743C1452.01 285.882 1455.72 283.203 1460.6 283.125C1462.65 283.046 1462.73 283.203 1462.73 286.985Z" fill="white"/>
<path d="M1489.91 271.306L1487.15 273.749V271.7C1487.15 269.731 1486.99 269.652 1482.42 269.652C1479.82 269.652 1477.7 269.967 1477.7 270.44C1477.7 270.834 1478.56 271.228 1479.67 271.228H1481.64V284.621V298.015H1484.39H1487.15V289.9C1487.23 279.579 1488.02 276.112 1491.09 273.355C1493.77 270.991 1496.29 270.676 1498.65 272.331C1499.99 273.355 1500.23 274.773 1500.55 284.937C1500.78 291.24 1501.33 296.676 1501.73 297.07C1502.2 297.543 1503.3 298.094 1504.33 298.409L1506.06 298.882V286.197V273.434L1503.78 271.149C1501.73 269.179 1500.86 268.864 1497.08 268.864C1493.3 268.864 1492.35 269.179 1489.91 271.306Z" fill="white"/>
<path d="M1522.61 270.518C1516.38 274.064 1513.86 282.415 1516.62 289.742C1520.95 300.93 1536.71 301.639 1542.14 290.924C1545.77 283.676 1543.56 274.536 1537.26 270.833C1532.93 268.312 1526.62 268.155 1522.61 270.518ZM1533.56 271.227C1538.36 273.748 1538.91 291.161 1534.34 295.336C1532.38 297.148 1526.94 297.07 1524.97 295.258C1520.48 291.161 1520.87 275.088 1525.6 271.542C1527.18 270.282 1531.59 270.124 1533.56 271.227Z" fill="white"/>
<path d="M1406 270.439C1406 270.833 1406.87 271.227 1407.97 271.227H1409.94V282.888C1409.94 295.652 1410.65 298.015 1414.35 298.015H1416.24V283.833V269.652H1411.12C1408.21 269.652 1406 269.967 1406 270.439Z" fill="white"/>
</g>
<g clip-path="url(#clip2_340_185)">
<path d="M429.215 446.448L429.82 446.948L428.767 456.162C427.425 467.534 427.53 466.982 426.898 467.192C425.924 467.508 426.372 467.771 428.162 467.929C429.136 468.035 430.531 468.166 431.242 468.272C432.4 468.403 432.506 468.377 432.111 468.035C431.848 467.824 431.637 467.324 431.637 466.903C431.611 465.455 433.058 453.635 433.243 453.635C433.611 453.635 444.8 468.245 444.8 468.693C444.8 468.93 444.589 469.246 444.352 469.404C443.957 469.614 443.931 469.667 444.273 469.772C444.773 469.93 449.565 470.483 450.433 470.483H451.118L450.591 469.956C450.17 469.535 450.091 469.193 450.196 468.561C450.275 468.087 450.802 463.691 451.381 458.768C452.355 450.396 452.46 449.791 453.013 449.37C453.356 449.107 453.513 448.896 453.356 448.896C453.224 448.896 451.855 448.712 450.328 448.501C448.828 448.317 447.538 448.185 447.485 448.238C447.432 448.29 447.643 448.58 447.932 448.87C448.301 449.238 448.459 449.633 448.354 450.028C448.301 450.344 447.932 453.266 447.564 456.53C447.169 459.795 446.827 462.48 446.8 462.533C446.695 462.612 436.349 449.291 435.823 448.422C435.507 447.869 435.507 447.764 435.954 447.422C436.244 447.237 436.428 447 436.349 446.948C436.297 446.895 435.059 446.711 433.611 446.553C432.163 446.369 430.452 446.184 429.794 446.105L428.609 445.974L429.215 446.448Z" fill="white"/>
<path d="M403.575 447.448C399.52 448.185 396.177 450.607 394.492 454.082C393.65 455.767 393.597 456.03 393.597 458.636C393.597 461.19 393.65 461.532 394.413 463.138C396.467 467.456 400.284 469.746 405.444 469.72C411.104 469.693 415.474 467.271 417.553 463.033C420.265 457.504 417.948 450.976 412.341 448.369C409.55 447.053 407.129 446.79 403.575 447.448ZM409.34 451.16C410.919 451.686 412.762 453.319 413.499 454.898C414.368 456.636 414.394 460.111 413.552 461.664C412.341 463.928 410.182 465.297 407.05 465.797C404.391 466.192 402.179 465.639 400.442 464.112C398.704 462.585 398.125 461.322 397.994 458.715C397.888 456.741 397.941 456.399 398.573 455.082C398.968 454.293 399.784 453.24 400.389 452.713C402.443 450.949 406.628 450.239 409.34 451.16Z" fill="white"/>
<path d="M378.854 453.319C377.011 453.924 376.169 454.293 376.564 454.372C376.88 454.425 377.248 454.661 377.38 454.898C377.775 455.688 383.198 473.3 383.198 473.826C383.198 474.09 383.066 474.458 382.882 474.643C382.408 475.116 382.698 475.064 386.041 474.011C388.937 473.116 389.068 473.037 388.437 472.721C387.857 472.405 387.436 471.22 384.804 462.849C381.961 453.74 381.855 453.319 382.303 452.819C382.724 452.345 382.724 452.318 382.25 452.345C381.987 452.345 380.46 452.792 378.854 453.319Z" fill="white"/>
<path d="M466.519 452.845C466.966 453.345 466.887 453.608 463.886 461.585C459.858 472.299 459.858 472.326 459.253 472.326C457.937 472.326 459.279 472.957 465.676 475.353C477.944 479.934 477.944 479.934 478.128 480.671C478.234 481.013 478.339 481.25 478.418 481.197C478.707 480.881 480.524 475.748 480.34 475.748C480.208 475.748 480.024 475.853 479.945 476.011C479.866 476.143 479.523 476.274 479.208 476.274C478.655 476.248 465.703 471.483 465.413 471.167C465.176 470.93 467.229 465.744 467.545 465.744C467.703 465.744 469.783 466.481 472.179 467.403C475.917 468.824 476.522 469.14 476.68 469.693L476.838 470.351L477.154 469.561C478.076 467.35 478.76 465.376 478.655 465.297C478.602 465.218 478.313 465.323 478.023 465.507C477.575 465.797 476.865 465.586 473.074 464.165C470.625 463.27 468.598 462.48 468.546 462.453C468.388 462.322 470.231 457.846 470.441 457.846C470.783 457.846 482.604 462.269 483.578 462.769C483.999 462.98 484.288 463.349 484.288 463.638C484.288 463.928 484.367 464.165 484.499 464.165C484.71 464.165 486.71 458.873 486.526 458.689C486.473 458.636 486.237 458.768 486 458.978C485.499 459.505 486 459.663 475.364 455.635C470.546 453.819 466.466 452.318 466.308 452.318C466.176 452.318 466.255 452.555 466.519 452.845Z" fill="white"/>
<path d="M358.031 461.716C350.37 465.56 349.264 466.034 348.764 465.771C348.448 465.613 348.185 465.56 348.211 465.665C348.211 465.771 348.79 467.008 349.501 468.377C350.502 470.299 350.791 470.72 350.791 470.167C350.818 469.482 351.186 469.246 356.346 466.666C360.874 464.402 361.874 463.98 361.874 464.375C361.874 464.639 360.927 469.298 359.768 474.721C357.636 484.725 357.478 485.62 357.899 485.857C358.031 485.936 362.138 484.041 367.034 481.645C375.037 477.722 376.037 477.301 376.696 477.538C377.09 477.696 377.406 477.749 377.406 477.696C377.406 477.406 374.879 472.589 374.721 472.589C374.642 472.589 374.511 472.852 374.458 473.168C374.405 473.668 373.352 474.3 368.851 476.59C365.718 478.17 363.296 479.249 363.27 479.091C363.217 478.907 364.191 474.089 365.376 468.377C366.587 462.664 367.534 457.82 367.455 457.636C367.403 457.478 367.218 457.32 367.034 457.346C366.876 457.346 362.822 459.321 358.031 461.716Z" fill="white"/>
<path d="M338.866 471.905C338.998 472.457 338.155 473.194 330.969 478.933C324.519 484.067 323.045 485.383 323.545 485.436C324.361 485.541 324.677 485.883 331.074 493.913C335.734 499.783 336.602 500.994 336.523 501.6C336.471 502.021 336.497 502.337 336.576 502.337C336.655 502.337 340.288 499.494 344.632 496.019C351.529 490.464 352.608 489.701 353.266 489.806C353.661 489.885 353.977 489.885 353.977 489.832C353.977 489.753 353.187 488.674 352.213 487.437L350.423 485.146L350.292 485.989C350.186 486.7 349.344 487.463 344.395 491.412C341.209 493.965 338.55 495.94 338.445 495.834C337.05 494.176 335.023 491.543 335.023 491.359C335.049 491.149 340.814 486.489 342.052 485.699C342.552 485.383 342.894 485.331 343.236 485.515C343.5 485.646 343.71 485.673 343.71 485.541C343.71 485.252 340.577 481.276 340.367 481.276C340.288 481.276 340.288 481.513 340.367 481.803C340.446 482.093 340.314 482.54 340.077 482.83C339.077 483.935 332.864 488.7 332.653 488.49C332.074 487.884 329.758 484.883 329.758 484.725C329.784 484.541 339.682 476.643 340.735 475.959C341.236 475.643 341.578 475.59 341.92 475.774C342.21 475.932 342.394 475.932 342.394 475.774C342.394 475.511 339.024 471.273 338.814 471.273C338.761 471.273 338.761 471.562 338.866 471.905Z" fill="white"/>
<path d="M507.403 477.828C505.376 478.486 504.296 479.196 502.743 480.881C500.795 483.04 500.005 484.83 499.874 487.489C499.637 492.096 501.874 496.229 506.113 498.993C508.403 500.494 510.114 501.205 513.063 501.836C514.484 502.152 515.616 502.547 515.8 502.784C515.985 503.021 516.195 503.179 516.248 503.1C516.406 502.916 516.985 497.835 516.854 497.677C516.775 497.624 516.59 497.809 516.406 498.098C516.064 498.756 515.327 498.809 513.168 498.23C506.376 496.466 502.506 490.595 504.928 485.673C506.876 481.697 511.141 480.276 515.3 482.25C518.407 483.724 521.987 488.463 521.539 490.516C521.382 491.175 521.434 491.333 521.697 491.227C521.908 491.148 523.066 490.753 524.304 490.358C525.541 489.964 526.594 489.569 526.673 489.516C526.752 489.437 526.568 489.2 526.252 488.963C525.962 488.7 524.962 487.384 524.04 486.015C521.329 481.961 518.38 479.433 514.853 478.091C512.747 477.301 509.377 477.169 507.403 477.828Z" fill="white"/>
<path d="M420.054 487.12C413.947 489.253 409.076 496.387 407.049 506.154C405.47 513.841 405.312 524.318 406.654 534.691L407.155 538.745L405.522 542.325C399.81 554.83 390.438 572.099 382.224 585.315C379.013 590.501 371.141 602.321 368.956 605.27L367.482 607.244L364.612 608.402C360.585 610.008 353.608 613.51 349.791 615.826C340.472 621.46 333.153 628.752 330.731 634.807C328.283 640.914 328.915 645.995 332.574 649.628C334.417 651.497 336.734 652.708 339.814 653.498C342.815 654.262 348.659 654.077 352.529 653.103C361.216 650.918 370.536 646.048 380.75 638.387L384.199 635.781L390.227 635.281C402.311 634.254 406.997 634.096 423.74 634.096C440.483 634.096 445.169 634.254 457.278 635.281C460.99 635.597 463.491 635.913 463.755 636.123C464.018 636.307 465.703 637.571 467.493 638.94C476.786 645.943 486.921 651.129 495.345 653.209C497.478 653.735 498.531 653.814 502.453 653.84C506.929 653.84 507.113 653.814 509.298 653.024C513.405 651.576 516.221 649.102 517.485 645.864C517.985 644.626 518.091 643.863 518.091 641.467C518.064 639.019 517.959 638.256 517.353 636.465C515.879 632.174 513.615 628.831 509.245 624.593C502.874 618.406 494.898 613.483 483.499 608.692L479.945 607.191L478.418 605.112C476.022 601.821 468.072 589.817 464.755 584.472C456.989 571.968 448.301 555.935 442.352 543.089L440.325 538.719L440.825 534.664C442.852 518.948 441.588 505.627 437.297 496.94C435.56 493.465 433.717 491.096 431.242 489.226C428.768 487.357 427.083 486.752 424.135 486.62C422.16 486.541 421.476 486.62 420.054 487.12ZM425.767 591.264C426.82 593.107 427.978 595.108 428.347 595.713L429.031 596.845H423.74H418.422L418.975 595.977C419.291 595.529 420.449 593.502 421.581 591.528C422.687 589.527 423.661 587.921 423.74 587.921C423.819 587.921 424.714 589.422 425.767 591.264ZM431.269 600.794C443.563 601.505 455.383 603.506 466.703 606.744C480.366 610.64 493.029 616.511 501.532 622.855C503.796 624.54 507.718 628.094 507.718 628.436C507.718 628.568 505.033 630.884 501.742 633.596L495.793 638.519L494.845 638.256C494.319 638.098 492.739 637.545 491.291 637.018C483.446 634.122 468.941 632.016 448.486 630.805C434.902 630.016 411.92 629.989 399.389 630.779C397.23 630.937 394.097 631.121 392.465 631.227L389.49 631.411L395.65 625.251C403.258 617.616 409.603 610.061 414.552 602.716L415.842 600.821L417.606 600.715C421.634 600.505 426.846 600.557 431.269 600.794ZM362.243 614.405C356.53 622.013 347.843 631.516 342.525 636.018C341.288 637.071 341.262 637.124 341.999 636.966C344.605 636.413 349.265 633.596 353.661 629.91C355.135 628.673 356.346 627.752 356.346 627.857C356.346 627.962 357.057 632.174 357.899 637.255C359.716 647.838 359.874 646.653 356.504 647.943C352.187 649.602 349.502 650.128 345.158 650.155C341.946 650.155 340.946 650.049 339.761 649.655C334.18 647.733 332.179 644.547 333.285 639.23C334.759 632.148 341.604 624.909 353.24 618.09C356.109 616.379 362.717 613.115 362.875 613.299C362.954 613.352 362.664 613.852 362.243 614.405Z" fill="white"/>
<path d="M314.541 492.833C314.752 493.202 314.778 493.439 314.568 493.702C314.436 493.886 311.672 497.308 308.434 501.284C305.196 505.259 302.51 508.576 302.484 508.628C302.431 508.681 302.037 508.786 301.563 508.892L300.747 509.05L302.668 510.656C305.222 512.735 305.327 512.814 305.143 511.998C305.011 511.472 305.38 510.84 307.302 508.444C308.565 506.838 309.724 505.522 309.829 505.496C310.066 505.496 322.386 515.526 322.913 516.158C323.097 516.368 323.176 516.789 323.097 517.079C323.018 517.369 323.044 517.605 323.15 517.605C323.36 517.605 327.388 512.735 327.388 512.498C327.388 512.419 327.072 512.419 326.677 512.498C326.019 512.604 325.124 511.972 319.49 507.365C315.963 504.495 313.014 501.994 312.962 501.863C312.856 501.547 317.332 496.018 317.727 495.992C317.911 495.966 318.253 495.966 318.516 495.992C318.753 496.018 318.964 495.992 318.964 495.94C318.964 495.861 318.016 495.018 316.858 494.07C314.752 492.307 313.936 491.885 314.541 492.833Z" fill="white"/>
<path d="M534.255 496.492C534.176 497.177 533.149 498.177 527.121 503.363C518.802 510.524 519.118 510.287 518.46 509.945C518.17 509.787 517.986 509.787 517.986 509.945C517.986 510.234 521.829 514.789 522.172 514.92C522.303 514.947 522.33 514.71 522.277 514.368C522.172 513.815 523.119 512.893 529.753 507.233C536.677 501.284 537.414 500.731 538.099 500.863C538.967 501.047 539.178 501.363 536.414 498.125C535.492 497.045 534.65 496.045 534.545 495.913C534.439 495.782 534.308 496.045 534.255 496.492Z" fill="white"/>
<path d="M543.784 507.839C543.784 508.471 542.415 510.709 537.992 517.369C534.781 522.134 531.99 526.135 531.753 526.214C531.543 526.293 531.121 526.241 530.858 526.056C530.49 525.846 530.358 525.846 530.358 526.056C530.358 526.557 534.122 532.585 534.359 532.453C534.465 532.374 534.491 532.164 534.412 531.98C534.228 531.479 534.991 530.821 535.965 530.637C537.992 530.295 554.156 528.399 555.13 528.399C555.709 528.399 556.42 528.531 556.736 528.689C557.026 528.847 557.289 528.926 557.342 528.873C557.394 528.821 556.605 527.373 555.551 525.635C553.972 523.029 553.63 522.634 553.577 523.187C553.524 523.582 553.34 524.003 553.182 524.135C552.893 524.398 537.755 526.399 537.571 526.214C537.439 526.109 546.048 513.209 546.39 512.999C546.548 512.92 546.917 512.973 547.233 513.13C547.522 513.315 547.812 513.394 547.891 513.341C548.022 513.183 544.363 507.234 544.047 507.128C543.889 507.076 543.784 507.391 543.784 507.839Z" fill="white"/>
<path d="M299.22 521.054C295.324 521.817 291.77 525.082 289.822 529.715C289.163 531.242 289.111 531.742 289.084 534.585C289.084 537.613 289.111 537.823 289.927 539.508C291.006 541.799 292.823 543.615 295.166 544.747C296.877 545.589 297.14 545.642 299.773 545.642C302.432 545.642 302.616 545.616 304.538 544.668C308.381 542.746 311.409 538.534 312.146 533.98C313.12 528.057 309.618 522.686 303.827 521.159C302.116 520.738 301.036 520.712 299.22 521.054ZM303.827 525.872C306.328 527.004 307.591 528.53 308.171 531.163C308.934 534.559 306.459 539.35 303.169 540.877C300.589 542.062 296.877 541.298 294.718 539.14C292.059 536.507 291.954 532.348 294.429 528.662C296.693 525.319 300.247 524.266 303.827 525.872Z" fill="white"/>
<path d="M560.106 536.771C560.106 537.086 559.843 537.508 559.527 537.692C559.185 537.903 554.973 539.64 550.155 541.588C542.415 544.695 541.336 545.063 540.862 544.747C540.546 544.563 540.283 544.458 540.23 544.51C540.178 544.563 540.704 545.985 541.389 547.696C542.521 550.513 542.994 551.197 542.994 549.96C542.994 549.723 543.152 549.459 543.337 549.381C549.549 546.774 561.37 542.088 561.712 542.088C561.975 542.088 562.265 542.194 562.344 542.352C562.423 542.483 562.607 542.615 562.712 542.615C562.923 542.615 560.633 536.744 560.29 536.376C560.185 536.297 560.106 536.455 560.106 536.771Z" fill="white"/>
<path d="M283.924 551.566C282.687 552.224 281.397 553.724 280.634 555.383C280.134 556.462 276.58 570.704 276.58 571.599C276.58 571.731 276.843 571.678 277.185 571.468C277.712 571.099 278.58 571.257 287.11 573.284C292.243 574.495 296.666 575.548 296.929 575.653C297.166 575.759 297.377 576.075 297.377 576.338C297.377 577.654 297.851 576.549 298.509 573.732C299.351 570.072 299.351 570.046 298.719 570.625C298.219 571.073 298.035 571.046 294.428 570.257C292.349 569.783 290.585 569.335 290.479 569.23C290.374 569.125 290.585 567.756 290.98 566.124L291.664 563.201L295.824 561.596C298.114 560.701 300.194 559.99 300.431 559.99C300.667 559.99 300.904 560.227 300.983 560.516C301.062 560.806 301.194 561.043 301.299 561.043C301.536 561.043 303.247 553.645 303.037 553.461C302.958 553.382 302.51 553.698 302.01 554.172C301.457 554.698 299.851 555.541 297.482 556.541C292.428 558.647 292.638 558.594 292.638 557.673C292.638 556.488 291.848 554.145 291.138 553.171C289.69 551.276 286.03 550.46 283.924 551.566ZM288.242 556.067C289.321 556.883 289.558 558.2 289.084 560.806C288.584 563.57 287.505 568.124 287.294 568.335C287.031 568.572 281.529 567.282 281.423 566.966C281.239 566.545 283.082 559.068 283.74 557.568C284.03 556.857 284.53 556.12 284.846 555.909C285.636 555.33 287.426 555.409 288.242 556.067Z" fill="white"/>
<path d="M566.424 553.803C566.424 554.04 566.135 554.33 565.792 554.435C565.003 554.751 547.207 558.674 546.627 558.674C546.39 558.674 546.075 558.463 545.917 558.226C545.785 557.963 545.601 557.805 545.548 557.884C545.443 557.989 548.523 572.336 549.707 577.286C549.786 577.628 549.655 578.023 549.418 578.286C549.181 578.523 549.049 578.76 549.102 578.839C549.313 579.023 554.578 577.812 554.578 577.575C554.578 577.47 554.393 577.365 554.183 577.365C553.946 577.365 553.656 577.101 553.525 576.759C553.209 576.022 550.287 562.886 550.418 562.754C550.603 562.57 566.029 559.2 566.687 559.2C567.056 559.2 567.504 559.332 567.688 559.516C567.846 559.674 568.056 559.779 568.109 559.7C568.293 559.516 566.872 553.408 566.635 553.408C566.53 553.408 566.424 553.593 566.424 553.803Z" fill="white"/>
<path d="M279.344 583.814C277.949 584.288 276.264 586.184 275.658 587.921C275.211 589.185 275.158 590.343 275.053 597.688C275 602.927 275.053 606.06 275.211 606.06C275.343 606.06 275.527 605.823 275.606 605.533C275.737 605.007 275.974 605.007 286.004 605.007H296.245L296.535 605.586C296.745 606.06 296.824 605.375 296.824 602.637C296.824 599.32 296.798 599.136 296.403 599.662C296.008 600.242 295.85 600.268 291.98 600.268H287.952L287.847 594.661C287.716 588.132 287.479 587.184 285.557 585.262C283.819 583.525 281.608 583.025 279.344 583.814ZM282.608 588.263C283.003 588.474 283.477 588.974 283.661 589.395C284.135 590.422 284.504 594.608 284.425 597.635L284.346 600.136L281.345 600.215L278.37 600.294L278.502 595.608C278.581 593.028 278.765 590.475 278.923 589.948C279.476 588.184 281.029 587.447 282.608 588.263Z" fill="white"/>
<path d="M550.629 595.056C550.629 600.663 550.55 605.402 550.471 605.639C550.392 605.875 550.155 606.06 549.944 606.06C549.734 606.06 549.576 606.165 549.576 606.323C549.576 606.481 550.734 606.586 552.55 606.56C555.315 606.56 555.473 606.534 554.92 606.139C554.314 605.744 554.314 605.718 554.314 598.109V590.501L557.289 590.58L560.238 590.659L560.317 595.135C560.395 599.979 560.317 600.795 559.711 600.795C559.5 600.795 559.316 600.9 559.316 601.058C559.316 601.216 560.369 601.321 561.949 601.321C563.397 601.321 564.581 601.242 564.581 601.163C564.581 601.058 564.371 600.821 564.134 600.637C563.713 600.347 563.66 599.768 563.66 595.477V590.659H566.161H568.662L568.741 597.951C568.793 605.165 568.793 605.244 568.214 605.77L567.635 606.323L570.662 606.297C573.479 606.297 573.637 606.27 573.084 605.875L572.479 605.481L572.453 595.161C572.453 585.736 572.426 584.92 572.031 585.447L571.637 586.052H561.659C551.761 586.052 551.708 586.052 551.155 585.473L550.629 584.894V595.056Z" fill="white"/>
<path d="M290.848 636.624C286.662 638.703 287.689 644.969 292.322 645.706C294.533 646.048 297.008 644.442 297.614 642.205C297.956 640.967 297.956 640.915 297.614 639.677C296.797 636.729 293.586 635.281 290.848 636.624ZM294.402 639.651C294.928 640.178 295.034 640.467 294.902 641.152C294.586 642.784 293.059 643.389 291.743 642.363C290.795 641.625 290.795 640.257 291.743 639.519C292.691 638.782 293.586 638.835 294.402 639.651Z" fill="white"/>
<path d="M552.603 636.571C550.971 637.308 549.576 639.309 549.576 640.941C549.576 642.678 551.103 644.758 552.866 645.443C556.842 646.943 560.632 642.757 558.816 638.835C558.237 637.571 557.658 637.018 556.341 636.466C555.078 635.939 553.893 635.965 552.603 636.571ZM555.815 639.546C557.605 641.23 555.157 643.968 553.235 642.415C552.787 642.073 552.629 641.652 552.629 640.941C552.629 639.177 554.525 638.335 555.815 639.546Z" fill="white"/>
<path d="M529.253 665.503C529.332 666.135 528.463 667.346 523.224 673.98C519.881 678.244 517.011 681.904 516.853 682.062C516.669 682.325 516.774 682.377 517.353 682.272C518.038 682.141 518.959 682.799 525.62 688.064C529.753 691.328 533.307 694.224 533.57 694.514C533.807 694.829 533.939 695.277 533.833 695.619C533.754 695.988 533.807 696.119 533.991 695.988C534.149 695.909 537.071 692.276 540.52 687.932C543.942 683.562 546.943 679.929 547.154 679.798C547.365 679.666 547.76 679.64 548.023 679.692C548.312 679.771 548.523 679.771 548.523 679.692C548.523 679.613 547.444 678.718 546.127 677.665C543.837 675.875 543.732 675.822 543.916 676.56C544.048 677.27 543.653 677.876 539.414 683.22C536.861 686.458 534.728 689.143 534.702 689.169C534.676 689.222 533.57 688.406 532.254 687.379L529.832 685.484L531.201 683.746C534.018 680.192 535.755 678.06 536.018 677.849C536.15 677.744 536.492 677.718 536.755 677.771C537.572 677.981 537.229 677.507 535.571 676.191C532.886 674.059 532.965 674.111 533.149 674.954C533.254 675.585 532.886 676.191 530.358 679.376C528.752 681.403 527.331 683.088 527.226 683.141C526.962 683.22 523.25 680.35 523.25 680.087C523.277 679.982 525.304 677.349 527.805 674.243C531.517 669.583 532.464 668.557 533.122 668.451C533.886 668.32 533.86 668.293 531.675 666.556C530.437 665.555 529.358 664.766 529.279 664.766C529.2 664.766 529.174 665.108 529.253 665.503Z" fill="white"/>
<path d="M317.279 666.187C317.411 666.74 316.621 667.451 309.592 673.19C302.827 678.666 301.642 679.534 301.01 679.455C300.615 679.376 300.273 679.403 300.273 679.482C300.273 679.719 303.959 684.247 304.116 684.247C304.222 684.247 304.222 684.01 304.143 683.72C304.064 683.457 304.143 683.036 304.327 682.825C304.748 682.272 315.068 673.953 315.173 674.059C315.358 674.217 313.172 693.039 312.962 693.224C312.857 693.329 312.514 693.461 312.172 693.513C311.619 693.592 311.777 693.829 313.725 696.225C316.016 699.042 316.463 699.437 316.2 698.383C316.042 697.804 316.7 697.199 323.861 691.355C330.626 685.879 331.811 685.01 332.443 685.089C332.838 685.168 333.18 685.142 333.18 685.089C333.18 685.01 332.311 683.904 331.284 682.588C329.363 680.245 329.363 680.245 329.231 681.061C329.126 681.746 328.283 682.535 323.966 686.063C321.149 688.353 318.806 690.091 318.754 689.907C318.648 689.512 320.491 672.769 320.702 672.058C320.781 671.795 321.096 671.61 321.518 671.61C321.86 671.61 322.123 671.505 322.071 671.4C321.913 670.952 317.516 665.582 317.306 665.582C317.2 665.555 317.174 665.845 317.279 666.187Z" fill="white"/>
<path d="M344.342 695.356L344.368 696.383L334.917 701.306C328.204 704.781 325.203 706.202 324.571 706.202C324.098 706.202 323.703 706.281 323.703 706.387C323.703 706.624 328.626 710.309 328.968 710.309C329.126 710.309 329.126 710.125 328.941 709.809C328.441 709.019 328.783 708.598 330.942 707.44L332.943 706.334L337.076 709.414C339.34 711.099 341.235 712.52 341.288 712.547C341.393 712.626 340.577 716.153 340.288 716.812C340.13 717.206 339.814 717.417 339.366 717.417C338.998 717.417 338.708 717.522 338.708 717.654C338.708 718.023 344.737 722.419 344.895 722.156C344.974 722.024 344.921 721.866 344.763 721.761C344.631 721.682 344.5 721.208 344.5 720.76C344.5 719.76 348.106 700.411 348.449 699.595C348.607 699.2 348.949 698.989 349.528 698.936C350.37 698.857 350.291 698.779 347.369 696.593L344.316 694.303L344.342 695.356ZM343.842 701.148C343.789 701.332 343.368 703.254 342.894 705.439C342.446 707.598 342.025 709.414 341.999 709.467C341.946 709.519 340.525 708.519 338.866 707.255C337.181 705.992 335.839 704.912 335.918 704.86C336.102 704.649 343.578 700.858 343.763 700.832C343.868 700.832 343.921 700.99 343.842 701.148Z" fill="white"/>
<path d="M497.083 698.989C495.661 700.147 494.582 701.121 494.714 701.121C494.845 701.148 495.135 701.148 495.345 701.121C495.924 701.069 496.372 701.595 502.822 709.756C508.087 716.416 508.508 717.048 508.35 717.785L508.192 718.575L509.851 717.233C510.772 716.522 514.458 713.6 518.064 710.756C523.988 706.071 524.646 705.623 525.225 705.834C525.593 705.965 525.883 706.018 525.883 705.939C525.883 705.676 522.382 701.358 522.197 701.358C522.092 701.358 522.066 701.648 522.118 701.99C522.224 702.517 521.487 703.201 516.379 707.255C511.72 710.941 510.456 711.836 510.193 711.573C510.035 711.388 507.613 708.335 504.823 704.807C500.505 699.279 499.794 698.278 499.873 697.62C499.952 697.225 499.926 696.883 499.847 696.883C499.768 696.909 498.531 697.857 497.083 698.989Z" fill="white"/>
<path d="M361.137 708.15C359.927 710.888 359.821 711.336 360.4 710.836C360.611 710.678 361.032 710.572 361.322 710.625C361.98 710.73 372.379 715.39 372.405 715.574C372.405 715.653 368.061 717.943 362.717 720.681C357.399 723.419 352.977 725.788 352.871 725.946C352.766 726.104 352.661 726.368 352.661 726.526C352.661 726.657 356.794 728.684 361.875 730.975C369.746 734.529 371.115 735.239 371.325 735.818C371.536 736.45 371.641 736.292 372.773 733.897C373.458 732.475 373.958 731.238 373.879 731.185C373.826 731.133 373.537 731.212 373.247 731.396C372.8 731.685 371.984 731.396 367.034 729.158C363.902 727.737 361.348 726.473 361.348 726.368C361.348 726.289 365.639 723.972 370.904 721.26C376.143 718.523 380.592 716.18 380.776 716.022C380.961 715.89 381.066 715.627 381.013 715.495C380.961 715.337 376.854 713.363 371.852 711.099C364.955 707.966 362.77 706.86 362.717 706.465C362.506 705.386 362.243 705.702 361.137 708.15Z" fill="white"/>
<path d="M477.734 710.124L474.469 711.678L475.285 712.046L476.128 712.388V723.392C476.128 733.08 476.075 734.476 475.707 735.002C475.47 735.344 475.338 735.66 475.391 735.713C475.443 735.766 476.891 735.107 478.629 734.265C480.445 733.396 481.551 732.712 481.209 732.712C480.05 732.659 479.787 732.027 479.866 729.579L479.945 727.315L484.605 725.077L489.264 722.866L491.028 724.393C492.634 725.814 492.766 725.999 492.634 726.815C492.555 727.289 492.529 727.684 492.555 727.684C493.029 727.684 499.584 724.261 499.294 724.156C499.084 724.103 498.583 723.972 498.189 723.893C497.557 723.761 483.157 712.625 481.288 710.809C480.577 710.151 480.524 709.993 480.84 709.361C480.998 708.966 481.103 708.624 481.077 708.598C481.024 708.571 479.524 709.256 477.734 710.124ZM483.499 718.075C485.236 719.496 486.658 720.76 486.658 720.839C486.658 720.944 485.131 721.734 483.236 722.629L479.813 724.235V719.76C479.813 717.022 479.919 715.311 480.077 715.363C480.208 715.39 481.735 716.627 483.499 718.075Z" fill="white"/>
<path d="M458.621 717.706C457.331 717.97 455.962 718.259 455.594 718.365L454.936 718.523L455.62 718.865C456.252 719.207 456.384 719.602 457.621 725.841C458.437 729.895 458.832 732.422 458.648 732.37C458.016 732.212 443.695 722.34 443.563 721.971C443.484 721.761 443.537 721.471 443.721 721.287C443.879 721.129 444.011 720.918 444.011 720.813C444.011 720.655 436.639 722.05 436.429 722.287C436.35 722.34 436.587 722.524 436.955 722.656C437.587 722.893 437.692 723.314 439.588 732.817C441.51 742.452 441.562 742.768 441.088 743.242C440.825 743.506 440.694 743.769 440.799 743.848C441.036 744.006 446.538 742.874 446.801 742.61C446.906 742.505 446.801 742.426 446.59 742.426C446.354 742.426 446.038 742.268 445.88 742.058C445.564 741.689 442.905 728.816 443.01 728.342C443.089 728.052 457.621 737.767 458.595 738.714C458.99 739.109 459.016 739.293 458.779 739.767C458.411 740.452 458.279 740.452 462.175 739.662C465.045 739.083 466.229 738.741 465.44 738.741C464.492 738.741 464.255 737.951 462.307 728.237C460.464 719.023 460.359 718.338 460.78 717.891C461.017 717.627 461.148 717.364 461.096 717.338C461.043 717.285 459.938 717.443 458.621 717.706Z" fill="white"/>
<path d="M389.254 717.706C389.254 717.812 389.385 717.996 389.517 718.075C389.675 718.154 389.78 718.549 389.78 718.917C389.78 719.654 385.489 736.845 385.042 737.898C384.91 738.214 384.515 738.582 384.199 738.714C383.646 738.925 383.673 738.977 384.647 739.214C388.359 740.215 390.122 740.583 390.28 740.425C390.359 740.32 390.28 740.188 390.122 740.136C389.938 740.057 389.78 739.688 389.807 739.32C389.807 738.925 390.886 734.344 392.229 729.132C394.466 720.365 394.703 719.654 395.256 719.575C396.414 719.391 395.782 719.102 392.544 718.312C390.728 717.864 389.254 717.575 389.254 717.706Z" fill="white"/>
<path d="M411.893 721.998C406.628 723.472 403.206 727.789 403.206 732.949C403.206 737.898 406.259 742.005 411.261 743.769C413.183 744.427 417.026 744.69 419.133 744.295C422.844 743.611 426.214 741.136 427.767 737.977C428.557 736.345 428.61 736.108 428.61 733.212C428.61 730.343 428.557 730.08 427.767 728.421C426.267 725.236 423.266 722.919 419.475 722.024C417.474 721.55 413.525 721.55 411.893 721.998ZM420.054 726.078C421.581 726.868 422.844 728.053 423.555 729.395C424.398 730.922 424.398 734.976 423.555 736.529C422.739 738.083 420.765 739.715 419.185 740.189C416.368 741.031 412.762 740.478 410.577 738.899C407.207 736.45 406.707 730.896 409.576 727.763C411.472 725.736 412.656 725.315 416.237 725.394C418.369 725.473 419.08 725.578 420.054 726.078Z" fill="white"/>
</g>
<defs>
<clipPath id="clip0_340_185">
<rect width="846.979" height="128" fill="white" transform="translate(1026 531)"/>
</clipPath>
<clipPath id="clip1_340_185">
<rect width="189.682" height="299" fill="white" transform="translate(1354)"/>
</clipPath>
<clipPath id="clip2_340_185">
<rect width="298.335" height="298.532" fill="white" transform="translate(275 446)"/>
</clipPath>
</defs>
</svg>
